<?xml version="1.0" standalone="no"?>
<!DOCTYPE svg PUBLIC "-//W3C//DTD SVG 20010904//EN"
 "http://www.w3.org/TR/2001/REC-SVG-20010904/DTD/svg10.dtd">
<svg version="1.0" xmlns="http://www.w3.org/2000/svg"
 width="1280.000000pt" height="720.000000pt" viewBox="0 0 1280.000000 720.000000"
 preserveAspectRatio="xMidYMid meet">

<g transform="translate(0.000000,720.000000) scale(0.100000,-0.100000)"
fill="#000000" stroke="none">
<path d="M7155 6286 c-70 -31 -108 -113 -86 -186 29 -99 156 -141 235 -79 107
84 57 255 -79 274 -24 3 -52 0 -70 -9z m146 -55 c33 -33 39 -45 39 -82 0 -49
-27 -101 -61 -119 -35 -19 -107 -16 -136 6 -72 54 -79 142 -16 201 29 28 42
33 85 33 45 0 54 -4 89 -39z"/>
<path d="M3270 5770 l0 -160 595 0 595 0 0 75 0 75 95 0 94 0 41 -38 40 -39 0
-121 c0 -75 4 -122 10 -122 6 0 10 46 10 118 0 98 -3 122 -20 149 -33 54 -63
67 -169 73 l-96 5 -3 73 -3 72 -594 0 -595 0 0 -160z m1170 0 l0 -140 -575 0
-575 0 0 140 0 140 575 0 575 0 0 -140z"/>
<path d="M9305 5883 c-48 -11 -133 -61 -173 -101 -24 -24 -58 -73 -75 -110
-27 -58 -31 -79 -33 -162 l-2 -95 -308 -167 c-169 -93 -311 -168 -315 -168 -5
0 -9 111 -9 248 0 271 -1 277 -60 307 -25 13 -145 15 -886 15 l-856 0 -33 -33
-32 -32 -7 -315 c-10 -467 -3 -900 14 -926 32 -51 49 -54 329 -54 l260 0 3
-149 3 -149 228 149 229 149 304 0 304 0 0 -294 c0 -287 0 -294 -22 -326 -13
-18 -36 -43 -51 -54 -28 -21 -38 -21 -610 -24 l-582 -3 -13 82 c-27 171 -100
323 -210 441 -162 172 -353 268 -562 284 l-90 7 0 242 c0 235 -1 243 -22 275
-13 18 -36 43 -51 54 -27 20 -41 21 -401 24 l-373 3 -6 44 c-18 125 -128 270
-254 332 -69 34 -85 38 -175 41 -107 5 -162 -6 -242 -46 -61 -30 -149 -112
-183 -170 -84 -142 -85 -349 -3 -481 l29 -46 -718 -5 c-780 -5 -736 -2 -767
-61 -12 -23 -14 -125 -14 -614 0 -512 2 -590 16 -616 29 -57 47 -59 441 -59
l358 0 223 -145 c123 -80 226 -145 229 -145 2 0 2 33 -1 73 -3 39 -2 105 1
145 l6 72 249 0 c257 0 270 2 316 43 l22 20 0 551 0 551 75 12 c100 16 173 53
250 124 85 80 136 182 143 285 l5 74 354 0 c382 0 394 -1 443 -54 l25 -28 3
-249 3 -249 -48 0 c-60 0 -188 -31 -273 -66 -123 -50 -269 -167 -357 -284
-159 -213 -214 -522 -137 -765 21 -65 69 -170 94 -205 l19 -27 -107 -104 c-59
-57 -162 -157 -229 -221 l-122 -117 -65 44 c-110 74 -162 89 -301 89 -107 0
-128 -3 -188 -27 -182 -72 -297 -210 -342 -410 -49 -222 75 -470 288 -575 151
-75 318 -78 461 -8 163 78 264 211 301 395 32 154 -10 322 -108 436 l-34 40
229 219 230 219 26 -34 c45 -60 145 -149 220 -196 142 -89 299 -133 477 -133
l105 0 0 -420 0 -420 861 0 861 0 -7 -99 c-12 -166 17 -234 113 -261 20 -5
112 -10 205 -10 l167 0 0 -75 0 -75 595 0 595 0 0 165 0 165 -595 0 -595 0 0
-81 0 -81 -188 4 c-262 4 -270 11 -273 219 l-1 124 241 3 241 2 0 735 0 735
-751 0 c-746 0 -750 0 -745 20 3 11 9 30 12 42 4 12 9 64 13 115 l6 94 580 2
c631 2 607 0 662 59 40 43 43 69 43 369 l0 289 45 0 c49 0 92 17 116 46 11 14
15 84 19 366 l5 349 85 45 c47 25 190 102 318 171 128 69 234 124 236 122 2
-2 16 -28 31 -57 36 -67 110 -136 183 -170 50 -23 69 -27 157 -27 87 1 107 4
156 27 114 54 201 175 222 307 17 112 -17 211 -106 308 -48 52 -89 79 -153 98
-46 14 -174 19 -219 8z m232 -35 c67 -25 157 -108 192 -176 89 -174 8 -393
-177 -484 -59 -29 -76 -33 -147 -32 -148 1 -263 71 -327 201 -28 58 -32 75
-32 152 -1 81 2 92 37 164 43 88 95 136 184 173 78 32 189 33 270 2z m-1217
-233 c16 -8 34 -24 40 -34 6 -13 10 -226 10 -616 l0 -597 -29 -29 -29 -29
-184 0 -184 0 -16 69 c-25 106 -63 174 -139 245 -103 98 -197 135 -340 136
-231 0 -425 -159 -470 -386 l-13 -64 -182 0 c-182 0 -183 0 -213 26 l-31 26 0
602 c0 652 -1 634 54 656 11 5 398 9 859 9 729 1 842 -1 867 -14z m-3410 -247
c242 -110 339 -384 220 -619 -35 -68 -126 -156 -194 -189 -62 -29 -178 -56
-196 -45 -6 3 -10 24 -10 45 0 30 -7 48 -29 72 l-29 33 -135 3 -135 4 -26 36
c-49 72 -69 132 -74 227 -3 74 0 101 18 155 48 144 139 238 282 291 77 28 231
22 308 -13z m2665 -644 c75 -19 136 -54 202 -117 76 -72 118 -153 137 -264 l6
-33 -175 0 -174 0 -213 -140 -213 -139 -3 139 -3 140 -75 0 -76 0 7 43 c45
269 314 441 580 371z m-2894 -103 l29 -29 0 -600 0 -600 -31 -26 c-30 -26 -32
-26 -210 -26 l-179 0 0 28 c0 36 -20 102 -50 167 -33 70 -140 172 -221 212
-287 141 -639 -32 -692 -341 l-11 -66 -167 0 c-184 0 -222 8 -244 51 -21 40
-22 1171 -1 1208 29 52 0 50 904 51 l844 0 29 -29z m1536 -255 c271 -57 495
-234 609 -481 56 -122 77 -235 71 -390 -5 -129 -9 -148 -60 -284 -24 -63 -96
-176 -156 -243 -134 -151 -368 -263 -572 -275 -239 -14 -461 65 -630 224 -158
150 -243 311 -269 513 -38 293 84 581 329 778 176 141 451 205 678 158z
m-2307 -602 c110 -26 215 -99 280 -195 40 -59 80 -160 80 -204 0 -25 -1 -25
-80 -25 l-80 0 0 -135 0 -134 -32 20 c-18 11 -112 71 -208 134 l-175 115 -179
0 -179 0 7 52 c17 129 127 273 256 336 106 52 198 63 310 36z m4460 -569 l0
-85 -779 0 -778 0 21 43 c12 23 30 62 39 85 l17 42 740 0 740 0 0 -85z m0
-725 l0 -620 -1090 0 -1090 0 0 413 0 414 75 20 75 20 0 -94 0 -93 205 0 205
0 -2 203 -3 202 -27 3 -27 3 56 75 56 74 784 0 783 0 0 -620z m-1640 265 l0
-185 -185 0 -185 0 0 88 1 87 87 42 c48 23 116 66 152 97 49 41 73 55 98 55
l32 1 0 -185z m-2105 -20 c95 -25 165 -65 236 -135 90 -89 137 -185 154 -315
17 -136 -51 -322 -150 -413 -132 -121 -229 -158 -393 -149 -97 5 -111 8 -186
45 -179 89 -282 243 -293 439 -9 154 44 289 155 400 119 117 315 169 477 128z
m4915 -1240 l0 -145 -575 0 -575 0 0 145 0 145 575 0 575 0 0 -145z"/>
<path d="M7367 5346 c-66 -24 -122 -75 -153 -141 -18 -38 -24 -67 -24 -123 0
-84 19 -130 77 -188 174 -175 453 -55 457 196 1 51 -5 76 -24 114 -63 123
-210 186 -333 142z m146 -17 c110 -27 187 -127 187 -241 -1 -106 -44 -178
-135 -226 -127 -66 -288 -2 -341 135 -27 69 -15 168 25 227 64 93 161 132 264
105z"/>
<path d="M3694 4371 c-55 -25 -111 -76 -137 -125 -17 -33 -22 -58 -22 -126 0
-99 19 -144 84 -203 55 -50 101 -67 180 -67 152 1 258 100 269 253 4 60 2 73
-27 131 -33 67 -71 103 -143 136 -56 25 -149 26 -204 1z m221 -33 c148 -95
177 -259 69 -387 -66 -79 -199 -104 -293 -56 -188 95 -187 354 2 450 45 23 61
26 117 22 48 -3 76 -11 105 -29z"/>
<path d="M6847 2933 c-4 -3 -7 -96 -7 -205 l0 -198 205 0 205 0 0 205 0 205
-198 0 c-109 0 -202 -3 -205 -7z m383 -198 l0 -185 -185 0 -185 0 0 185 0 185
185 0 185 0 0 -185z"/>
<path d="M7380 2480 c0 -300 3 -460 10 -460 7 0 10 160 10 460 0 300 -3 460
-10 460 -7 0 -10 -160 -10 -460z"/>
<path d="M7536 2500 c-3 -77 -3 -216 0 -309 l7 -169 111 -6 c61 -3 215 -5 341
-3 l230 2 0 310 0 310 -341 2 -341 2 -7 -139z m672 -171 l-3 -290 -323 -2
-322 -2 0 291 0 292 325 1 325 1 -2 -291z"/>
<path d="M8086 2534 c-18 -18 -20 -32 -6 -54 5 -8 5 -19 1 -25 -5 -5 -36 -65
-70 -131 -56 -109 -66 -122 -91 -126 -24 -4 -39 4 -80 40 -33 28 -50 51 -50
67 0 33 -25 51 -58 39 -22 -8 -27 -16 -28 -43 0 -25 -13 -49 -50 -95 -65 -78
-88 -115 -80 -123 3 -4 13 3 21 14 8 12 40 51 70 89 71 86 97 91 165 32 30
-27 47 -50 50 -71 4 -24 12 -34 34 -42 24 -8 31 -6 46 13 13 15 17 33 14 55
-4 26 8 56 64 157 38 69 74 124 81 122 6 -1 21 2 31 8 23 12 27 59 8 78 -17
17 -54 15 -72 -4z m62 -27 c4 -20 -25 -34 -40 -19 -15 15 -1 44 19 40 10 -2
19 -11 21 -21z m-382 -192 c4 -8 3 -22 0 -30 -4 -13 -10 -14 -26 -5 -22 12
-27 36 -7 43 21 9 27 7 33 -8z m182 -161 c2 -12 -4 -24 -12 -27 -19 -7 -40 18
-32 39 8 22 40 13 44 -12z"/>
<path d="M6340 2225 l0 -205 203 2 202 3 0 200 0 200 -202 3 -203 2 0 -205z
m388 -2 l2 -183 -185 0 -185 0 0 185 0 185 183 -2 182 -3 3 -182z"/>
<path d="M6846 2414 c-3 -9 -6 -101 -6 -205 l0 -189 205 0 205 0 0 205 0 205
-199 0 c-172 0 -200 -2 -205 -16z m384 -189 l0 -185 -185 0 -185 0 0 178 c0
98 3 182 7 185 3 4 87 7 185 7 l178 0 0 -185z"/>
<path d="M2241 4168 c-53 -26 -95 -82 -111 -148 -10 -40 -9 -58 4 -102 19 -67
37 -92 89 -125 53 -33 158 -44 203 -20 37 19 91 73 110 109 22 42 28 111 14
153 -16 47 -72 111 -121 136 -52 26 -132 25 -188 -3z m201 -29 c68 -44 100
-126 84 -215 -5 -25 -23 -51 -55 -84 -39 -39 -57 -50 -96 -55 -164 -25 -286
152 -199 291 41 67 100 97 175 91 35 -3 69 -13 91 -28z"/>
<path d="M8666 3773 c-3 -3 -6 -89 -6 -190 l0 -183 825 0 825 0 -2 188 -3 187
-816 2 c-449 1 -819 0 -823 -4z m887 -23 l737 0 0 -160 0 -160 -805 0 -805 0
0 166 0 167 68 -6 c37 -4 399 -7 805 -7z"/>
<path d="M2785 2888 c-27 -15 -35 -28 -35 -60 0 -57 76 -91 113 -50 22 24 22
39 1 18 -33 -34 -94 -5 -94 45 0 24 6 33 33 44 17 8 25 14 17 14 -8 0 -24 -5
-35 -11z"/>
<path d="M2858 2872 c9 -10 19 -17 21 -16 6 5 -20 34 -30 34 -5 0 -1 -8 9 -18z"/>
<path d="M9234 2591 c-52 -32 -85 -83 -86 -133 -2 -125 122 -210 234 -160 38
16 50 29 72 75 31 62 29 106 -6 164 -42 70 -146 96 -214 54z m154 -23 c44 -27
76 -96 67 -144 -8 -45 -58 -101 -101 -113 -68 -19 -152 27 -174 95 -41 122 98
230 208 162z"/>
<path d="M5330 1270 l0 -370 380 0 380 0 0 370 0 370 -380 0 -380 0 0 -370z
m740 0 l0 -350 -360 0 -360 0 0 350 0 350 360 0 360 0 0 -350z"/>
<path d="M5430 1270 l0 -270 286 0 c187 0 283 3 279 10 -4 6 -60 10 -136 10
l-129 0 0 70 c0 40 -4 70 -10 70 -6 0 -10 -30 -10 -70 l0 -70 -35 0 -35 0 -1
83 c0 45 0 101 1 123 1 23 -3 45 -9 49 -12 7 -17 -64 -12 -182 l3 -73 -41 0
-41 0 0 190 c0 120 -4 190 -10 190 -6 0 -10 -70 -10 -190 l0 -190 -35 0 -35 0
0 260 c0 167 -4 260 -10 260 -6 0 -10 -97 -10 -270z"/>
<path d="M6813 1505 c-91 -38 -97 -157 -9 -199 42 -20 69 -20 106 -1 53 27 73
91 46 143 -30 59 -86 81 -143 57z m93 -30 c12 -8 27 -28 33 -44 11 -24 10 -35
-4 -65 -40 -84 -169 -53 -169 40 0 67 84 109 140 69z"/>
</g>
</svg>
