<?xml version="1.0" standalone="no"?>
<!DOCTYPE svg PUBLIC "-//W3C//DTD SVG 20010904//EN"
 "http://www.w3.org/TR/2001/REC-SVG-20010904/DTD/svg10.dtd">
<svg version="1.0" xmlns="http://www.w3.org/2000/svg"
 width="784.000000pt" height="1168.000000pt" viewBox="0 0 784.000000 1168.000000"
 preserveAspectRatio="xMidYMid meet">

<g transform="translate(0.000000,1168.000000) scale(0.100000,-0.100000)"
fill="#000000" stroke="none">
<path d="M3026 11628 l-107 -53 198 -103 c109 -56 237 -123 286 -148 81 -43
90 -45 117 -34 17 7 30 15 30 19 0 3 -50 32 -110 64 -61 32 -110 61 -109 65 0
4 28 21 61 37 34 17 70 42 81 57 20 26 20 30 5 61 -10 20 -35 45 -61 61 -42
24 -54 26 -165 26 l-119 0 -107 -52z m304 6 c43 -17 60 -39 60 -74 0 -21 -73
-75 -115 -86 -13 -3 -58 16 -124 52 l-104 57 34 15 c131 57 178 64 249 36z"/>
<path d="M2627 11424 c-3 -4 -1 -16 5 -28 18 -36 240 -411 248 -419 4 -5 110
44 236 107 126 63 227 115 224 116 -3 0 -160 52 -350 115 -190 63 -348 115
-351 115 -3 0 -9 -3 -12 -6z m396 -168 c98 -33 174 -62 170 -66 -25 -23 -277
-142 -281 -132 -2 6 -41 72 -88 148 -46 75 -84 138 -84 139 0 4 54 -13 283
-89z"/>
<path d="M7640 11209 c-58 -23 -78 -70 -42 -102 9 -8 37 -24 63 -35 37 -16 48
-17 62 -7 15 11 12 14 -28 29 -25 10 -50 27 -56 39 -27 49 84 77 167 42 34
-14 35 -14 32 7 -2 14 -13 25 -28 29 -38 10 -142 9 -170 -2z"/>
<path d="M4991 11158 c-1 -32 -5 -34 -991 -531 -382 -192 -701 -355 -708 -362
-19 -17 -2 -25 28 -12 25 10 35 13 58 15 7 1 10 7 7 12 -4 6 5 10 20 10 15 0
58 16 96 35 38 19 69 32 69 29 0 -3 24 8 54 25 30 16 57 27 59 24 10 -9 48 18
41 29 -5 7 -2 8 6 3 7 -4 15 -3 19 2 7 11 75 43 91 43 6 0 8 4 5 10 -3 5 0 7
8 4 8 -3 17 2 21 11 4 11 12 14 26 10 11 -4 20 -2 20 4 0 6 6 11 14 11 8 0 21
6 28 13 7 8 26 17 41 21 15 3 25 11 22 16 -3 6 1 10 10 10 8 0 23 4 33 9 9 5
28 14 42 20 14 6 32 15 40 20 8 5 47 25 85 44 113 56 125 64 117 71 -4 4 7 5
23 1 18 -4 25 -3 18 2 -8 6 2 13 32 22 25 7 45 17 45 22 0 5 11 9 25 9 14 0
34 9 45 20 11 11 27 20 35 20 8 0 15 5 15 10 0 6 9 10 20 10 11 0 20 5 20 11
0 5 4 8 9 4 5 -3 16 2 24 10 9 8 26 15 39 16 14 0 17 3 9 6 -8 3 3 12 29 20
23 8 52 23 63 33 11 11 24 17 29 14 4 -3 8 -1 8 5 0 6 7 8 15 5 8 -4 15 -1 15
5 0 6 9 11 19 11 23 0 101 40 98 51 -1 4 7 14 18 22 15 11 17 18 8 28 -6 8
-13 28 -16 44 -4 29 -4 29 -6 3z"/>
<path d="M7823 11043 c3 -18 -2 -40 -15 -61 l-21 -34 27 -26 26 -27 0 88 c0
57 -4 87 -11 87 -7 0 -9 -11 -6 -27z"/>
<path d="M5356 9969 c-22 -5 -84 -33 -137 -61 l-98 -52 32 -19 c18 -11 145
-78 282 -148 l251 -128 28 18 28 19 -63 35 c-35 19 -85 46 -111 58 -27 13 -48
25 -48 28 0 4 28 19 61 36 62 30 99 65 99 93 0 24 -85 100 -127 112 -55 16
-152 21 -197 9z m151 -54 c88 -37 97 -80 26 -125 -26 -16 -54 -32 -64 -35 -19
-6 -219 89 -219 104 0 4 30 22 68 39 75 36 132 41 189 17z"/>
<path d="M4810 9701 c0 -5 37 -71 82 -147 122 -208 167 -287 170 -296 2 -5 54
14 116 43 104 49 112 54 112 81 0 15 -4 28 -9 28 -5 0 -44 -18 -87 -41 -74
-38 -79 -39 -92 -22 -25 34 -173 275 -170 277 2 2 82 -26 178 -60 96 -35 184
-63 195 -63 11 0 28 6 38 13 16 13 12 16 -40 34 -500 173 -493 171 -493 153z"/>
<path d="M7268 9397 c-5 -10 -161 -94 -388 -207 -209 -104 -380 -193 -380
-197 0 -4 14 -12 31 -16 36 -9 93 7 123 34 11 11 26 19 33 19 7 0 13 4 13 10
0 5 7 7 15 4 8 -4 15 -1 15 6 0 6 4 9 8 6 5 -3 16 4 25 15 9 10 25 19 36 19
10 0 24 7 31 15 7 8 19 15 26 15 8 0 14 5 14 10 0 6 3 9 8 8 5 -2 161 70 264
123 10 5 27 9 38 9 14 0 19 4 14 12 -5 8 -2 9 9 5 10 -3 17 -2 17 3 0 5 7 6
17 3 11 -4 14 -3 9 5 -4 8 0 12 11 12 15 0 16 2 3 10 -13 8 -12 10 3 10 10 0
16 4 13 9 -4 5 -3 11 2 13 4 1 5 17 2 33 -4 24 -7 26 -12 12z"/>
<path d="M4770 8746 c0 -3 9 -10 20 -16 11 -6 20 -8 20 -6 0 3 -9 10 -20 16
-11 6 -20 8 -20 6z"/>
<path d="M4840 8706 c0 -3 39 -26 88 -52 48 -26 117 -66 153 -89 36 -23 110
-64 165 -90 88 -43 108 -49 179 -53 44 -2 95 0 114 5 l35 9 -40 23 c-38 23
-40 23 -84 7 -88 -32 -68 -39 -487 181 -68 35 -123 62 -123 59z"/>
<path d="M2038 8275 c-231 -37 -398 -161 -398 -297 0 -135 131 -248 362 -315
l91 -26 396 197 c218 109 397 201 399 206 4 11 -141 116 -208 150 -182 91
-407 121 -642 85z m331 -30 c64 -6 199 -44 256 -72 58 -28 185 -118 185 -130
0 -7 -5 -13 -10 -13 -6 0 -171 -79 -366 -175 l-356 -175 -71 21 c-244 72 -356
212 -286 356 26 55 67 88 154 128 85 39 153 56 265 65 84 7 103 7 229 -5z"/>
<path d="M2226 8221 c-12 -19 5 -61 26 -61 16 0 19 6 16 32 -3 33 -29 50 -42
29z"/>
<path d="M2546 8145 c-9 -13 -16 -27 -16 -30 0 -13 39 -3 54 14 17 19 17 20
-2 30 -17 9 -23 6 -36 -14z"/>
<path d="M1890 8152 c0 -9 80 -52 98 -52 25 0 11 20 -28 40 -40 20 -70 26 -70
12z"/>
<path d="M2175 8066 c5 -55 3 -90 -4 -104 -26 -48 101 -86 157 -46 30 21 28
39 -8 66 -17 12 -55 55 -86 95 -31 40 -58 73 -61 73 -3 0 -2 -38 2 -84z m129
-107 c14 -13 -13 -39 -41 -39 -29 0 -63 17 -63 31 0 25 79 31 104 8z"/>
<path d="M1750 7970 c0 -6 28 -10 65 -10 37 0 65 4 65 10 0 6 -28 10 -65 10
-37 0 -65 -4 -65 -10z"/>
<path d="M1936 7809 c-28 -15 -35 -24 -27 -32 8 -8 23 -5 58 12 36 17 43 25
32 32 -18 11 -18 12 -63 -12z"/>
<path d="M4120 7768 c0 -29 -58 -60 -1252 -662 -504 -254 -552 -276 -600 -277
-39 0 -48 -3 -33 -9 52 -22 164 -2 246 45 24 13 46 22 51 19 4 -3 8 0 8 6 0 6
5 8 11 5 5 -4 18 0 28 9 11 10 25 14 36 10 11 -5 16 -3 12 2 -3 5 9 16 26 23
18 7 49 25 69 38 21 14 44 23 53 19 9 -3 14 -2 11 2 -6 9 67 44 99 48 11 1 23
3 27 3 4 1 5 8 1 17 -4 12 0 14 23 9 20 -5 25 -4 15 3 -10 8 -6 11 18 17 17 3
33 11 36 16 4 5 16 9 27 9 12 0 18 3 15 7 -12 12 28 32 53 27 20 -5 22 -3 10
5 -13 9 -12 11 6 11 12 0 27 7 34 14 6 8 27 20 46 26 19 7 32 15 29 20 -3 4 7
11 23 15 15 3 47 20 71 36 24 16 59 31 77 35 18 3 38 12 45 20 6 8 20 14 30
14 10 0 23 8 28 18 8 12 10 13 11 3 0 -11 6 -9 23 6 12 11 38 27 57 36 19 8
45 25 58 37 12 11 22 18 22 14 0 -3 15 3 34 14 25 15 36 17 40 9 2 -7 5 -4 5
6 1 10 9 17 21 17 11 0 20 5 20 11 0 5 5 7 10 4 6 -4 17 -1 25 5 8 7 22 10 30
6 9 -3 13 -2 10 3 -5 10 11 24 31 27 6 1 24 10 39 20 15 10 37 20 47 21 11 2
27 10 35 19 9 8 22 13 30 10 21 -8 103 79 89 95 -8 9 -8 10 2 5 16 -9 15 3 -3
34 l-14 25 -1 -27z"/>
<path d="M6249 7176 c-3 -4 -541 -76 -563 -76 -3 0 -6 -9 -6 -21 0 -18 4 -20
43 -14 251 37 427 59 427 54 0 -4 -216 -180 -274 -222 -7 -5 -43 10 -94 38
-83 47 -112 51 -112 18 0 -12 35 -37 112 -79 l112 -61 210 169 c116 94 212
174 214 178 4 12 -59 26 -69 16z"/>
<path d="M6276 6894 l-269 -136 32 -21 33 -20 117 58 117 57 84 -43 c76 -38
94 -43 170 -47 70 -3 95 0 142 18 90 34 114 91 61 142 -27 26 -198 129 -211
127 -4 0 -128 -61 -276 -135z m348 41 c88 -51 99 -96 34 -128 -79 -38 -139
-32 -237 24 l-55 31 90 48 c49 26 97 48 107 49 10 0 38 -10 61 -24z"/>
<path d="M7815 6567 c-11 -8 -263 -137 -560 -287 -297 -150 -636 -322 -754
-382 -161 -82 -224 -108 -255 -109 l-41 -1 43 -11 c71 -17 149 4 310 83 79 39
172 88 205 109 34 20 125 69 202 107 77 39 149 75 160 81 11 6 32 16 47 23 15
7 25 18 21 23 -3 6 -1 7 5 3 6 -3 41 9 77 29 37 19 75 35 85 35 9 0 23 7 30
15 6 8 22 17 33 21 12 4 41 20 64 35 23 16 45 29 48 29 4 0 64 28 133 62 70
34 135 61 145 60 22 -1 29 16 25 57 -3 29 -4 31 -23 18z"/>
<path d="M872 6140 c-111 -58 -351 -179 -531 -270 l-329 -165 0 -45 c0 -25 3
-35 5 -22 2 12 10 22 17 22 12 0 134 59 181 88 11 7 40 21 65 32 25 11 72 35
106 53 34 19 70 37 80 41 22 7 56 27 75 43 8 6 16 11 19 11 20 0 59 16 55 22
-2 4 17 15 43 24 26 10 56 22 67 29 11 6 65 33 120 59 55 27 107 53 115 58 8
6 26 15 40 20 50 20 75 39 81 63 4 14 4 29 0 34 -3 5 -97 -39 -209 -97z"/>
<path d="M2931 5704 l-284 -142 32 -17 c26 -13 81 -17 322 -22 l290 -6 -1
-170 c-2 -169 -2 -170 22 -183 12 -7 29 -13 36 -14 25 0 592 285 592 298 0 37
-64 92 -108 92 -17 0 -19 -4 -12 -35 5 -22 4 -38 -4 -44 -6 -5 -102 -54 -213
-110 l-203 -101 0 155 c0 152 0 155 -22 159 -13 3 -135 8 -271 12 -136 3 -247
8 -245 9 2 2 99 51 216 109 116 58 212 108 212 111 0 2 -17 13 -37 23 l-38 19
-284 -143z"/>
<path d="M7189 5346 c12 -14 411 -220 411 -212 0 2 -64 39 -142 82 -79 42
-169 92 -201 110 -62 36 -87 44 -68 20z"/>
<path d="M5121 5235 c-55 -30 -77 -51 -36 -33 29 12 96 58 85 57 -3 0 -25 -11
-49 -24z"/>
<path d="M5203 5219 c-6 -6 -26 -13 -44 -15 -18 -2 -38 -9 -44 -15 -7 -7 -4
-8 10 -3 25 9 18 1 -14 -16 -15 -7 -21 -8 -17 -1 5 7 1 9 -8 5 -9 -3 -14 -10
-11 -14 3 -5 -5 -6 -17 -2 -16 4 -19 2 -13 -8 5 -9 4 -11 -3 -6 -6 4 -19 -2
-29 -14 -10 -11 -21 -20 -25 -20 -4 0 -22 -10 -41 -23 -19 -13 -370 -191 -781
-396 -702 -351 -749 -373 -789 -368 l-42 5 35 -15 c58 -25 116 -11 268 64 75
37 139 71 140 75 2 5 12 8 23 8 10 0 19 4 19 9 0 5 11 12 25 15 14 4 23 10 21
15 -3 5 0 8 7 8 13 -2 136 56 287 134 52 27 120 60 150 75 142 66 261 127 266
135 8 14 97 53 113 50 7 -1 10 2 7 8 -4 6 5 13 19 17 14 3 25 10 25 14 0 5 14
11 30 15 17 4 30 11 30 16 0 5 4 9 9 9 5 0 22 5 38 12 15 6 32 10 36 10 4 -1
10 4 13 12 3 8 12 12 20 9 8 -3 14 0 14 6 0 6 8 11 18 11 9 0 33 10 52 22 19
12 46 23 59 24 13 2 31 10 40 18 10 9 23 16 29 16 16 0 85 42 98 59 22 29 1
64 -23 40z"/>
<path d="M4973 5158 c-34 -18 -61 -34 -59 -36 2 -2 35 13 72 32 38 19 65 35
59 35 -5 1 -38 -14 -72 -31z"/>
<path d="M4770 5055 c-14 -8 -20 -14 -15 -14 6 0 21 6 35 14 14 8 21 14 15 14
-5 0 -21 -6 -35 -14z"/>
<path d="M4690 5015 c-14 -8 -20 -14 -14 -15 5 0 19 7 30 15 24 18 16 19 -16
0z"/>
<path d="M4454 4894 c-18 -14 -18 -15 4 -4 12 6 22 13 22 15 0 8 -5 6 -26 -11z"/>
<path d="M4374 4854 c-18 -14 -18 -14 6 -3 31 14 36 19 24 19 -6 0 -19 -7 -30
-16z"/>
<path d="M4310 4820 c-8 -5 -10 -10 -5 -10 6 0 17 5 25 10 8 5 11 10 5 10 -5
0 -17 -5 -25 -10z"/>
<path d="M3990 4660 c-9 -6 -10 -10 -3 -10 6 0 15 5 18 10 8 12 4 12 -15 0z"/>
<path d="M6335 4307 c-75 -34 -69 -69 20 -122 l65 -37 -25 -20 c-24 -19 -24
-19 -74 7 -62 31 -66 31 -139 -1 l-59 -25 -52 31 c-51 32 -61 45 -39 52 23 8
-4 28 -58 44 -38 11 -83 15 -138 12 -71 -3 -89 -7 -132 -34 -33 -20 -48 -37
-47 -49 1 -11 -3 -27 -8 -36 -7 -14 -4 -22 13 -33 28 -20 51 -20 88 -1 28 15
32 14 87 -17 32 -17 59 -33 61 -34 2 -1 -2 -11 -9 -21 -9 -15 -8 -26 5 -51 22
-43 20 -75 -7 -100 l-23 -21 -88 50 c-119 68 -169 74 -249 29 -31 -17 -60 -36
-63 -41 -11 -18 17 -38 135 -100 64 -34 159 -86 211 -115 128 -72 164 -76 250
-32 36 18 66 40 68 48 1 9 -13 25 -34 37 l-38 21 99 46 99 47 51 -28 c27 -15
64 -34 80 -42 17 -9 32 -18 35 -19 3 -2 -6 -13 -19 -24 -21 -16 -22 -21 -10
-28 27 -17 106 -29 135 -21 51 15 132 60 148 83 37 53 1 115 -59 104 -27 -5
-46 0 -90 25 -30 17 -55 34 -55 39 0 4 13 13 30 20 16 7 35 19 42 27 10 13 8
19 -16 38 l-29 23 32 16 c30 16 32 16 108 -25 71 -37 83 -41 136 -37 90 7 144
61 100 100 -10 9 -103 63 -207 119 -166 91 -196 103 -245 106 -33 2 -68 -2
-86 -10z m270 -102 c228 -126 225 -124 225 -145 0 -11 -9 -24 -19 -30 -38 -20
-85 -10 -166 35 -44 24 -130 72 -192 106 -61 33 -114 68 -117 76 -8 20 50 44
94 39 19 -2 98 -39 175 -81z m-670 6 c28 -6 29 -7 10 -18 l-20 -12 20 -15 c11
-8 54 -32 95 -53 41 -20 116 -60 165 -89 50 -28 100 -55 112 -58 11 -4 27 -13
33 -21 10 -13 6 -18 -24 -30 -20 -8 -98 -44 -173 -80 l-136 -64 -38 19 c-50
26 -55 37 -30 64 25 27 27 63 4 111 -16 33 -16 36 2 49 10 7 15 18 11 24 -3 6
-43 32 -88 58 -78 45 -84 46 -123 36 -22 -6 -41 -9 -43 -7 -9 9 13 57 32 67
46 25 128 33 191 19z m448 -155 l108 -64 -37 -21 -36 -22 -47 29 c-25 16 -76
46 -113 66 -38 20 -68 41 -68 45 0 11 40 30 65 30 11 1 69 -28 128 -63z m112
50 c18 -13 17 -14 -11 -29 -25 -13 -32 -13 -49 -1 -19 14 -19 14 1 29 24 18
35 18 59 1z m-694 -259 c74 -41 164 -90 202 -108 37 -18 67 -37 67 -41 0 -5
-25 -20 -55 -35 l-54 -27 -58 31 c-93 49 -376 203 -380 207 -2 2 15 15 39 30
30 18 53 25 74 22 17 -2 91 -38 165 -79z m700 12 c79 -41 102 -49 113 -40 17
15 30 -1 22 -27 -13 -39 -166 -107 -166 -73 0 6 5 11 10 11 6 0 10 6 10 13 0
6 -43 35 -95 62 -52 28 -95 53 -95 56 0 5 78 43 98 48 2 1 48 -22 103 -50z"/>
<path d="M1566 3029 c-171 -18 -301 -82 -347 -171 -44 -87 -2 -181 115 -257
218 -141 586 -161 786 -42 25 15 117 49 205 75 88 27 161 49 162 50 2 2 -15
12 -37 25 l-39 22 -86 -31 c-48 -16 -90 -30 -95 -30 -4 0 -7 21 -7 48 2 164
-209 290 -528 315 -27 2 -86 0 -129 -4z m204 -60 c207 -33 356 -137 354 -245
-1 -57 -32 -97 -104 -133 -85 -42 -156 -54 -285 -49 -400 17 -583 302 -261
407 97 32 187 38 296 20z"/>
<path d="M6465 2919 c-164 -86 -197 -100 -240 -100 -55 -1 -43 -17 16 -20 37
-2 156 28 165 42 3 5 16 9 30 9 13 0 24 5 24 10 0 6 5 10 12 10 11 0 80 29
120 51 10 5 29 9 43 9 19 0 25 5 25 23 0 12 3 32 6 45 4 12 2 22 -2 22 -5 0
-94 -46 -199 -101z"/>
<path d="M3582 2410 c-74 -37 -138 -72 -144 -78 -7 -7 2 -14 30 -23 36 -10 45
-10 68 5 14 10 35 15 48 12 19 -5 19 -4 -4 14 -14 11 -28 20 -32 20 -5 0 -8 5
-8 10 0 6 14 3 31 -6 21 -10 29 -11 23 -3 -5 9 -2 11 9 6 10 -3 17 -2 17 3 0
5 6 7 13 4 14 -5 78 40 96 68 7 12 7 19 -2 26 -8 7 -52 -10 -145 -58z"/>
<path d="M3630 2306 c0 -2 7 -7 16 -10 8 -3 12 -2 9 4 -6 10 -25 14 -25 6z"/>
<path d="M2850 2037 c-472 -239 -590 -301 -582 -309 11 -11 72 -19 72 -9 0 4
-6 13 -12 20 -11 10 -6 11 23 6 23 -4 39 -3 44 4 3 6 11 9 16 6 5 -4 9 -2 9 4
0 8 32 24 52 26 3 0 10 3 14 8 4 4 15 7 25 7 10 0 24 6 31 13 26 23 59 38 70
31 6 -4 8 -3 5 4 -4 6 12 20 39 32 25 12 59 34 77 49 17 14 27 19 23 11 -7
-12 -6 -13 4 -3 10 9 19 9 43 -3 16 -9 27 -11 23 -6 -3 5 -22 17 -42 27 -46
22 -37 31 11 11 45 -19 48 -19 39 -4 -5 8 -2 9 9 5 9 -3 19 -2 23 4 3 6 12 8
20 5 9 -3 11 0 7 11 -4 11 -2 14 5 9 16 -10 16 16 0 32 -9 9 -8 12 5 12 9 0
17 7 17 15 0 19 7 20 -70 -18z"/>
<path d="M6943 1765 c-24 -10 -33 -20 -33 -38 0 -28 48 -76 98 -96 59 -25 27
-52 -37 -31 -31 10 -43 9 -74 -4 -36 -14 -40 -14 -84 9 -55 30 -75 31 -132 5
-39 -18 -43 -23 -38 -48 5 -27 1 -30 -127 -95 -132 -66 -134 -67 -165 -51 -55
28 -130 29 -180 2 -49 -25 -67 -47 -58 -71 3 -8 45 -36 94 -62 48 -26 145 -81
216 -122 140 -81 189 -96 259 -78 96 24 124 68 71 111 l-27 22 141 70 c128 65
143 70 170 60 34 -13 65 -7 113 23 l34 21 -25 22 c-15 11 -35 26 -45 33 -17
11 -16 12 13 12 38 1 53 19 29 37 -18 13 -14 34 5 34 6 0 47 -18 91 -40 87
-43 128 -49 183 -26 49 21 62 51 38 84 -20 27 -311 199 -372 220 -45 16 -119
14 -158 -3z m182 -48 c81 -39 249 -140 283 -170 28 -26 28 -33 -3 -53 -32 -21
-67 -13 -142 33 -32 19 -103 60 -158 90 -143 79 -164 102 -111 123 37 15 60
11 131 -23z m-160 -237 c72 -41 132 -76 135 -78 3 -2 -3 -10 -14 -17 -16 -12
-24 -12 -53 0 -34 14 -36 14 -194 -65 l-160 -80 -109 60 c-60 33 -114 60 -120
60 -34 0 12 32 144 101 134 69 147 78 127 88 -28 16 -27 27 7 39 21 8 35 5 67
-13 22 -12 99 -55 170 -95z m149 94 c21 -8 2 -34 -25 -34 -26 0 -33 17 -12 29
22 13 18 12 37 5z m-89 -45 c72 -39 92 -59 60 -59 -9 0 -52 18 -97 41 -60 30
-77 43 -67 50 21 13 24 12 104 -32z m-532 -233 c103 -55 199 -111 214 -122
l27 -22 -34 -21 c-58 -35 -93 -28 -210 40 -58 33 -151 85 -207 115 -57 31
-106 60 -109 66 -8 12 32 45 61 51 39 7 72 -6 258 -107z"/>
<path d="M2060 1638 c-126 -61 -175 -81 -208 -81 -30 0 -40 -3 -32 -11 15 -15
122 -11 151 5 13 7 31 14 40 16 9 1 46 16 82 33 36 16 71 30 79 30 7 0 22 7
32 15 11 8 27 15 37 15 9 0 22 6 29 14 6 8 19 12 28 9 9 -3 4 4 -13 16 -16 11
-37 21 -45 20 -8 0 -89 -37 -180 -81z"/>
<path d="M7825 762 c-5 -5 -219 -115 -475 -243 -457 -230 -466 -234 -527 -234
-52 0 -58 -2 -40 -11 37 -19 90 -25 127 -13 19 5 46 12 59 15 14 3 36 11 50
19 35 18 70 31 92 34 5 0 7 6 4 11 -4 6 -3 9 2 8 13 -5 123 44 123 54 0 5 4 7
9 3 5 -3 31 7 58 23 26 15 55 31 63 35 8 4 31 17 50 29 57 35 304 158 316 158
6 0 17 6 23 14 7 8 26 18 42 21 19 4 31 14 35 30 8 32 2 59 -11 47z"/>
<path d="M2873 529 c-161 -27 -286 -123 -285 -219 1 -91 79 -164 232 -216 44
-15 84 -19 200 -19 127 0 152 3 202 23 72 29 84 43 58 67 -18 17 -21 17 -38 2
-28 -25 -102 -54 -157 -62 -64 -8 -213 10 -277 35 -93 35 -158 103 -158 165 0
66 78 139 185 171 117 35 313 27 415 -17 54 -24 140 -78 140 -88 0 -5 -26 -14
-57 -21 -85 -18 -95 -26 -48 -39 84 -22 251 -61 263 -61 8 0 12 22 12 78 0
101 -4 106 -60 81 l-44 -20 -26 21 c-50 41 -185 100 -263 115 -85 16 -211 18
-294 4z"/>
</g>
</svg>
