<?xml version="1.0" standalone="no"?>
<!DOCTYPE svg PUBLIC "-//W3C//DTD SVG 20010904//EN"
 "http://www.w3.org/TR/2001/REC-SVG-20010904/DTD/svg10.dtd">
<svg version="1.0" xmlns="http://www.w3.org/2000/svg"
 width="1280.000000pt" height="720.000000pt" viewBox="0 0 1280.000000 720.000000"
 preserveAspectRatio="xMidYMid meet">

<g transform="translate(0.000000,720.000000) scale(0.100000,-0.100000)"
fill="#000000" stroke="none">
<path d="M0 6010 l0 -1190 160 0 160 0 0 521 c0 412 3 520 13 516 9 -3 11
-113 8 -520 l-4 -517 24 -1 c13 0 75 0 138 1 156 2 371 -11 371 -21 0 -5 -119
-9 -265 -9 l-265 0 0 -215 0 -215 265 0 c167 0 265 -4 265 -10 0 -6 -99 -11
-262 -12 l-263 -3 0 -250 0 -250 200 -1 c281 -1 325 -3 325 -14 0 -6 -95 -10
-265 -10 l-265 0 2 -557 3 -558 190 -2 c117 -1 191 -6 193 -12 2 -7 -65 -12
-190 -13 l-193 -3 3 -1115 2 -1115 37 -6 c110 -19 104 -180 -7 -191 -22 -3
-26 -9 -30 -53 -6 -62 -26 -61 -22 1 3 36 -1 50 -17 65 -11 10 -24 26 -29 34
-9 17 -58 21 -199 17 l-83 -2 0 -150 0 -150 1005 0 1005 0 0 150 0 150 -695 2
c-453 2 -696 6 -698 13 -1 7 237 11 696 13 l697 2 0 155 c0 97 4 155 10 155 6
0 10 -58 10 -155 l0 -155 230 0 c127 0 233 -1 238 -2 4 -2 8 68 10 154 3 209
22 212 22 3 l0 -155 240 0 240 0 0 90 c0 53 4 90 10 90 6 0 10 -37 10 -90 l0
-90 240 0 240 0 0 155 c0 97 4 155 10 155 6 0 10 -58 10 -155 l0 -155 430 0
430 0 0 150 c0 93 4 150 10 150 6 0 10 -57 10 -150 l0 -150 2150 0 2150 0 0
155 c0 97 4 155 10 155 6 0 10 -58 10 -155 l0 -155 380 0 380 0 0 156 c0 101
3 153 10 149 6 -4 10 -67 10 -156 l0 -149 235 0 235 0 2 158 c1 132 2 145 8
82 4 -41 8 -112 9 -157 l1 -83 405 0 405 0 0 155 c0 97 4 155 10 155 6 0 10
-58 10 -155 l0 -155 670 0 c604 0 670 -2 670 -16 0 -14 -56 -15 -572 -14 -315
1 -617 1 -670 1 l-98 -1 0 -150 0 -150 985 0 985 0 0 1140 0 1140 -155 0 -155
0 -2 -522 c-2 -406 -6 -522 -15 -526 -10 -3 -13 106 -13 522 l0 526 -265 0
c-170 0 -265 4 -265 10 0 6 95 10 265 10 l265 0 0 211 0 211 -92 -2 c-207 -5
-438 0 -438 10 0 6 95 10 265 10 l265 0 0 205 0 205 -265 0 c-170 0 -265 4
-265 10 0 6 95 10 265 10 l265 0 1 413 c0 226 2 738 3 1137 2 399 1 784 -2
855 l-5 131 -258 -1 c-165 0 -260 4 -261 10 -2 6 90 11 258 13 l262 2 7 148
c4 81 6 270 4 421 -3 213 -1 275 9 278 9 4 12 -85 12 -421 l0 -426 155 0 155
0 0 735 0 735 -165 0 -165 0 0 -75 c0 -43 -4 -75 -10 -75 -6 0 -10 32 -10 75
l0 75 -4960 0 -4960 0 0 -155 0 -155 235 0 235 0 0 150 c0 127 2 150 15 150
13 0 15 -23 15 -150 l0 -150 240 0 240 0 0 150 c0 93 4 150 10 150 6 0 10 -57
10 -150 l0 -150 430 0 430 0 0 150 c0 93 4 150 10 150 6 0 10 -57 10 -150 l0
-150 2134 0 c1174 0 2141 3 2150 6 14 5 16 28 16 145 0 86 4 139 10 139 6 0
10 -55 10 -145 l0 -145 380 0 380 0 0 145 c0 90 4 145 10 145 6 0 10 -55 10
-145 l0 -145 233 2 232 3 3 143 c3 191 22 189 22 -3 l0 -145 405 0 405 0 0
150 c0 93 4 150 10 150 6 0 10 -57 10 -150 l0 -150 362 0 c200 1 364 -3 365
-7 1 -4 -46 -43 -105 -85 -59 -42 -151 -111 -205 -153 -54 -41 -105 -75 -114
-75 -20 0 64 71 224 188 72 53 132 100 132 105 1 4 -147 7 -329 7 l-330 0 0
-150 c0 -93 -4 -150 -10 -150 -6 0 -10 57 -10 150 l0 150 -405 0 -405 0 0
-150 c0 -93 -4 -150 -10 -150 -6 0 -10 57 -10 150 l0 150 -235 0 -235 0 0
-150 c0 -93 -4 -150 -10 -150 -6 0 -10 57 -10 150 l0 150 -380 0 -380 0 0
-150 c0 -93 -4 -150 -10 -150 -6 0 -10 57 -10 150 l0 150 -2147 -2 -2148 -3
-3 -147 c-3 -199 -22 -196 -22 2 l0 151 -427 -3 -428 -3 -3 -147 c-1 -85 -7
-148 -12 -148 -5 0 -11 63 -12 148 l-3 147 -155 0 c-85 0 -192 -1 -237 -4
l-83 -4 0 -144 c0 -111 -3 -144 -12 -141 -10 4 -14 45 -16 151 l-3 147 -234 0
-235 0 0 -150 c0 -199 -19 -201 -22 -2 l-3 147 -237 3 -238 2 0 -150 c0 -93
-4 -150 -10 -150 -6 0 -10 57 -10 150 l0 150 -686 0 c-465 0 -685 3 -682 10 2
7 227 10 686 10 l682 0 0 155 0 155 -1005 0 -1005 0 0 -1190z m410 925 c60
-31 78 -99 39 -149 -58 -73 -179 -32 -179 61 0 26 8 43 34 69 37 37 62 42 106
19z m12067 -5 c44 -27 62 -84 39 -128 -35 -67 -113 -77 -161 -20 -43 50 -31
112 28 148 40 25 54 25 94 0z m-337 -50 c0 -6 -58 -10 -155 -10 -97 0 -155 4
-155 10 0 6 58 10 155 10 97 0 155 -4 155 -10z m-11799 -337 c5 -123 4 -128
-13 -131 -16 -3 -18 6 -18 76 0 43 3 82 7 85 15 15 23 5 24 -30z m4929 -413
l0 -419 -62 -3 c-80 -4 -78 -22 2 -26 l60 -3 0 -549 0 -549 -57 -3 -58 -3 0
-50 0 -50 58 -3 57 -3 0 -459 0 -460 -59 0 c-61 0 -71 -7 -71 -50 0 -27 22
-40 79 -47 l51 -6 0 -1083 0 -1084 -66 0 c-48 0 -65 -3 -61 -12 4 -14 7 -15
77 -17 l50 -1 0 -295 0 -295 -2187 3 -2188 4 -3 2941 -2 2942 2190 0 2190 0 0
-420z m6640 -2520 l0 -2940 -22 -5 c-13 -3 -1428 -4 -3146 -3 l-3123 3 -1 264
-1 265 42 30 c22 16 41 35 41 42 0 7 -18 28 -41 46 l-41 35 -3 1014 c-2 558
-1 1026 2 1040 3 15 22 39 44 55 21 16 39 36 39 44 0 8 -18 31 -39 50 l-40 35
-2 426 -2 426 49 48 49 47 -52 46 -52 47 6 499 6 499 38 35 c22 19 39 38 39
43 0 5 -12 19 -27 32 -69 58 -63 18 -63 430 0 206 3 377 7 380 3 4 1421 7
3150 7 l3143 0 0 -2940z m-6480 2426 l0 -313 -37 -7 c-21 -3 -50 -6 -64 -6
l-26 0 -6 204 c-3 112 -3 256 0 320 l6 116 63 0 64 0 0 -314z m-5082 119 c3
-79 -9 -115 -28 -85 -11 17 -13 153 -3 164 18 18 28 -7 31 -79z m5066 -481
c14 -6 16 -63 16 -544 l0 -538 -66 -4 c-36 -1 -68 1 -71 6 -3 5 -4 251 -2 547
l4 539 52 0 c28 0 58 -3 67 -6z m16 -1664 l0 -461 -67 3 -68 3 -1 450 c0 248
1 453 3 458 2 4 33 7 69 7 l64 0 0 -460z m0 -1639 l0 -1078 -37 -7 c-21 -3
-53 -6 -71 -6 l-33 0 1 993 c1 545 4 1034 7 1085 l6 92 64 0 63 0 0 -1079z
m160 739 c0 -6 -28 -10 -65 -10 -37 0 -65 4 -65 10 0 6 28 10 65 10 37 0 65
-4 65 -10z m0 -441 c0 -5 -29 -9 -65 -9 -45 0 -65 4 -65 13 0 9 18 11 65 9 36
-2 65 -8 65 -13z m0 -779 c0 -6 -28 -10 -65 -10 -37 0 -65 4 -65 10 0 6 28 10
65 10 37 0 65 -4 65 -10z m-212 -646 l52 -7 0 -193 0 -194 -70 0 -70 0 0 200
c0 226 -9 205 88 194z m7112 -214 c0 -73 -3 -90 -15 -90 -12 0 -15 17 -15 90
0 73 3 90 15 90 12 0 15 -17 15 -90z m0 -350 c0 -64 -3 -80 -15 -80 -12 0 -15
16 -15 80 0 64 3 80 15 80 12 0 15 -16 15 -80z m6 -274 c37 -37 43 -70 20
-115 -23 -44 -91 -65 -137 -41 -23 13 -49 61 -49 90 0 33 31 78 60 89 46 17
71 12 106 -23z"/>
<path d="M1236 6309 c-36 -43 -35 -91 3 -130 40 -40 96 -41 133 -1 35 37 41
64 24 105 -17 43 -42 57 -94 57 -33 0 -45 -6 -66 -31z"/>
<path d="M1786 6314 c-20 -20 -26 -36 -26 -68 1 -72 61 -117 126 -96 44 15 64
45 64 96 0 58 -37 94 -95 94 -32 0 -48 -6 -69 -26z"/>
<path d="M4799 6311 c-38 -39 -39 -87 -3 -130 22 -26 33 -31 71 -31 36 0 50 6
74 29 33 33 37 67 14 111 -31 59 -107 69 -156 21z"/>
<path d="M1180 6010 c0 -7 431 -10 1273 -10 699 0 1423 -1 1607 -2 569 -4 930
1 930 12 0 7 -642 10 -1905 10 -1263 0 -1905 -3 -1905 -10z"/>
<path d="M2193 5605 l-48 -64 -370 -3 -370 -3 -3 -412 -2 -413 420 0 420 0 0
336 0 337 53 66 c80 98 90 117 83 147 -11 44 -50 74 -95 74 -38 0 -43 -4 -88
-65z m100 28 c-7 -2 -19 -2 -25 0 -7 3 -2 5 12 5 14 0 19 -2 13 -5z m45 -38
c-3 -3 -9 2 -12 12 -6 14 -5 15 5 6 7 -7 10 -15 7 -18z m-687 -582 c13 -16 12
-17 -3 -4 -17 13 -22 21 -14 21 2 0 10 -8 17 -17z m-41 -18 c13 -14 21 -25 18
-25 -2 0 -15 11 -28 25 -13 14 -21 25 -18 25 2 0 15 -11 28 -25z"/>
<path d="M2600 5420 l0 -30 910 0 910 0 0 33 c0 24 -3 28 -10 17 -6 -10 -10
-11 -10 -2 0 9 -187 12 -900 12 l-900 0 0 -30z"/>
<path d="M2610 5140 l0 -30 1115 0 1115 0 0 30 0 30 -1115 0 -1115 0 0 -30z"/>
<path d="M3607 4912 c-22 -24 -21 -65 1 -85 40 -36 102 -9 102 45 0 51 -69 78
-103 40z m42 5 c-2 -1 -13 -9 -24 -17 -19 -14 -19 -14 -6 3 7 9 18 17 24 17 6
0 8 -1 6 -3z m16 -37 c9 -15 27 -12 19 3 -4 6 -3 9 1 4 5 -4 10 -17 12 -29 3
-22 3 -22 -23 3 -18 16 -28 20 -31 12 -3 -7 -9 -13 -15 -13 -6 0 -6 6 2 15 14
17 26 19 35 5z m-22 -44 c9 1 17 -2 17 -7 0 -12 -17 -11 -41 1 -10 6 -19 21
-19 33 0 21 1 21 13 -3 7 -14 21 -24 30 -24z"/>
<path d="M2602 4870 l-2 -31 443 1 c389 1 444 3 444 16 0 10 -7 14 -19 11 -10
-3 -16 -1 -12 4 3 5 12 9 20 9 8 0 14 5 14 10 0 7 -154 10 -443 10 l-443 0 -2
-30z m78 5 l-55 -12 70 -5 70 -4 -72 -2 c-67 -2 -73 0 -73 18 0 18 6 20 58 19
l57 -1 -55 -13z m685 1 c8 -7 11 -16 8 -20 -4 -3 -67 -5 -142 -5 -95 1 -119 4
-79 8 31 3 60 10 65 15 4 5 2 7 -7 4 -9 -3 -33 -2 -55 2 -29 6 -7 8 78 9 89 1
122 -2 132 -13z"/>
<path d="M3310 4870 c0 -5 12 -10 26 -10 14 0 23 4 19 10 -3 6 -15 10 -26 10
-10 0 -19 -4 -19 -10z"/>
<path d="M2224 4433 c-13 -16 -37 -44 -53 -63 l-29 -35 -354 -1 c-194 0 -361
-1 -370 -2 -17 -2 -18 -29 -18 -417 l0 -415 420 0 420 0 0 338 0 338 33 40
c72 85 107 138 107 161 0 14 -13 37 -29 54 -40 40 -94 40 -127 2z m-104 -128
c0 -3 -27 -38 -61 -78 -33 -39 -109 -134 -167 -209 -59 -76 -110 -138 -114
-138 -3 0 -44 38 -90 85 -54 55 -91 85 -105 85 -12 0 -38 -14 -58 -31 -27 -24
-35 -39 -35 -66 0 -31 14 -50 122 -165 67 -71 130 -134 141 -139 47 -26 68 -7
263 241 104 131 192 239 197 239 4 1 6 -135 5 -301 l-3 -303 -392 -3 -393 -2
0 395 0 395 345 0 c190 0 345 -2 345 -5z m-575 -395 c10 -11 16 -20 13 -20 -3
0 -13 9 -23 20 -10 11 -16 20 -13 20 3 0 13 -9 23 -20z"/>
<path d="M2608 4210 l-5 -30 909 0 908 0 0 30 0 30 -904 0 -904 0 -4 -30z
m1317 10 c-3 -5 3 -10 14 -10 11 0 23 -4 26 -10 4 -6 -10 -10 -34 -10 -34 0
-41 3 -41 20 0 14 7 20 21 20 11 0 17 -4 14 -10z"/>
<path d="M2600 3930 l0 -30 1120 0 1120 0 0 30 0 30 -1120 0 -1120 0 0 -30z
m997 -4 c0 -9 -12 -11 -46 -5 -25 4 -50 4 -55 1 -5 -3 -7 -1 -3 4 9 15 104 15
104 0z m163 4 c0 -5 -4 -10 -10 -10 -5 0 -10 5 -10 10 0 6 5 10 10 10 6 0 10
-4 10 -10z m113 3 c-18 -2 -48 -2 -65 0 -18 2 -4 4 32 4 36 0 50 -2 33 -4z
m-1126 -9 c-3 -3 -12 -4 -19 -1 -8 3 -5 6 6 6 11 1 17 -2 13 -5z m686 -1 c-7
-2 -21 -2 -30 0 -10 3 -4 5 12 5 17 0 24 -2 18 -5z"/>
<path d="M3640 3723 c-28 -10 -50 -36 -50 -57 0 -35 28 -66 59 -66 56 0 81 70
41 110 -21 21 -25 22 -50 13z m55 -72 c-9 -8 -36 -10 -30 -2 2 4 11 8 20 8 8
0 13 -3 10 -6z"/>
<path d="M2610 3678 c0 -7 -3 -23 -6 -35 l-6 -21 384 1 c210 1 410 3 444 5
l60 4 -4 29 -4 29 -434 0 c-340 0 -434 -3 -434 -12z"/>
<path d="M1407 3123 c-4 -3 -7 -195 -7 -425 l0 -418 420 0 420 0 0 425 0 425
-413 0 c-228 0 -417 -3 -420 -7z m813 -418 l0 -395 -395 0 -395 0 0 395 0 395
395 0 395 0 0 -395z"/>
<path d="M2608 2990 l4 -30 904 0 904 0 0 30 0 30 -908 0 -909 0 5 -30z"/>
<path d="M3720 2740 l-1115 -5 -3 -27 -3 -28 1121 0 1120 0 0 35 c0 19 -1 34
-2 33 -2 -2 -505 -5 -1118 -8z"/>
<path d="M2609 2466 c0 0 -2 -13 -3 -28 l-2 -28 443 0 443 0 0 30 0 31 -440
-2 c-242 0 -440 -2 -441 -3z m34 -29 c3 -8 -1 -14 -8 -14 -7 0 -11 6 -8 14 3
7 6 13 8 13 2 0 5 -6 8 -13z m80 6 c-7 -2 -19 -2 -25 0 -7 3 -2 5 12 5 14 0
19 -2 13 -5z"/>
<path d="M1400 1490 l0 -420 420 0 420 0 0 420 0 420 -420 0 -420 0 0 -420z
m815 0 l0 -395 -392 -3 -393 -2 0 400 0 400 393 -2 392 -3 0 -395z"/>
<path d="M2610 1770 l0 -30 905 0 905 0 0 30 0 30 -905 0 -905 0 0 -30z"/>
<path d="M2610 1505 c0 -14 -1 -27 -2 -29 -2 -3 500 -7 1115 -10 l1117 -5 0
33 0 33 -1115 1 -1115 2 0 -25z m117 3 c-6 -4 -32 -8 -57 -9 -38 -1 -41 -2
-20 -9 22 -7 22 -8 4 -9 -11 -1 -24 2 -27 6 -15 14 14 28 62 29 29 0 46 -3 38
-8z m226 -5 c-13 -2 -35 -2 -50 0 -16 2 -5 4 22 4 28 0 40 -2 28 -4z m515 0
c-10 -2 -28 -2 -40 0 -13 2 -5 4 17 4 22 1 32 -1 23 -4z m1119 1 c-3 -3 -12
-4 -19 -1 -8 3 -5 6 6 6 11 1 17 -2 13 -5z m-1634 -21 c-29 -2 -77 -2 -105 0
-29 2 -6 3 52 3 58 0 81 -1 53 -3z m550 0 c-7 -2 -19 -2 -25 0 -7 3 -2 5 12 5
14 0 19 -2 13 -5z"/>
<path d="M2602 1220 l2 -30 443 0 443 0 0 30 0 30 -445 0 -445 0 2 -30z"/>
<path d="M6017 5920 c-38 -10 -70 -20 -72 -22 -2 -2 1 -23 7 -47 l11 -43 43 4
44 3 2 -204 3 -204 55 0 55 0 0 264 0 264 -40 2 c-22 1 -71 -7 -108 -17z"/>
<path d="M10002 5807 c-31 -33 -29 -80 4 -106 31 -24 62 -27 89 -8 24 18 3 32
-25 17 -32 -17 -60 4 -60 45 0 40 21 56 64 48 22 -4 27 -2 24 8 -2 8 -20 15
-39 17 -26 2 -40 -3 -57 -21z"/>
<path d="M11067 5806 c-10 -15 -13 -27 -7 -31 6 -3 10 -19 10 -35 0 -41 10
-60 30 -60 25 0 35 19 16 26 -18 7 -23 64 -6 64 15 0 12 12 -8 38 l-18 24 -17
-26z"/>
<path d="M11227 5759 c-29 -73 -29 -100 -1 -61 20 29 74 31 81 2 5 -17 33 -30
33 -15 0 18 -65 145 -74 145 -7 0 -24 -32 -39 -71z m47 -17 c-22 -5 -27 3 -19
29 l7 22 14 -24 c11 -20 10 -25 -2 -27z"/>
<path d="M10980 5793 c-37 -7 -42 -16 -35 -67 9 -57 25 -61 25 -6 0 28 5 43
16 47 21 8 34 -13 34 -54 0 -18 5 -33 10 -33 14 0 12 94 -2 108 -7 7 -14 11
-17 11 -4 -1 -17 -4 -31 -6z"/>
<path d="M10133 5764 c-15 -24 -15 -29 -2 -53 29 -51 99 -30 99 30 0 51 -68
67 -97 23z m71 -16 c13 -22 -14 -54 -38 -45 -16 6 -22 48 -9 61 11 11 35 3 47
-16z"/>
<path d="M10253 5774 c-8 -22 2 -87 14 -91 8 -3 13 11 15 39 2 30 7 43 18 43
10 0 16 -13 18 -42 2 -29 8 -43 17 -43 9 0 15 14 17 43 2 29 8 42 18 42 11 0
16 -13 18 -43 4 -50 25 -53 30 -4 6 59 -9 70 -89 69 -46 0 -73 -5 -76 -13z"/>
<path d="M10442 5717 c2 -45 7 -72 16 -75 7 -2 12 6 12 21 0 20 4 23 25 19 34
-6 55 14 55 53 0 42 -17 55 -69 53 l-42 -1 3 -70z m83 32 c9 -26 -15 -52 -38
-43 -17 6 -23 44 -10 57 14 14 42 6 48 -14z"/>
<path d="M10586 5774 c-21 -21 -20 -57 2 -77 24 -22 55 -21 75 1 34 37 11 92
-38 92 -13 0 -31 -7 -39 -16z m64 -23 c7 -15 6 -23 -6 -35 -20 -21 -31 -20
-43 1 -11 21 3 53 24 53 8 0 19 -9 25 -19z"/>
<path d="M10700 5734 c0 -66 22 -72 30 -8 3 26 11 40 22 42 13 3 17 -6 20 -39
4 -56 28 -65 28 -11 0 64 -7 72 -56 72 l-44 0 0 -56z"/>
<path d="M10837 5772 c-43 -47 6 -109 67 -86 28 11 17 26 -13 19 -17 -3 -32
-2 -36 4 -3 6 2 11 14 11 32 0 51 11 51 29 0 41 -54 55 -83 23z m57 -11 c7
-11 -14 -20 -31 -13 -7 2 -13 8 -13 13 0 12 37 12 44 0z"/>
<path d="M6710 5740 l0 -30 560 0 560 0 0 30 0 29 -560 1 -560 0 0 -30z"/>
<path d="M8501 5710 c-17 -28 -31 -55 -31 -60 0 -6 14 -10 30 -10 l30 0 0
-223 c0 -123 3 -258 6 -300 l7 -76 -42 -3 -42 -3 35 -55 c19 -30 32 -56 27
-58 -4 -1 -68 15 -142 37 l-134 39 -475 -241 c-261 -132 -481 -244 -487 -250
-9 -6 -13 -41 -13 -107 l0 -98 -237 109 c-139 63 -237 114 -237 121 1 7 3 20
5 28 2 8 -2 15 -8 14 -7 -1 -30 -2 -50 -3 -66 -3 -69 -12 -28 -70 20 -28 39
-51 41 -51 3 0 9 11 14 25 l9 25 58 -25 c32 -14 142 -65 245 -112 l188 -87 2
-251 3 -250 70 -22 c39 -12 109 -34 158 -49 l87 -26 0 -153 c0 -173 -19 -261
-65 -306 -14 -13 -76 -49 -138 -79 l-112 -55 0 -69 0 -68 83 -26 c45 -14 82
-28 82 -31 0 -6 -153 -96 -519 -308 -79 -45 -147 -81 -152 -78 -9 6 -99 -54
-99 -66 0 -8 102 -69 114 -69 4 0 6 12 4 28 l-3 27 528 3 c340 1 527 6 527 12
0 7 -186 10 -530 10 -580 0 -580 0 -477 55 50 27 261 150 517 302 104 62 130
73 155 69 17 -4 174 -52 350 -107 176 -55 399 -125 495 -155 96 -30 210 -66
253 -80 l78 -25 82 44 c45 25 325 167 622 317 297 150 546 277 553 283 7 6 12
33 12 71 l0 61 -93 30 -92 30 -3 80 -3 80 109 108 109 109 686 -2 c612 -1 687
1 687 15 0 13 -76 15 -687 15 l-688 0 -107 -107 -108 -107 1 443 0 443 112
124 111 124 688 0 c452 0 688 3 688 10 0 7 -238 10 -694 10 l-694 0 -97 -107
c-54 -60 -101 -109 -105 -111 -5 -2 -7 9 -4 25 2 15 1 33 -4 39 -4 6 -47 22
-97 37 -256 75 -471 141 -479 148 -5 4 54 72 131 151 118 121 368 384 606 636
l59 62 689 0 c453 0 689 3 689 10 0 7 -238 10 -694 10 l-693 0 -105 -107 c-57
-60 -196 -205 -308 -323 -112 -118 -251 -264 -308 -323 l-106 -108 -285 87
c-157 47 -290 90 -295 94 -4 5 8 36 28 69 l35 61 -34 0 -35 0 -2 225 c-4 412
-7 370 24 370 15 1 29 3 32 5 6 7 -57 113 -71 117 -6 2 -25 -19 -42 -47z
m-101 -779 c125 -35 135 -40 135 -62 0 -23 -4 -24 -84 -31 -121 -10 -212 -40
-261 -87 l-40 -38 0 -145 c0 -131 2 -148 20 -171 65 -83 354 -132 541 -93 91
20 165 53 194 88 24 28 25 35 25 175 l0 146 -38 37 c-41 39 -153 79 -242 87
-71 7 -90 12 -90 28 0 8 5 15 11 15 6 0 156 -44 333 -99 176 -54 398 -122 491
-151 94 -28 203 -61 243 -72 39 -11 72 -23 72 -27 0 -7 -316 -172 -686 -358
l-251 -126 -204 62 c-112 35 -274 85 -359 111 -153 48 -546 168 -770 237 -113
34 -127 40 -119 47 2 1 81 42 174 89 94 47 298 151 455 231 157 80 292 145
300 145 8 0 76 -17 150 -38z m140 -150 c0 -38 -2 -39 -38 -46 -53 -9 -104 -41
-100 -63 13 -72 266 -67 276 5 3 24 -30 45 -90 58 -25 5 -28 10 -28 45 l0 40
43 0 c51 0 182 -32 229 -56 52 -26 78 -55 78 -86 0 -108 -281 -180 -523 -134
-141 27 -217 75 -217 136 0 67 157 137 313 139 l57 1 0 -39z m-5 -81 c-3 -5
-10 -10 -16 -10 -5 0 -9 5 -9 10 0 6 7 10 16 10 8 0 12 -4 9 -10z m-41 -9 c4
-5 -3 -7 -14 -4 -23 6 -26 13 -6 13 8 0 17 -4 20 -9z m153 -23 c-3 -8 -6 -5
-6 6 -1 11 2 17 5 13 3 -3 4 -12 1 -19z m-322 -134 c92 -25 285 -30 385 -10
82 17 148 44 183 74 16 14 17 10 17 -75 0 -107 -12 -128 -90 -162 -116 -50
-269 -62 -425 -35 -102 18 -163 41 -200 78 -23 23 -25 32 -25 115 l0 90 48
-29 c26 -16 74 -37 107 -46z m1384 -140 c-24 -24 -35 -30 -41 -21 -7 11 -80
-24 -728 -355 l-65 -33 -3 -632 c-1 -348 -1 -633 1 -633 2 0 181 90 398 199
l394 200 5 143 5 144 33 39 32 40 0 -156 c0 -86 2 -158 5 -161 3 -2 43 14 90
37 75 38 85 40 90 24 18 -55 26 -50 -615 -373 -334 -168 -610 -306 -614 -306
-3 0 -6 16 -6 35 0 30 5 37 38 54 20 11 44 25 52 30 13 9 16 100 20 687 l5
677 60 31 c33 18 173 90 310 160 138 71 320 165 405 209 l155 80 3 -43 c3 -37
-1 -47 -29 -76z m-2164 6 c105 -32 289 -88 410 -125 121 -37 349 -107 506
-156 157 -49 290 -89 296 -89 13 0 28 -635 16 -666 -9 -23 -29 -17 -558 146
-156 49 -603 186 -817 251 l-108 32 0 234 c0 129 4 233 9 233 9 0 302 -137
310 -145 2 -3 -1 -17 -8 -31 -6 -15 -10 -28 -8 -30 7 -8 127 19 127 28 0 15
-60 98 -70 98 -6 0 -10 -9 -10 -20 0 -27 -6 -26 -97 16 -43 20 -116 54 -163
75 l-85 38 -3 91 -3 92 33 -7 c18 -4 119 -33 223 -65z m2168 -915 c-16 -19
-31 -35 -35 -35 -5 0 -8 196 -8 436 l0 435 33 39 32 39 3 -440 2 -440 -27 -34z
m-65 856 c-1 -5 -77 -91 -168 -191 -91 -100 -166 -186 -168 -191 -2 -5 -17 -9
-34 -9 -46 0 -88 -48 -88 -101 0 -81 65 -107 115 -47 24 29 27 38 22 85 l-5
52 159 175 c88 97 162 176 165 176 2 0 4 -118 3 -262 l0 -263 -370 -185 c-204
-102 -374 -186 -380 -188 -5 -2 -9 108 -9 287 l0 290 288 145 c158 79 325 165
372 190 86 46 104 53 98 37z m-340 -465 c3 -29 -2 -44 -19 -62 -40 -43 -79
-25 -79 35 0 46 25 73 64 69 28 -3 31 -7 34 -42z m-1585 -240 c160 -47 421
-127 449 -139 28 -12 20 -16 -259 -155 -158 -78 -294 -143 -300 -142 -7 0 -13
5 -13 10 0 6 -7 10 -16 10 -12 0 -14 -7 -9 -32 4 -18 12 -38 19 -45 12 -12
212 -77 581 -188 121 -37 270 -82 330 -100 61 -19 142 -43 180 -55 98 -29 101
-31 89 -77 -7 -31 -17 -42 -56 -63 l-47 -25 -48 19 c-26 10 -106 36 -178 57
-71 22 -177 55 -235 73 -58 19 -159 51 -225 71 -66 20 -167 52 -225 71 -57 19
-110 34 -118 34 -24 0 -1 22 44 42 24 10 44 23 44 28 0 16 -18 11 -76 -21
l-55 -31 -149 43 c-82 24 -150 46 -149 49 0 3 55 32 122 65 l122 60 30 60 c29
59 30 63 33 238 3 153 6 178 19 173 8 -3 51 -17 96 -30z m777 -236 c129 -39
245 -75 258 -80 22 -10 22 -10 22 -265 0 -283 5 -265 -71 -241 -24 8 -114 36
-199 61 -437 132 -830 254 -888 276 -22 8 12 28 284 163 328 162 334 165 349
160 6 -2 116 -35 245 -74z m1352 -108 c32 -9 58 -20 58 -23 0 -5 -63 -35 -142
-67 -4 -2 -8 5 -8 16 0 13 10 22 31 28 39 12 40 25 0 43 -32 15 -45 38 -14 27
9 -4 43 -15 75 -24z m-554 -24 c19 -19 14 -76 -8 -98 -38 -38 -80 -20 -80 35
0 59 54 97 88 63z m497 2 c3 -5 -1 -10 -9 -10 -9 0 -16 5 -16 10 0 6 4 10 9
10 6 0 13 -4 16 -10z m-2243 -306 c5 -4 -8 -17 -30 -30 l-41 -24 -94 26 -95
27 -4 39 c-2 22 -2 41 0 42 3 4 248 -71 264 -80z m166 -48 c59 -19 136 -43
172 -54 76 -23 434 -134 638 -198 l142 -45 0 -40 c0 -21 -4 -39 -9 -39 -5 0
-79 22 -163 49 -84 27 -211 67 -283 89 -71 22 -224 70 -340 107 -115 36 -243
76 -282 87 -40 11 -73 24 -73 28 0 10 60 48 78 49 7 1 61 -14 120 -33z"/>
<path d="M8189 4914 c-11 -14 -10 -18 6 -30 35 -26 115 -12 115 20 0 29 -98
37 -121 10z m91 -14 c0 -5 -13 -10 -29 -10 -17 0 -33 5 -36 10 -4 6 8 10 29
10 20 0 36 -4 36 -10z"/>
<path d="M8987 4693 c-19 -18 -5 -42 26 -48 34 -7 87 8 87 24 0 24 -94 44
-113 24z m78 -23 c-3 -5 -17 -10 -30 -10 -13 0 -27 5 -30 10 -4 6 8 10 30 10
22 0 34 -4 30 -10z"/>
<path d="M9483 4534 c-9 -23 11 -36 56 -38 48 -1 70 16 51 39 -17 21 -98 21
-107 -1z m75 -11 c-10 -2 -26 -2 -35 0 -10 3 -2 5 17 5 19 0 27 -2 18 -5z"/>
<path d="M7429 4524 c-11 -14 -10 -18 6 -30 25 -18 76 -18 101 1 19 15 19 15
0 30 -26 20 -90 19 -107 -1z m86 -14 c4 -6 -6 -10 -24 -10 -16 0 -33 5 -36 10
-4 6 6 10 24 10 16 0 33 -4 36 -10z"/>
<path d="M7744 4425 c-9 -22 3 -34 40 -41 44 -8 76 3 76 26 0 22 -19 30 -71
30 -25 0 -42 -5 -45 -15z m86 -15 c0 -5 -11 -10 -24 -10 -14 0 -28 5 -31 10
-4 6 7 10 24 10 17 0 31 -4 31 -10z"/>
<path d="M8683 4134 c-9 -23 13 -39 57 -39 44 0 66 16 57 39 -5 12 -20 16 -57
16 -37 0 -52 -4 -57 -16z m78 -13 c-12 -8 -51 -4 -51 5 0 2 15 4 33 4 22 0 28
-3 18 -9z"/>
<path d="M9235 3886 c-22 -32 -13 -76 14 -76 31 0 52 29 49 64 -4 42 -40 48
-63 12z m35 -10 c0 -3 -4 -8 -10 -11 -5 -3 -10 -1 -10 4 0 6 5 11 10 11 6 0
10 -2 10 -4z"/>
<path d="M7413 3103 c-7 -2 -13 -13 -13 -23 0 -24 53 -36 93 -21 30 12 33 21
15 39 -12 12 -71 15 -95 5z m63 -22 c-3 -5 -15 -7 -26 -4 -28 7 -25 13 6 13
14 0 23 -4 20 -9z"/>
<path d="M8604 2725 c-19 -15 -19 -15 0 -30 11 -8 32 -15 46 -15 14 0 35 7 46
15 19 15 19 15 0 30 -11 8 -32 15 -46 15 -14 0 -35 -7 -46 -15z m66 -15 c11
-7 7 -10 -17 -10 -18 0 -33 5 -33 10 0 13 30 13 50 0z"/>
<path d="M8164 3405 c-8 -20 2 -32 33 -38 52 -10 101 30 57 47 -30 11 -84 6
-90 -9z m64 -12 c-10 -2 -26 -2 -35 0 -10 3 -2 5 17 5 19 0 27 -2 18 -5z"/>
<path d="M7724 3175 c-10 -25 9 -37 57 -33 36 2 44 7 44 23 0 17 -8 20 -48 23
-36 2 -49 -1 -53 -13z m69 -12 c-7 -2 -21 -2 -30 0 -10 3 -4 5 12 5 17 0 24
-2 18 -5z"/>
<path d="M9232 3230 c-19 -54 12 -86 49 -49 29 29 22 73 -12 77 -22 3 -29 -2
-37 -28z"/>
<path d="M10002 4907 c-29 -31 -29 -77 1 -105 27 -26 69 -29 87 -7 16 19 5 34
-12 17 -27 -27 -68 2 -68 48 0 36 30 56 60 40 26 -14 45 -3 29 16 -18 22 -72
17 -97 -9z"/>
<path d="M11210 4856 l0 -76 50 0 c44 0 52 3 62 25 8 18 8 28 0 38 -6 7 -9 22
-6 33 7 31 -10 46 -60 51 l-46 6 0 -77z m78 27 c2 -9 -7 -13 -27 -13 -21 0
-31 5 -31 16 0 19 51 16 58 -3z m8 -54 c3 -6 0 -15 -7 -20 -21 -14 -53 -6 -57
14 -3 13 3 17 27 17 16 0 33 -5 37 -11z"/>
<path d="M11068 4903 c-3 -10 -2 -40 1 -68 5 -42 10 -51 29 -53 12 -2 22 1 22
7 0 6 -4 11 -10 11 -17 0 -11 62 8 76 16 13 16 13 0 14 -10 0 -18 7 -18 15 0
21 -27 19 -32 -2z"/>
<path d="M10978 4892 c-27 -3 -28 -6 -28 -58 0 -30 5 -54 10 -54 6 0 10 18 10
41 0 36 2 40 23 37 18 -2 23 -10 25 -40 5 -55 22 -47 22 10 0 53 -16 70 -62
64z"/>
<path d="M10137 4872 c-22 -24 -21 -55 1 -75 37 -34 92 -11 92 38 0 50 -60 73
-93 37z m63 -17 c15 -18 7 -43 -16 -52 -24 -9 -46 24 -33 48 12 23 32 24 49 4z"/>
<path d="M10256 4883 c-3 -4 -6 -28 -6 -55 0 -35 4 -48 14 -48 10 0 16 14 18
43 2 29 8 42 18 42 10 0 16 -13 18 -42 4 -54 27 -58 30 -6 5 66 42 68 42 2 0
-28 4 -39 15 -39 11 0 15 11 15 36 0 62 -10 70 -88 72 -38 0 -72 -2 -76 -5z"/>
<path d="M10442 4815 c2 -40 7 -69 13 -68 6 1 11 11 13 21 2 14 9 18 26 15 30
-6 56 21 56 56 0 38 -18 50 -68 48 l-43 -1 3 -71z m82 32 c8 -12 7 -21 -6 -33
-22 -22 -48 -11 -48 20 0 37 34 45 54 13z"/>
<path d="M10586 4874 c-34 -33 -7 -94 42 -94 43 0 71 67 40 98 -17 17 -64 15
-82 -4z m64 -19 c15 -18 7 -43 -16 -52 -24 -9 -46 24 -33 48 12 23 32 24 49 4z"/>
<path d="M10700 4833 c0 -39 4 -53 14 -53 10 0 16 14 18 43 4 56 31 59 38 3 7
-57 30 -59 30 -3 0 53 -14 67 -63 65 l-37 -1 0 -54z"/>
<path d="M10836 4871 c-26 -28 -18 -73 15 -85 15 -5 35 -5 45 -1 16 8 14 9
-11 13 -49 6 -54 22 -8 22 49 0 56 7 40 41 -16 31 -57 37 -81 10z m48 -7 c20
-8 11 -24 -15 -24 -19 0 -25 11 -12 23 8 8 8 8 27 1z"/>
<path d="M5990 4809 c-26 -10 -100 -78 -100 -90 0 -4 18 -22 40 -39 l40 -32
40 36 c48 43 81 46 116 10 48 -47 23 -85 -146 -220 l-99 -79 -1 -50 0 -50 192
2 193 2 0 48 0 48 -106 5 -106 5 46 35 c25 19 69 58 97 85 44 42 53 58 59 98
10 65 -6 114 -50 157 -34 33 -40 35 -113 37 -42 2 -88 -2 -102 -8z"/>
<path d="M10005 3965 c-61 -60 -1 -150 79 -119 26 10 18 27 -9 20 -37 -9 -65
9 -65 43 0 36 22 55 55 47 37 -9 53 4 24 20 -35 20 -57 17 -84 -11z"/>
<path d="M11244 3978 c-44 -21 -57 -85 -24 -118 23 -23 82 -27 99 -7 15 19 2
29 -21 16 -27 -15 -57 -2 -64 28 -10 37 8 58 47 59 49 1 56 4 39 13 -29 16
-55 19 -76 9z"/>
<path d="M11069 3963 c-7 -86 18 -151 45 -122 8 8 7 13 -1 16 -19 7 -17 73 2
73 8 0 15 5 15 10 0 6 -7 10 -15 10 -8 0 -15 7 -15 15 0 21 -30 19 -31 -2z"/>
<path d="M10137 3932 c-34 -38 -8 -92 44 -92 32 0 49 17 49 50 0 52 -60 78
-93 42z m63 -23 c13 -23 -1 -49 -26 -49 -24 0 -36 37 -18 54 21 21 31 20 44
-5z"/>
<path d="M10255 3932 c-3 -7 -5 -31 -5 -53 0 -28 4 -39 15 -39 11 0 15 11 15
38 0 43 6 53 26 45 9 -3 14 -20 14 -44 0 -28 4 -39 15 -39 11 0 15 11 15 40 0
33 3 40 20 40 17 0 20 -7 20 -46 0 -32 4 -44 13 -42 16 6 21 57 8 90 -9 24
-13 25 -80 25 -51 0 -72 -4 -76 -15z"/>
<path d="M10440 3874 c0 -59 3 -74 15 -74 9 0 15 9 15 24 0 19 4 23 19 19 31
-8 61 14 61 45 0 43 -15 56 -65 58 l-45 2 0 -74z m84 33 c8 -12 7 -21 -6 -33
-22 -22 -48 -11 -48 20 0 37 34 45 54 13z"/>
<path d="M10587 3932 c-23 -25 -22 -69 2 -82 49 -25 91 -3 91 49 0 46 -62 68
-93 33z m63 -17 c15 -18 7 -43 -16 -52 -24 -9 -46 24 -33 48 12 23 32 24 49 4z"/>
<path d="M10700 3893 c0 -40 4 -53 15 -53 11 0 15 11 15 39 0 64 36 65 42 2 5
-54 28 -52 28 2 0 53 -14 67 -63 65 l-37 -1 0 -54z"/>
<path d="M10837 3932 c-43 -47 -2 -105 60 -86 l28 8 -35 4 c-52 5 -62 22 -14
22 49 0 57 6 42 34 -21 40 -54 48 -81 18z m47 -8 c20 -8 11 -24 -15 -24 -19 0
-25 11 -12 23 8 8 8 8 27 1z"/>
<path d="M10950 3893 c0 -29 5 -53 10 -53 6 0 10 18 10 40 0 36 3 40 25 40 22
0 25 -4 25 -39 0 -22 5 -43 10 -46 15 -9 12 91 -3 103 -7 6 -27 10 -45 10 -32
-1 -32 -1 -32 -55z"/>
<path d="M5910 3721 c0 -10 -3 -33 -6 -50 l-6 -31 101 0 c61 0 101 -4 101 -10
0 -5 -4 -10 -9 -10 -5 0 -30 -24 -56 -54 -42 -50 -45 -57 -37 -88 8 -31 11
-33 65 -39 66 -7 87 -21 87 -59 0 -39 -28 -60 -83 -60 -34 0 -53 6 -75 25 -17
14 -33 25 -36 25 -13 0 -76 -55 -76 -67 0 -35 121 -93 194 -93 127 0 219 104
187 210 -12 41 -57 86 -97 96 -13 3 -24 9 -24 13 0 4 27 33 60 66 55 54 60 63
60 102 l0 43 -175 0 c-164 0 -175 -1 -175 -19z"/>
<path d="M7169 3582 c-1 -9 -1 -25 0 -34 2 -16 -17 -18 -236 -20 -150 -2 -238
-7 -238 -13 0 -6 87 -11 237 -13 l237 -2 3 -36 3 -36 63 42 c72 48 72 48 -15
99 -46 26 -53 28 -54 13z"/>
<path d="M9770 1835 l0 -845 850 0 850 0 0 845 0 845 -850 0 -850 0 0 -845z
m1680 0 l0 -825 -830 0 -830 0 0 825 0 825 830 0 830 0 0 -825z"/>
<path d="M9935 2538 c-3 -7 -4 -326 -3 -708 l3 -695 678 -3 677 -2 -2 627 -3
628 -180 0 -180 0 -3 -617 -2 -618 -55 0 -55 0 -2 348 -3 347 -177 3 -178 2 0
-350 0 -351 -57 3 -58 3 -3 193 -2 192 -170 0 -170 0 -1 -92 c0 -51 0 -139 1
-195 1 -87 -1 -103 -14 -103 -14 0 -16 73 -16 700 0 474 -3 700 -10 700 -6 0
-13 -6 -15 -12z m375 -1203 l0 -185 -150 0 -150 0 0 185 0 185 150 0 150 0 0
-185z"/>
<path d="M6054 2558 c-49 -57 -115 -131 -146 -165 -57 -62 -65 -81 -52 -130 6
-22 10 -23 135 -23 l128 0 3 -57 3 -58 53 -3 52 -3 0 60 0 61 40 0 40 0 0 44
c0 44 0 45 -37 48 l-38 3 0 160 0 160 -46 3 -46 3 -89 -103z m71 -195 l-6 -33
-64 0 c-36 0 -65 3 -65 6 0 3 30 39 68 81 l67 75 3 -48 c2 -27 1 -64 -3 -81z"/>
<path d="M6751 1581 c-25 -25 -27 -68 -5 -99 13 -19 24 -22 57 -20 22 2 42 9
45 16 3 10 -4 12 -31 7 -31 -6 -38 -3 -52 19 -16 24 -16 28 0 52 14 22 21 25
52 19 27 -5 34 -3 31 7 -8 23 -74 22 -97 -1z"/>
<path d="M7813 1575 c-6 -14 -7 -27 -2 -31 5 -3 9 -23 9 -45 0 -35 3 -39 25
-39 27 0 34 15 10 24 -8 3 -15 17 -15 31 0 14 7 28 15 31 8 4 15 10 15 15 0 5
-7 9 -15 9 -8 0 -15 7 -15 15 0 23 -14 18 -27 -10z"/>
<path d="M7952 1530 l3 -70 40 0 c56 0 85 22 85 66 0 49 -29 74 -86 74 l-45 0
3 -70z m88 30 c24 -24 24 -29 4 -58 -8 -12 -26 -22 -40 -22 -22 0 -24 4 -24
50 0 43 3 50 20 50 11 0 29 -9 40 -20z"/>
<path d="M6892 1554 c-28 -20 -30 -69 -3 -84 26 -14 64 -13 79 2 18 18 14 63
-6 81 -23 21 -41 21 -70 1z m68 -38 c0 -23 -30 -41 -48 -30 -23 15 -25 29 -7
48 12 12 21 13 36 6 10 -6 19 -17 19 -24z"/>
<path d="M7000 1513 c0 -41 4 -53 15 -53 11 0 15 11 15 40 0 33 3 40 20 40 17
0 20 -7 20 -40 0 -29 4 -40 15 -40 11 0 15 11 15 41 0 33 3 40 18 37 11 -2 18
-14 20 -38 4 -44 18 -59 27 -30 9 29 -3 90 -18 91 -7 1 -42 2 -79 3 l-68 1 0
-52z"/>
<path d="M7190 1493 c0 -42 4 -73 10 -73 6 0 10 9 10 20 0 16 7 20 33 20 40 0
57 15 57 50 0 38 -28 59 -73 57 l-37 -2 0 -72z m84 32 c7 -20 -18 -49 -38 -42
-19 7 -22 53 -3 60 17 6 34 -2 41 -18z"/>
<path d="M7337 1552 c-36 -39 -13 -94 38 -94 35 0 55 19 55 53 0 49 -61 76
-93 41z m68 -30 c9 -24 -21 -49 -43 -36 -21 14 -28 44 -12 54 17 11 48 1 55
-18z"/>
<path d="M7450 1513 c0 -40 4 -53 15 -53 11 0 15 11 15 40 0 33 3 40 20 40 17
0 20 -7 20 -40 0 -29 4 -40 15 -40 11 0 15 11 15 38 0 53 -12 66 -59 67 l-41
1 0 -53z"/>
<path d="M7587 1552 c-20 -22 -22 -63 -5 -80 14 -14 78 -16 78 -2 0 6 -13 10
-30 10 -16 0 -30 5 -30 10 0 6 16 10 35 10 27 0 35 4 35 18 0 22 -30 52 -52
52 -8 0 -22 -8 -31 -18z m53 -22 c0 -5 -12 -10 -26 -10 -14 0 -23 4 -19 10 3
6 15 10 26 10 10 0 19 -4 19 -10z"/>
<path d="M7690 1513 c0 -40 4 -53 15 -53 11 0 15 11 15 40 0 33 3 40 20 40 17
0 20 -7 20 -40 0 -29 4 -40 15 -40 11 0 15 12 15 44 0 52 -14 66 -63 64 l-37
-1 0 -54z"/>
<path d="M5927 1554 c-4 -4 -7 -64 -7 -133 l0 -126 31 -22 c25 -17 37 -19 56
-12 13 5 42 9 64 9 50 0 94 -38 84 -73 -19 -62 -88 -78 -166 -38 l-42 22 -35
-34 c-21 -21 -33 -41 -29 -50 3 -8 29 -26 58 -41 72 -35 184 -37 244 -3 54 31
85 87 85 158 0 103 -62 160 -175 163 l-65 1 0 43 0 42 111 0 110 0 -3 48 -3
47 -156 3 c-85 1 -158 -1 -162 -4z"/>
<path d="M6710 1360 c0 -7 253 -10 740 -10 487 0 740 3 740 10 0 7 -253 10
-740 10 -487 0 -740 -3 -740 -10z"/>
<path d="M2030 7045 l0 -155 240 0 240 0 0 155 0 155 -240 0 -240 0 0 -155z"/>
<path d="M12490 4435 l0 -1265 155 0 155 0 0 1265 0 1265 -155 0 -155 0 0
-1265z"/>
<path d="M0 4575 l0 -215 160 0 160 0 0 215 0 215 -160 0 -160 0 0 -215z"/>
<path d="M0 4090 l0 -250 133 -1 c72 0 144 -2 160 -3 l27 -2 0 253 0 253 -160
0 -160 0 0 -250z"/>
<path d="M0 3255 c0 -522 1 -555 18 -555 9 0 81 -3 160 -6 l142 -6 0 561 0
561 -160 0 -160 0 0 -555z"/>
<path d="M12490 2945 l0 -205 155 0 155 0 0 205 0 205 -155 0 -155 0 0 -205z"/>
<path d="M12490 2508 l0 -208 155 0 155 0 0 205 0 205 -122 2 c-68 1 -138 2
-155 3 l-33 1 0 -208z"/>
<path d="M0 1500 l0 -1170 135 0 135 0 0 24 c0 13 11 34 25 47 l25 24 0 1123
0 1122 -160 0 -160 0 0 -1170z"/>
<path d="M4438 302 l-28 -3 0 -150 0 -149 2150 0 2150 0 0 156 0 155 -2122 -3
c-1168 -2 -2135 -4 -2150 -6z"/>
<path d="M8737 303 c-4 -3 -7 -73 -7 -155 l0 -148 380 0 380 0 0 155 0 155
-373 0 c-206 0 -377 -3 -380 -7z"/>
<path d="M9510 154 l0 -154 235 0 235 0 0 155 0 156 -235 -1 -235 -1 0 -155z"/>
<path d="M10000 155 l0 -155 405 0 406 0 -3 152 -3 153 -402 3 -403 2 0 -155z"/>
<path d="M2030 150 l0 -150 240 0 240 0 0 150 0 150 -240 0 -240 0 0 -150z"/>
<path d="M2530 150 l0 -150 240 0 241 0 -2 150 -1 150 -239 0 -239 0 0 -150z"/>
<path d="M3030 150 l0 -150 240 0 240 0 0 150 0 150 -240 0 -240 0 0 -150z"/>
<path d="M3530 150 l0 -150 430 0 430 0 0 150 0 150 -430 0 -430 0 0 -150z"/>
</g>
</svg>
