<?xml version="1.0" standalone="no"?>
<!DOCTYPE svg PUBLIC "-//W3C//DTD SVG 20010904//EN"
 "http://www.w3.org/TR/2001/REC-SVG-20010904/DTD/svg10.dtd">
<svg version="1.0" xmlns="http://www.w3.org/2000/svg"
 width="1280.000000pt" height="720.000000pt" viewBox="0 0 1280.000000 720.000000"
 preserveAspectRatio="xMidYMid meet">

<g transform="translate(0.000000,720.000000) scale(0.100000,-0.100000)"
fill="#000000" stroke="none">
<path d="M0 3600 l0 -3600 1540 0 1540 0 2 283 c3 309 3 362 6 485 l2 82 1950
0 1950 0 -2 461 -3 460 -57 23 -56 23 -31 -44 -31 -44 0 -344 0 -345 -354 0
c-226 0 -365 -4 -383 -11 -19 -7 -29 -7 -31 0 -3 8 -612 11 -2043 11 l-2039 0
0 2041 0 2040 2425 -2 2425 -2 0 -1232 0 -1233 43 -17 c23 -9 63 -26 90 -36
l47 -19 0 1365 0 1364 -2605 -2 -2605 -2 0 -245 c0 -135 -1 -975 -2 -1868 l-3
-1622 -477 0 -478 0 -2 1988 c-2 1093 -1 2017 0 2055 l4 67 284 0 284 0 0 315
0 315 845 0 845 0 0 445 0 445 -1540 0 -1540 0 0 -3600z"/>
<path d="M7702 4013 l3 -1698 1163 -3 1162 -2 0 95 0 95 770 0 770 0 0 850 0
850 -687 1 c-379 0 -701 2 -718 3 -16 1 -54 3 -82 4 l-53 2 0 750 0 750 -1165
0 -1165 0 2 -1697z m178 1572 l23 -25 24 26 c13 15 27 23 30 20 4 -3 -4 -17
-17 -31 l-23 -25 23 -25 c13 -14 20 -28 17 -32 -4 -3 -18 4 -32 17 l-25 23
-25 -23 c-31 -29 -46 -18 -17 13 27 29 27 35 0 64 -12 13 -17 23 -11 23 5 0
20 -11 33 -25z m280 15 c10 -5 21 -24 25 -41 15 -69 -75 -106 -118 -48 -43 58
26 125 93 89z m1648 -632 l2 -208 -945 0 -945 0 0 210 0 210 943 -2 942 -3 3
-207z m-1480 -804 c2 -176 1 -192 -15 -195 -10 -2 -102 -3 -205 -1 l-188 4 0
194 0 194 203 -2 202 -3 3 -191z m490 -1 l2 -193 -205 0 -205 0 0 195 0 195
203 -2 202 -3 3 -192z m492 3 c0 -193 0 -194 -22 -199 -35 -8 -223 -9 -310 -1
l-78 7 0 187 c0 102 3 190 7 193 3 4 96 7 205 7 l198 0 0 -194z m500 -1 l0
-195 -72 -1 c-40 -1 -134 -2 -208 -3 l-135 -1 -3 198 -2 197 210 0 210 0 0
-195z m-1485 -460 l0 -190 -200 0 -200 0 -3 180 c-1 98 0 185 3 192 3 11 47
13 202 11 l198 -3 0 -190z m483 187 c9 -7 12 -52 10 -193 l-3 -184 -202 -3
-203 -2 0 188 c0 104 3 192 7 195 9 10 375 8 391 -1z m497 -187 l0 -190 -200
0 -200 0 -3 184 c-2 141 1 186 10 193 7 4 99 7 203 5 l190 -2 0 -190z m503 -2
l2 -193 -210 0 c-203 0 -210 1 -210 20 0 11 -1 90 -1 175 0 85 1 164 1 175 0
20 5 20 208 18 l207 -3 3 -192z m978 136 c300 -54 527 -261 594 -541 11 -46
20 -109 20 -140 l0 -58 -334 0 c-316 0 -335 -1 -340 -18 -4 -11 -18 -25 -31
-32 -21 -11 -29 -11 -50 0 -13 7 -27 21 -31 32 -5 17 -24 18 -302 20 -163 1
-261 4 -217 5 l81 4 13 82 c8 54 25 107 49 157 20 41 37 78 37 81 0 3 -35 36
-78 74 -62 53 -81 65 -88 54 -5 -8 -25 -40 -45 -71 -43 -70 -55 -76 -19 -10
42 78 96 143 170 205 88 74 180 118 325 156 49 13 175 13 246 0z m-2456 -589
c0 -188 0 -190 -22 -195 -13 -3 -104 -4 -203 -3 l-180 3 -3 193 -2 192 205 0
205 0 0 -190z m490 0 c0 -188 0 -190 -22 -195 -13 -3 -104 -4 -203 -3 l-180 3
-3 193 -2 192 205 0 205 0 0 -190z m488 -2 l-3 -193 -200 0 -200 0 -3 180 c-1
98 0 185 2 192 4 10 52 13 206 13 l200 0 -2 -192z m502 -233 l0 -425 -210 0
-210 0 0 425 0 425 210 0 210 0 0 -425z m-1482 -227 l-3 -193 -200 0 -200 0
-3 193 -2 192 205 0 205 0 -2 -192z m492 2 c0 -188 0 -190 -22 -195 -13 -3
-104 -4 -203 -3 l-180 3 -3 193 -2 192 205 0 205 0 0 -190z m490 -5 l0 -195
-205 0 -205 0 0 195 0 195 205 0 205 0 0 -195z"/>
<path d="M8079 5569 c-17 -33 3 -69 39 -69 33 0 52 16 52 45 0 29 -19 45 -52
45 -18 0 -31 -7 -39 -21z"/>
<path d="M9710 4950 l0 -89 -57 -4 -58 -3 63 -2 62 -2 0 95 c0 52 -2 95 -5 95
-3 0 -5 -40 -5 -90z"/>
<path d="M9303 4853 c31 -2 83 -2 115 0 31 2 5 3 -58 3 -63 0 -89 -1 -57 -3z"/>
<path d="M9407 4343 c-4 -3 -7 -87 -7 -185 l0 -178 198 2 197 3 3 160 c2 88 0
170 -3 183 -5 22 -7 22 -194 22 -103 0 -191 -3 -194 -7z m220 -137 c-6 -17
-47 -20 -47 -3 0 9 6 17 13 20 18 6 38 -4 34 -17z m33 -47 c0 -12 -117 -12
-124 0 -4 5 -2 11 4 13 20 6 120 -4 120 -13z m-40 -44 c0 -8 -6 -15 -14 -15
-8 0 -16 7 -20 15 -4 10 1 15 14 15 11 0 20 -7 20 -15z"/>
<path d="M9498 3883 l-98 -4 0 -179 0 -180 200 0 200 0 0 180 0 180 -82 0
c-46 0 -92 2 -103 3 -11 2 -64 2 -117 0z m84 -140 c17 -15 19 -15 37 1 29 26
48 9 21 -19 -18 -19 -19 -23 -5 -35 15 -12 21 -40 8 -40 -3 0 -14 7 -24 16
-14 13 -20 13 -38 3 -28 -18 -38 -4 -15 22 18 20 18 22 1 34 -17 12 -24 35
-10 35 3 0 15 -7 25 -17z"/>
<path d="M10625 3833 c-186 -19 -340 -88 -453 -205 l-43 -45 81 -73 80 -72 43
39 c79 73 211 133 294 133 l32 0 3 111 c2 61 1 112 -2 113 -3 1 -18 0 -35 -1z"/>
<path d="M9400 3021 l0 -410 43 -6 c23 -3 112 -5 197 -3 l155 3 0 410 0 410
-197 3 -198 3 0 -410z m214 50 c0 -16 5 -21 23 -21 14 0 23 -6 23 -16 0 -10
-7 -14 -22 -12 -19 2 -22 -1 -20 -19 2 -15 -2 -23 -12 -23 -8 0 -16 10 -18 23
-2 14 -11 23 -25 25 -31 5 -29 22 2 22 20 0 25 5 25 26 0 16 5 24 13 21 6 -2
12 -14 11 -26z"/>
<path d="M8917 2963 c-1 -1 -1 -82 0 -180 l1 -178 189 0 188 0 3 178 2 177
-22 0 c-13 0 -99 1 -191 3 -93 1 -169 1 -170 0z m253 -148 c0 -13 -11 -15 -62
-13 -38 2 -63 8 -66 16 -3 9 14 12 62 12 53 0 66 -3 66 -15z m0 -45 c0 -6 -28
-10 -65 -10 -37 0 -65 4 -65 10 0 6 28 10 65 10 37 0 65 -4 65 -10z"/>
<path d="M1980 5064 c0 -34 1 -35 32 -32 29 3 33 7 34 36 2 30 0 32 -32 32
-32 0 -34 -2 -34 -36z"/>
<path d="M2060 5065 l0 -35 2325 0 2325 0 0 35 0 35 -2325 0 -2325 0 0 -35z"/>
<path d="M6720 5065 c0 -33 2 -35 35 -35 33 0 35 2 35 35 0 33 -2 35 -35 35
-33 0 -35 -2 -35 -35z"/>
<path d="M1980 3075 l0 -1935 35 0 35 0 0 1935 0 1935 -35 0 -35 0 0 -1935z"/>
<path d="M2060 3075 l0 -1935 2013 0 2013 0 34 92 c19 51 37 96 38 100 2 4
-165 8 -372 8 l-376 0 0 160 0 160 441 2 441 3 53 140 c29 77 56 148 60 158 4
9 17 17 29 17 16 0 25 11 37 48 9 26 24 63 32 83 l16 36 -317 121 c-174 66
-362 137 -417 157 -55 21 -103 39 -106 41 -4 2 -21 -31 -38 -72 -29 -72 -30
-78 -15 -103 15 -26 12 -36 -106 -331 -67 -168 -128 -318 -136 -335 -7 -16
-40 -92 -72 -168 l-59 -138 -81 146 -81 146 14 70 c8 39 15 75 15 80 0 5 -27
9 -60 9 l-60 0 -1 -87 c-1 -49 -4 -78 -6 -65 -5 23 -18 29 -28 12 -9 -14 -25
-12 -25 3 0 11 -33 14 -155 15 -85 0 -155 -3 -155 -7 0 -5 -11 -6 -25 -3 l-25
4 -1 -103 c-1 -57 -4 -94 -6 -81 -5 24 -11 26 -33 12 -9 -5 -17 -5 -20 0 -4 6
-278 9 -696 9 -379 -1 -701 -1 -716 -1 -20 1 -28 -5 -31 -21 -2 -12 -5 24 -6
81 -1 101 -5 114 -29 90 -10 -10 -15 -10 -20 -1 -8 13 -299 22 -319 10 -6 -4
-18 -4 -26 -1 -10 3 -17 -1 -20 -13 -3 -10 -5 19 -6 65 l-1 82 -75 0 -75 0 5
70 4 70 -62 1 c-34 1 -55 3 -46 6 11 2 19 20 23 50 10 71 7 201 -4 208 -6 4
-8 11 -5 16 4 5 -25 9 -69 9 -43 0 -76 4 -76 10 0 5 7 7 15 4 12 -5 14 97 15
784 0 559 -3 791 -10 794 -8 2 -8 11 -1 31 10 25 9 27 -17 29 -15 1 32 5 103
8 l130 5 -3 68 -3 67 28 1 c15 1 46 2 68 3 22 0 43 6 48 11 4 6 7 101 6 213
-1 111 1 206 5 209 3 4 6 -3 6 -15 0 -25 4 -26 31 -12 15 8 19 7 19 -4 0 -12
27 -14 155 -15 103 -1 155 2 155 9 0 6 10 8 25 4 l24 -6 4 123 c2 80 6 116 11
102 7 -18 12 -21 27 -12 15 7 23 6 35 -6 14 -13 95 -15 695 -15 632 0 679 1
679 17 0 13 3 14 12 5 19 -19 36 -14 41 11 2 12 5 -33 6 -101 l1 -122 25 6
c14 4 25 2 25 -4 0 -6 58 -11 155 -11 103 -1 155 2 155 9 0 6 10 8 24 4 18 -4
25 -1 28 13 8 36 17 -165 14 -290 l-4 -128 61 1 c34 1 68 1 76 1 10 -1 12 -17
9 -71 l-4 -70 61 -1 c33 -1 52 -3 42 -6 -14 -4 -18 -11 -14 -29 2 -14 0 -27
-4 -30 -12 -7 -11 -234 1 -234 6 0 6 -9 0 -26 -6 -14 -10 -27 -10 -30 0 -2 39
-4 88 -4 57 0 82 -3 72 -9 -8 -6 -18 -7 -22 -5 -11 7 -10 -14 2 -36 7 -13 7
-21 0 -25 -6 -4 -10 -113 -9 -298 0 -161 3 -285 6 -277 27 78 108 299 119 325
l14 34 87 -35 c102 -40 110 -41 118 -14 3 11 11 20 17 20 5 0 21 -9 35 -20 14
-11 31 -20 37 -20 6 0 1 7 -10 14 -34 24 -25 109 24 231 22 55 43 109 47 120
5 16 13 2 36 -60 51 -137 59 -168 65 -240 6 -74 6 -73 -90 -298 -16 -37 -16
-38 6 -46 101 -37 359 -131 362 -131 2 0 25 51 51 113 64 150 77 170 153 233
70 57 207 134 240 134 19 0 17 -8 -24 -105 -46 -109 -77 -168 -85 -160 -3 2
-5 -4 -6 -13 0 -9 -6 -33 -13 -52 -23 -67 -29 -93 -25 -101 5 -7 129 -60 173
-74 l22 -6 0 1155 0 1156 -2325 0 -2325 0 0 -1935z m420 1815 c0 -6 -53 -10
-140 -10 l-140 0 0 -125 c0 -77 -4 -125 -10 -125 -6 0 -10 52 -10 135 l0 135
150 0 c93 0 150 -4 150 -10z m4100 -250 l0 -260 -585 0 -585 0 0 260 0 260
585 0 585 0 0 -260z m-2761 19 c15 -43 14 -57 -3 -34 -13 18 -13 18 -24 -1
-16 -29 -23 -12 -10 29 14 45 23 47 37 6z m51 -14 c0 -19 -4 -37 -10 -40 -6
-4 -10 8 -10 29 0 22 -5 36 -12 36 -9 0 -8 3 2 9 21 14 30 4 30 -34z m-1606
-1615 c31 -11 36 -53 9 -70 -17 -11 -17 -11 0 -6 11 3 17 0 17 -9 0 -11 -11
-15 -37 -15 -34 1 -36 2 -20 14 14 11 15 15 4 19 -19 7 -29 60 -14 69 15 10
11 10 41 -2z"/>
<path d="M5424 4828 c3 -29 6 -137 6 -240 l0 -188 564 0 564 0 6 143 c3 78 5
186 4 240 l-2 97 -574 0 -575 0 7 -52z m1086 -88 c0 -7 -177 -10 -510 -10
-333 0 -510 3 -510 10 0 7 177 10 510 10 333 0 510 -3 510 -10z m-10 -75 c0
-10 -612 -20 -638 -10 -43 16 31 21 317 21 207 -1 321 -5 321 -11z m10 -75 c0
-7 -177 -10 -510 -10 -333 0 -510 3 -510 10 0 7 177 10 510 10 333 0 510 -3
510 -10z m-780 -90 c0 -6 -45 -10 -115 -10 -70 0 -115 4 -115 10 0 6 45 10
115 10 70 0 115 -4 115 -10z"/>
<path d="M2230 3000 c0 -15 7 -20 25 -20 23 0 24 2 15 20 -6 11 -17 20 -25 20
-8 0 -15 -9 -15 -20z"/>
<path d="M6720 3847 l0 -1164 35 -10 35 -11 0 1174 0 1174 -34 0 -35 0 -1
-1163z"/>
<path d="M3130 4571 c0 -5 -9 -7 -20 -4 -19 5 -20 0 -20 -82 l0 -87 25 6 c14
4 25 2 25 -4 0 -16 1377 -14 1383 3 3 9 7 9 19 -1 13 -10 16 -6 22 34 3 26 6
69 6 96 0 47 -1 48 -22 37 -16 -9 -23 -9 -26 0 -5 14 -1392 16 -1392 2z m689
-122 c6 -18 11 -33 11 -34 0 -1 -7 -2 -15 -2 -8 0 -12 4 -9 9 3 4 1 8 -5 8 -5
0 -11 -6 -14 -12 -2 -7 -7 -10 -11 -7 -8 7 13 69 24 69 4 0 13 -14 19 -31z
m51 4 c0 -16 -5 -35 -10 -43 -8 -12 -10 -9 -10 12 0 14 -3 33 -6 42 -4 11 -1
16 10 16 11 0 16 -9 16 -27z"/>
<path d="M2660 4226 c0 -134 2 -155 15 -150 8 4 12 10 9 15 -3 5 2 6 10 3 9
-3 16 -10 16 -15 0 -14 308 -11 312 2 3 9 10 9 27 0 l22 -12 -3 148 c-3 147
-3 148 -25 146 -13 -2 -23 2 -23 7 0 15 -307 13 -312 -1 -3 -9 -10 -9 -26 0
l-22 12 0 -155z"/>
<path d="M3140 4369 c0 -7 -10 -9 -25 -5 l-25 6 0 -185 0 -185 735 0 c404 0
735 1 736 3 0 1 3 73 6 159 6 178 2 212 -26 203 -11 -3 -22 -1 -26 5 -9 15
-1375 14 -1375 -1z"/>
<path d="M4580 4225 l0 -156 21 12 c15 8 24 8 28 1 10 -17 311 -21 311 -4 0
15 6 15 31 2 18 -10 19 -6 19 140 0 153 -5 171 -38 138 -9 -9 -12 -8 -12 5 0
15 -16 17 -154 17 -107 0 -156 -4 -158 -11 -3 -9 -10 -9 -26 0 l-22 12 0 -156z"/>
<path d="M2660 4026 c0 -22 2 -22 203 -21 l202 1 3 24 c4 23 3 23 -22 7 -23
-16 -26 -16 -26 -2 0 14 -22 16 -180 14 -177 -2 -180 -2 -180 -23z"/>
<path d="M4580 4023 l0 -24 205 2 205 1 0 25 c0 25 -1 25 -25 9 -22 -15 -25
-15 -25 -1 0 14 -23 16 -180 14 l-180 -1 0 -25z"/>
<path d="M2530 3975 c-20 -24 -6 -28 15 -5 10 11 13 20 8 20 -6 0 -16 -7 -23
-15z"/>
<path d="M2559 3963 l-24 -28 30 25 c17 14 32 26 34 28 2 1 0 2 -6 2 -5 0 -20
-12 -34 -27z"/>
<path d="M2570 3936 l-44 -51 54 50 c30 28 57 51 59 53 2 1 -2 2 -10 1 -8 -1
-34 -24 -59 -53z"/>
<path d="M2665 3981 c-9 -16 9 -20 23 -5 10 12 10 14 -2 14 -8 0 -17 -4 -21
-9z"/>
<path d="M2710 3981 c0 -4 -12 -21 -27 -36 -25 -25 -25 -27 -5 -16 12 7 28 21
35 31 6 11 18 20 25 20 8 0 -7 -21 -32 -47 -25 -27 -46 -55 -45 -63 0 -10 6
-6 17 10 9 14 37 44 62 67 l45 43 -37 0 c-21 0 -38 -4 -38 -9z"/>
<path d="M2780 3965 c-13 -14 -20 -25 -15 -25 5 0 -9 -19 -30 -41 -22 -23 -31
-37 -20 -31 11 6 45 36 75 66 44 45 50 56 34 56 -11 0 -31 -11 -44 -25z m25
-5 c-10 -11 -23 -20 -28 -20 -6 0 -2 9 8 20 10 11 23 20 28 20 6 0 2 -9 -8
-20z"/>
<path d="M2804 3925 c-34 -36 -60 -65 -58 -65 14 0 82 59 76 65 -4 5 -2 5 4 2
7 -4 24 9 38 28 46 60 5 40 -60 -30z"/>
<path d="M2857 3925 c-76 -84 -58 -84 25 0 39 39 59 65 49 65 -9 -1 -42 -30
-74 -65z"/>
<path d="M2911 3930 c-35 -34 -61 -64 -57 -67 3 -3 36 24 73 60 38 37 63 67
58 67 -6 0 -39 -27 -74 -60z"/>
<path d="M3015 3980 c-26 -11 -133 -120 -118 -120 10 0 153 118 153 126 0 6
-13 4 -35 -6z"/>
<path d="M3090 3925 l0 -65 40 0 c36 0 40 3 40 25 0 14 5 25 10 25 6 0 10 -11
10 -25 0 -24 3 -25 59 -25 57 0 58 1 69 33 l10 32 1 -32 1 -33 65 0 65 0 0 31
c0 17 4 28 10 24 6 -3 10 -17 10 -31 0 -23 3 -24 65 -24 63 0 65 1 65 26 0 15
4 23 11 18 6 -3 9 -15 6 -25 -5 -17 1 -19 59 -19 62 0 64 1 64 26 0 14 4 23
10 19 6 -3 10 -15 10 -26 0 -17 7 -19 60 -19 57 0 60 1 60 25 0 14 5 25 10 25
6 0 10 -11 10 -25 0 -24 3 -25 60 -25 57 0 60 1 60 24 0 14 5 28 10 31 6 4 10
-7 10 -24 l0 -31 64 0 65 0 4 33 3 32 8 -32 c8 -33 9 -33 67 -33 56 0 59 1 59
25 0 14 5 25 10 25 6 0 10 -11 10 -25 0 -24 2 -25 64 -25 l65 0 4 33 4 32 1
-33 c2 -32 3 -33 42 -30 22 2 40 6 40 11 0 4 0 32 0 62 l0 55 -735 0 -735 -1
0 -64z"/>
<path d="M4585 3969 c-9 -28 -4 -29 22 -2 21 21 21 23 3 23 -10 0 -22 -9 -25
-21z"/>
<path d="M4615 3950 c-21 -22 -36 -42 -34 -45 3 -2 25 16 49 40 24 25 40 45
34 45 -5 0 -27 -18 -49 -40z"/>
<path d="M4635 3930 c-32 -33 -56 -62 -52 -66 3 -4 35 23 70 60 35 36 58 66
52 66 -6 0 -37 -27 -70 -60z"/>
<path d="M4680 3925 c-35 -36 -59 -65 -52 -65 7 0 44 29 82 65 45 42 63 65 52
65 -10 0 -47 -29 -82 -65z m50 32 c0 -2 -17 -19 -37 -38 l-38 -34 34 38 c33
34 41 42 41 34z"/>
<path d="M4736 3925 c-39 -36 -63 -65 -55 -65 9 0 44 29 78 65 81 83 66 83
-23 0z"/>
<path d="M4811 3957 l-25 -32 32 29 c33 31 37 36 25 35 -5 0 -19 -14 -32 -32z"/>
<path d="M4869 3983 c9 -4 -6 -24 -45 -64 -32 -33 -54 -59 -48 -59 5 0 39 29
74 65 63 64 64 65 35 64 -17 0 -24 -3 -16 -6z"/>
<path d="M4877 3931 c-57 -60 -76 -90 -34 -55 82 69 124 114 108 114 -10 0
-43 -27 -74 -59z"/>
<path d="M4979 3983 c-2 -4 -32 -34 -66 -65 -34 -32 -55 -58 -47 -58 28 0 135
112 121 126 -3 3 -7 2 -8 -3z"/>
<path d="M5011 3973 c0 -11 3 -13 6 -5 2 6 12 12 21 12 14 -1 12 -5 -7 -21
-13 -11 -22 -22 -19 -24 2 -3 17 9 33 25 l29 30 -32 0 c-24 0 -32 -4 -31 -17z"/>
<path d="M5095 3980 c-3 -5 -3 -10 1 -10 4 0 -5 -13 -21 -30 -39 -41 -56 -38
-19 3 l29 32 -38 -34 c-20 -19 -37 -44 -37 -55 0 -16 9 -11 50 29 27 26 47 52
44 57 -3 4 2 5 10 2 9 -3 16 -1 16 5 0 14 -27 15 -35 1z"/>
<path d="M2580 3915 c-30 -30 -51 -55 -47 -55 4 0 23 18 43 40 40 44 72 56 34
13 l-24 -28 28 26 c15 15 26 34 24 43 -2 13 -17 3 -58 -39z"/>
<path d="M3003 3920 c-29 -27 -53 -52 -53 -55 0 -10 39 15 48 31 5 9 12 15 15
15 4 -1 7 1 7 4 0 3 12 17 27 30 16 13 24 24 18 24 -5 1 -34 -22 -62 -49z"/>
<path d="M5075 3910 c-27 -27 -44 -50 -38 -50 6 0 13 7 17 15 3 8 11 15 19 15
16 0 59 48 55 61 -2 5 -25 -13 -53 -41z"/>
<path d="M4945 3900 c-36 -37 -37 -40 -16 -40 12 0 19 4 16 10 -3 6 -2 10 4
10 12 0 46 48 39 55 -2 3 -22 -13 -43 -35z"/>
<path d="M3030 3895 c-19 -19 -29 -35 -24 -35 13 0 69 58 63 65 -3 2 -21 -11
-39 -30z"/>
<path d="M2621 3896 c-14 -14 -22 -29 -18 -32 4 -4 9 1 13 10 8 22 25 21 17
-1 -5 -14 -3 -15 6 -7 7 7 11 22 9 34 -3 22 -3 22 -27 -4z"/>
<path d="M4756 3892 c-21 -14 -33 -28 -26 -30 7 -3 26 10 43 27 38 37 34 38
-17 3z"/>
<path d="M5105 3890 c-20 -22 -15 -36 10 -27 8 4 15 16 15 27 0 25 -2 25 -25
0z"/>
<path d="M3050 3870 c-9 -6 -10 -10 -3 -10 6 0 15 5 18 10 8 12 4 12 -15 0z"/>
<path d="M2320 3060 c0 -549 3 -790 10 -790 7 0 8 -6 0 -19 -19 -37 -12 -43
42 -39 51 3 76 22 41 31 -10 3 6 5 35 6 l52 1 0 620 0 620 -47 0 c-27 0 -43 4
-37 8 8 5 12 61 12 180 l0 172 -53 0 -54 0 -1 -790z"/>
<path d="M2454 3835 c3 -8 9 -22 13 -32 4 -11 3 -14 -5 -9 -9 5 -12 -24 -12
-113 0 -77 4 -121 10 -121 7 0 7 -6 0 -19 -17 -32 -12 -41 21 -41 l32 0 -7 53
c-3 28 -6 107 -6 175 l0 122 -26 0 c-19 0 -25 -4 -20 -15z"/>
<path d="M2600 3843 c-24 -10 -90 -100 -78 -107 2 -1 27 24 57 56 51 55 55 64
21 51z"/>
<path d="M2865 3842 l-200 -2 0 -813 0 -812 199 3 c110 1 201 4 203 5 2 2 2
368 1 813 l-3 809 -200 -3z"/>
<path d="M3152 3842 l-62 -3 2 -809 3 -810 695 -1 c382 0 714 0 738 0 l42 1
-2 813 -3 812 -675 0 c-371 1 -703 -1 -738 -3z m716 -632 c90 0 222 -137 222
-230 l0 -30 86 0 c54 0 83 -4 79 -10 -3 -5 -42 -10 -86 -10 l-79 0 0 -32 c0
-93 -134 -227 -227 -228 -22 0 -23 -4 -23 -75 0 -43 -4 -75 -10 -75 -6 0 -10
31 -10 74 l0 74 -44 6 c-103 16 -216 136 -216 231 0 25 -1 25 -80 25 -47 0
-80 4 -80 10 0 6 33 10 80 10 l80 0 0 28 c0 102 134 232 239 232 20 0 21 5 21
73 0 101 14 107 18 8 3 -81 3 -81 30 -81z"/>
<path d="M3765 3191 c-82 -20 -155 -92 -180 -175 -8 -27 -15 -53 -15 -58 0 -4
29 -8 64 -8 62 0 64 1 69 29 8 38 62 91 93 91 23 0 24 3 24 65 0 69 0 69 -55
56z"/>
<path d="M3840 3138 l1 -63 42 -20 c39 -18 57 -42 71 -87 4 -15 17 -18 67 -18
l61 0 -7 37 c-19 101 -102 186 -202 208 l-33 7 0 -64z"/>
<path d="M3769 3045 c-22 -12 -59 -68 -59 -89 0 -3 25 -6 55 -6 l55 0 0 55 c0
60 -6 64 -51 40z"/>
<path d="M3840 3005 l0 -55 50 0 c53 0 56 3 40 44 -8 23 -62 66 -82 66 -5 0
-8 -25 -8 -55z"/>
<path d="M3853 2933 c-8 -3 -13 -23 -13 -54 0 -41 3 -49 19 -49 33 0 105 98
74 101 -5 0 -21 2 -38 3 -16 2 -36 1 -42 -1z"/>
<path d="M3953 2910 c-6 -34 -57 -88 -89 -96 -22 -6 -24 -11 -24 -69 l0 -63
42 10 c79 17 142 70 177 148 11 25 21 57 21 71 0 24 -2 25 -60 26 -59 1 -61 0
-67 -27z"/>
<path d="M3577 2898 c20 -105 99 -189 197 -207 l46 -8 0 61 c0 62 0 62 -35 74
-39 15 -85 64 -85 93 0 17 -8 19 -65 19 l-64 0 6 -32z"/>
<path d="M3710 2921 c0 -21 48 -76 78 -88 l32 -13 0 55 0 55 -55 0 c-30 0 -55
-4 -55 -9z"/>
<path d="M4584 3841 c-2 -2 -4 -368 -4 -812 l0 -807 123 -7 c67 -3 158 -5 202
-3 l80 3 2 813 1 812 -86 0 c-48 1 -138 2 -200 3 -62 2 -115 1 -118 -2z"/>
<path d="M5065 3785 c-82 -90 -82 -105 0 -24 37 37 66 72 64 78 -3 7 -31 -18
-64 -54z"/>
<path d="M5146 3834 c-3 -9 -6 -87 -6 -175 l0 -159 35 0 c39 0 42 6 19 38 -11
17 -12 22 -2 22 10 0 12 25 10 112 -2 62 -7 117 -12 123 -5 6 -5 17 0 25 15
23 12 30 -14 30 -13 0 -27 -7 -30 -16z"/>
<path d="M2526 3817 c-4 -18 -4 -18 15 -1 23 21 23 21 5 21 -8 0 -17 -9 -20
-20z"/>
<path d="M2595 3790 c-26 -27 -41 -48 -32 -46 20 3 43 22 69 58 33 47 16 41
-37 -12z m15 -3 c0 -2 -10 -12 -22 -23 l-23 -19 19 23 c18 21 26 27 26 19z"/>
<path d="M5014 3826 c-10 -8 -16 -17 -13 -20 3 -3 14 3 24 14 21 23 17 26 -11
6z"/>
<path d="M5075 3830 c-4 -6 -10 -8 -14 -6 -13 9 -63 -51 -59 -70 2 -14 13 -6
46 34 24 29 41 52 39 52 -3 0 -9 -5 -12 -10z"/>
<path d="M5062 3734 c-34 -36 -62 -71 -62 -77 0 -13 106 89 122 116 21 39 -1
25 -60 -39z"/>
<path d="M2607 3746 c-25 -30 -33 -47 -25 -52 7 -4 8 -3 4 4 -4 6 7 21 23 33
16 12 32 30 34 40 3 11 4 19 3 19 -1 0 -18 -20 -39 -44z"/>
<path d="M5077 3702 c-26 -26 -47 -53 -47 -60 0 -7 -7 -15 -15 -18 -8 -4 -15
-13 -15 -20 0 -8 29 18 65 58 56 61 74 88 62 88 -1 0 -24 -22 -50 -48z"/>
<path d="M2582 3665 c-83 -90 -79 -108 4 -23 36 37 64 72 62 79 -2 6 -32 -19
-66 -56z"/>
<path d="M2525 3700 c-3 -5 -2 -10 4 -10 5 0 13 5 16 10 3 6 2 10 -4 10 -5 0
-13 -4 -16 -10z"/>
<path d="M5063 3637 c-35 -39 -60 -73 -58 -76 8 -7 114 100 121 122 3 10 4 20
2 21 -1 2 -31 -29 -65 -67z m27 10 c0 -2 -10 -12 -22 -23 l-23 -19 19 23 c18
21 26 27 26 19z"/>
<path d="M2535 3660 c-10 -11 -16 -22 -13 -25 3 -3 13 6 22 20 20 30 16 32 -9
5z"/>
<path d="M2585 3620 c-32 -33 -56 -62 -53 -66 4 -3 13 3 20 15 7 12 17 21 23
21 11 0 75 70 75 82 0 13 -3 11 -65 -52z"/>
<path d="M5082 3607 c-23 -23 -42 -48 -42 -55 0 -8 -5 -10 -12 -6 -7 4 -10 4
-6 -1 4 -4 0 -14 -10 -21 -9 -7 -14 -16 -10 -20 9 -9 128 114 128 132 0 20 -1
19 -48 -29z"/>
<path d="M2582 3569 c-34 -33 -62 -62 -62 -65 0 -3 10 3 23 14 91 81 111 101
107 105 -3 3 -33 -21 -68 -54z"/>
<path d="M5082 3552 c-23 -25 -41 -47 -38 -49 8 -9 45 17 66 47 35 49 18 50
-28 2z"/>
<path d="M2609 3553 l-24 -26 33 23 c33 25 38 30 24 30 -5 0 -19 -12 -33 -27z"/>
<path d="M2607 3525 c-15 -14 -22 -25 -15 -25 7 0 21 12 31 25 22 31 19 31
-16 0z"/>
<path d="M5105 3520 c-17 -18 -17 -20 -1 -20 9 0 19 7 23 15 9 25 -2 27 -22 5z"/>
<path d="M2630 3515 c-10 -12 -10 -15 4 -15 9 0 16 7 16 15 0 8 -2 15 -4 15
-2 0 -9 -7 -16 -15z"/>
<path d="M2520 2867 l0 -618 65 2 65 2 0 33 c0 30 -3 34 -27 35 l-28 1 28 11
c25 10 27 15 27 69 0 56 -1 58 -27 59 l-28 1 28 11 c25 10 27 15 27 70 0 54
-2 59 -20 54 -11 -3 -23 -1 -26 4 -3 5 6 9 20 9 25 0 26 2 26 64 0 63 -1 65
-27 69 l-28 4 28 2 c27 1 27 2 27 66 0 63 -1 65 -25 65 -14 0 -25 5 -25 10 0
6 11 10 25 10 24 0 25 3 25 55 0 51 -2 55 -27 62 l-28 7 25 6 c23 5 25 11 28
69 2 34 -1 61 -5 58 -4 -2 -17 -1 -28 4 -17 7 -17 8 8 8 26 1 27 2 27 61 0 53
-2 60 -19 60 -11 0 -23 5 -26 10 -4 6 5 10 19 10 24 0 26 3 26 49 0 46 -2 50
-27 54 l-28 4 28 2 c23 1 27 5 27 30 0 29 -1 29 -65 33 l-65 3 0 -618z"/>
<path d="M5010 2893 c0 -329 -3 -608 -6 -620 -6 -23 -5 -23 85 -23 l91 0 0 78
c0 72 5 88 75 267 l76 190 -2 352 -1 351 -159 1 -159 2 0 -598z m306 46 c3 -5
-6 -10 -20 -10 -14 -1 -31 -2 -38 -3 -6 -1 -13 4 -15 10 -4 12 65 16 73 3z
m-14 -41 c-9 -9 -9 -15 1 -26 10 -13 8 -14 -13 -7 -50 15 -57 23 -30 34 36 14
57 14 42 -1z"/>
<path d="M6440 2910 c0 -5 5 -10 11 -10 5 0 7 5 4 10 -3 6 -8 10 -11 10 -2 0
-4 -4 -4 -10z"/>
<path d="M6780 2583 c-41 -15 -54 -78 -22 -106 40 -36 102 -8 102 47 0 49 -35
75 -80 59z"/>
<path d="M7360 2545 c-15 -41 -12 -55 16 -65 19 -7 24 -15 19 -29 -8 -26 54
-50 70 -27 7 8 21 12 36 9 20 -4 28 1 37 22 7 14 12 31 12 38 0 7 -35 25 -78
42 -104 40 -101 40 -112 10z"/>
<path d="M6637 2443 c-3 -10 -19 -57 -37 -105 -17 -49 -28 -93 -24 -99 4 -7 3
-9 -3 -6 -9 6 -29 -40 -21 -48 6 -5 537 -214 713 -280 258 -97 376 -148 364
-157 -10 -7 -9 -8 5 -4 25 8 58 -3 50 -16 -4 -7 -2 -8 5 -4 14 9 53 -2 46 -14
-3 -4 4 -6 14 -3 11 3 28 0 38 -7 15 -10 14 -10 -12 -6 -23 4 -18 0 20 -18 37
-18 53 -22 63 -13 10 7 12 7 10 -2 -2 -6 20 -20 50 -30 l53 -18 35 76 c62 133
112 264 84 221 -9 -13 -10 -13 -10 1 0 11 -56 36 -197 89 -109 40 -304 113
-433 162 -129 49 -314 119 -410 155 -96 36 -219 83 -273 105 -110 43 -123 45
-130 21z m1291 -793 c23 -11 42 -23 42 -26 0 -3 -4 -3 -9 0 -17 11 -66 29 -73
28 -5 -1 -8 3 -8 8 0 13 0 13 48 -10z"/>
<path d="M2457 2234 c-10 -11 3 -24 24 -24 10 0 19 7 19 15 0 15 -31 21 -43 9z"/>
<path d="M2563 2224 c0 -9 5 -10 19 -3 10 5 18 12 18 14 0 2 -8 3 -18 2 -10 0
-19 -7 -19 -13z"/>
<path d="M2609 2223 c-12 -15 -12 -16 4 -10 10 4 23 7 28 7 5 0 9 5 9 10 0 16
-26 12 -41 -7z"/>
<path d="M5005 2230 c-3 -5 3 -10 14 -10 11 0 23 5 26 10 3 6 -3 10 -14 10
-11 0 -23 -4 -26 -10z"/>
<path d="M5046 2210 c-24 -21 -36 -27 -39 -18 -3 7 -6 0 -6 -16 l-1 -29 48 43
c26 24 49 45 51 47 2 2 -1 3 -7 3 -6 0 -27 -14 -46 -30z"/>
<path d="M5059 2181 c-35 -32 -61 -62 -57 -66 4 -4 35 21 68 55 34 34 60 63
58 65 -2 3 -33 -22 -69 -54z"/>
<path d="M5143 2228 c2 -7 10 -13 17 -13 7 0 15 6 18 13 2 7 -5 12 -18 12 -13
0 -20 -5 -17 -12z"/>
<path d="M2451 2062 l2 -138 27 4 26 4 0 134 0 134 -28 0 -29 0 2 -138z"/>
<path d="M2525 2191 c-10 -17 12 -21 25 -6 10 12 10 15 -3 15 -9 0 -18 -4 -22
-9z"/>
<path d="M2557 2170 c-10 -16 -22 -30 -28 -30 -5 0 -9 -7 -9 -16 0 -15 11 -4
59 59 7 9 9 17 4 17 -5 0 -17 -13 -26 -30z"/>
<path d="M2616 2179 c-50 -42 -96 -92 -96 -105 0 -4 24 16 53 43 29 27 59 52
66 54 8 3 12 11 10 18 -4 10 -12 7 -33 -10z"/>
<path d="M2660 2060 l0 -141 203 3 202 3 3 138 3 137 -206 0 -205 0 0 -140z"/>
<path d="M3090 2065 l0 -135 740 0 740 0 0 135 0 135 -740 0 -740 0 0 -135z"/>
<path d="M4580 2066 l0 -134 45 -6 c24 -4 117 -6 205 -5 l160 2 0 116 c0 179
23 161 -211 161 l-199 0 0 -134z"/>
<path d="M5058 2140 c-32 -32 -58 -64 -58 -71 0 -8 27 13 60 46 33 33 60 55
60 50 0 -5 -28 -38 -62 -72 -80 -80 -71 -92 9 -13 50 48 62 65 61 90 -1 16 -4
29 -7 29 -3 -1 -32 -27 -63 -59z"/>
<path d="M5142 2100 c-1 -62 2 -100 8 -100 5 0 10 17 10 39 0 21 3 66 6 100 6
48 4 61 -7 61 -11 0 -15 -23 -17 -100z"/>
<path d="M2575 2096 c-30 -30 -55 -62 -55 -72 0 -11 13 -3 43 29 23 25 53 57
66 71 46 49 2 26 -54 -28z"/>
<path d="M7982 2118 c-45 -22 -41 -98 7 -118 70 -29 116 53 63 113 -17 19 -37
21 -70 5z"/>
<path d="M2597 2064 c-50 -48 -83 -91 -75 -100 3 -2 34 27 68 66 34 39 61 73
58 75 -2 2 -25 -16 -51 -41z"/>
<path d="M5063 2054 c-41 -36 -63 -63 -63 -77 0 -18 12 -10 66 44 37 37 65 72
63 78 -2 6 -32 -14 -66 -45z"/>
<path d="M6581 2081 c-32 -32 -23 -79 19 -101 26 -14 75 11 83 42 16 61 -58
103 -102 59z"/>
<path d="M2597 2014 c-27 -29 -43 -53 -39 -62 4 -11 13 -6 34 19 74 87 78 118
5 43z m13 -7 c0 -2 -12 -14 -27 -28 l-28 -24 24 28 c23 25 31 32 31 24z"/>
<path d="M5066 2001 c-32 -32 -57 -64 -55 -70 2 -6 31 15 63 48 32 32 57 64
55 70 -2 6 -31 -15 -63 -48z"/>
<path d="M5082 1970 c-27 -31 -38 -50 -30 -53 13 -5 6 -8 -37 -22 -19 -5 -20
-25 -2 -25 19 0 59 45 50 55 -5 4 1 5 12 1 11 -4 16 -4 12 0 -4 4 4 20 19 35
14 15 24 34 22 42 -2 10 -17 -1 -46 -33z"/>
<path d="M2602 1961 c-18 -23 -29 -41 -24 -41 13 0 64 60 60 71 -2 6 -18 -8
-36 -30z"/>
<path d="M8030 1959 c19 -6 40 -15 45 -19 10 -9 44 5 35 13 -3 3 -30 7 -60 11
-49 5 -51 4 -20 -5z"/>
<path d="M5110 1945 c-10 -12 -10 -15 4 -15 9 0 16 7 16 15 0 8 -2 15 -4 15
-2 0 -9 -7 -16 -15z"/>
<path d="M2530 1940 c-13 -8 -12 -10 3 -10 9 0 17 5 17 10 0 12 -1 12 -20 0z"/>
<path d="M2625 1939 c-4 -6 -5 -13 -2 -16 7 -7 27 6 27 18 0 12 -17 12 -25 -2z"/>
<path d="M2530 1894 c0 -8 5 -12 10 -9 6 3 10 10 10 16 0 5 -4 9 -10 9 -5 0
-10 -7 -10 -16z"/>
<path d="M2554 1871 c-19 -20 -34 -42 -34 -49 0 -7 11 0 25 15 13 15 25 23 25
17 0 -6 -11 -23 -25 -38 -14 -15 -25 -30 -25 -34 1 -4 15 9 32 28 18 20 28 27
24 16 -5 -16 -4 -17 9 -6 17 14 19 7 5 -19 -9 -18 1 -20 41 -12 10 2 18 41 12
57 -5 13 -8 12 -24 -2 -11 -10 -19 -12 -19 -6 0 7 9 17 20 24 11 7 20 20 20
28 0 9 -12 1 -30 -20 -33 -39 -40 -33 -11 9 31 42 -3 36 -45 -8z m36 8 c-7
-11 -14 -18 -17 -15 -3 3 0 12 7 21 18 21 23 19 10 -6z m40 -58 c-10 -20 -30
-37 -30 -26 0 11 25 45 33 45 4 0 3 -9 -3 -19z"/>
<path d="M2713 1897 c-4 -7 -17 -20 -28 -28 -11 -8 -21 -21 -23 -29 -2 -8 15
3 37 25 23 21 41 40 41 42 0 9 -20 1 -27 -10z"/>
<path d="M2716 1863 c-49 -44 -69 -73 -48 -73 4 0 34 27 67 60 71 71 58 80
-19 13z"/>
<path d="M2757 1852 c-59 -60 -69 -76 -39 -65 19 7 121 104 122 116 0 20 -32
1 -83 -51z"/>
<path d="M2849 1887 c-42 -36 -102 -107 -90 -107 6 0 29 16 51 37 70 63 105
127 39 70z"/>
<path d="M2856 1844 c-38 -42 -54 -64 -43 -64 9 0 22 7 29 16 7 9 33 38 57 65
65 73 26 57 -43 -17z"/>
<path d="M2911 1856 c-43 -46 -62 -76 -48 -76 5 0 35 29 87 83 28 30 39 47 29
47 -9 0 -39 -24 -68 -54z"/>
<path d="M2955 1850 c-32 -33 -56 -62 -53 -66 4 -3 38 24 77 60 45 43 64 66
53 66 -10 0 -44 -27 -77 -60z"/>
<path d="M3090 1900 c0 -7 253 -10 740 -10 487 0 740 3 740 10 0 7 -253 10
-740 10 -487 0 -740 -3 -740 -10z"/>
<path d="M4585 1900 c-8 -13 15 -13 35 0 12 8 11 10 -7 10 -12 0 -25 -4 -28
-10z"/>
<path d="M4641 1893 c-5 -10 -19 -18 -32 -18 -12 0 -24 -7 -27 -15 -4 -12 -2
-13 9 -2 20 19 34 14 17 -5 -38 -45 -26 -43 21 2 28 27 51 51 51 52 0 11 -31
0 -39 -14z"/>
<path d="M4651 1853 c-36 -41 -47 -59 -38 -65 25 -16 44 -6 107 57 35 36 59
65 52 65 -7 0 -39 -27 -71 -60 -33 -33 -65 -60 -73 -60 -7 1 3 15 22 33 63 58
85 87 68 87 -9 0 -39 -26 -67 -57z"/>
<path d="M4746 1845 c-38 -36 -63 -65 -55 -65 19 1 157 130 139 130 -8 0 -46
-29 -84 -65z"/>
<path d="M4795 1845 c-53 -49 -65 -64 -50 -65 12 0 47 26 85 65 83 84 56 84
-35 0z"/>
<path d="M4850 1845 c-35 -36 -58 -65 -51 -65 7 0 43 29 80 65 37 36 59 65 51
65 -9 0 -45 -29 -80 -65z"/>
<path d="M4900 1844 c-36 -36 -56 -62 -46 -58 26 10 139 124 123 124 -7 0 -42
-29 -77 -66z"/>
<path d="M5047 1869 l-42 -41 43 32 c23 17 42 28 42 23 0 -4 4 -1 10 7 5 8 11
12 15 9 8 -9 -52 -87 -77 -100 -16 -8 -12 0 15 28 50 52 48 67 -3 18 -22 -22
-39 -44 -37 -49 2 -5 27 -10 55 -10 49 -1 52 0 53 24 0 14 2 42 4 63 3 32 1
37 -16 37 -11 0 -39 -19 -62 -41z m61 -41 c-9 -13 -24 -24 -34 -26 -14 -3 -11
3 11 22 37 31 41 32 23 4z"/>
<path d="M2660 1884 c0 -14 3 -14 15 -4 8 7 15 14 15 16 0 2 -7 4 -15 4 -8 0
-15 -7 -15 -16z"/>
<path d="M3004 1846 c-32 -31 -55 -58 -51 -62 3 -4 32 18 64 49 32 31 55 58
52 62 -3 3 -32 -19 -65 -49z"/>
<path d="M4932 1835 c-40 -38 -44 -45 -26 -45 21 0 84 60 84 80 0 17 -10 11
-58 -35z"/>
<path d="M3090 1685 c0 -181 1 -185 19 -175 14 7 22 7 26 0 4 -7 241 -10 718
-10 l712 1 3 185 3 184 -740 0 -741 0 0 -185z m989 80 c12 -5 8 -10 -18 -21
-24 -10 -37 -11 -41 -4 -5 8 -77 11 -224 9 -119 -1 -219 1 -223 4 -16 17 54
22 263 20 125 -1 234 -5 243 -8z m477 -106 c3 -5 -303 -9 -720 -9 -399 0 -727
4 -730 8 -3 5 321 9 720 9 408 0 727 -3 730 -8z m-726 -133 c0 -2 -13 -3 -30
-3 -35 0 -35 -1 -14 39 l16 32 14 -33 c8 -18 14 -34 14 -35z m41 54 c7 -51 3
-70 -13 -70 -10 0 -18 7 -18 15 0 8 5 15 10 15 6 0 10 7 10 16 0 8 -4 12 -10
9 -5 -3 -10 -2 -10 3 0 20 29 31 31 12z"/>
<path d="M3024 1819 l-39 -40 39 3 c22 2 41 9 44 16 3 11 0 12 -16 3 -35 -19
-37 -12 -7 19 16 16 26 32 24 35 -3 2 -23 -14 -45 -36z"/>
<path d="M4967 1812 c-22 -24 -21 -31 1 -28 9 2 18 13 20 24 4 27 0 27 -21 4z"/>
<path d="M2660 1720 c0 -49 1 -50 25 -44 15 4 25 2 25 -5 0 -16 307 -15 312 0
3 9 10 9 26 0 21 -11 22 -10 22 43 l0 55 -205 1 -205 1 0 -51z"/>
<path d="M4580 1719 c0 -49 1 -51 24 -45 14 3 28 2 31 -4 9 -14 305 -13 305 1
0 7 10 9 25 5 24 -6 25 -5 25 44 l0 50 -205 0 -205 0 0 -51z"/>
<path d="M6759 1658 l-34 -43 -3 -237 -3 -238 35 0 35 0 3 280 c2 154 3 280 2
280 0 0 -16 -19 -35 -42z"/>
<path d="M5430 1501 c0 -124 2 -139 18 -143 30 -8 707 -2 720 6 32 19 3 26
-113 26 l-125 0 0 95 0 95 164 0 164 0 11 30 10 30 -425 0 -424 0 0 -139z
m410 39 c0 -6 -62 -10 -165 -10 -103 0 -165 4 -165 10 0 6 62 10 165 10 103 0
165 -4 165 -10z m-7 -125 c-4 -16 -315 -13 -321 3 -3 10 31 12 160 10 102 -2
162 -7 161 -13z"/>
<path d="M7793 1630 c-23 -9 -41 -36 -37 -57 1 -7 2 -20 3 -28 1 -20 58 -47
82 -40 54 18 60 94 8 120 -15 8 -29 15 -31 14 -2 0 -13 -4 -25 -9z"/>
<path d="M6642 1500 c-52 -67 -62 -87 -62 -120 0 -36 -2 -39 -32 -42 -27 -3
-40 -15 -94 -93 -35 -49 -63 -93 -64 -97 0 -5 72 -8 160 -8 l160 0 0 220 c0
121 -2 220 -3 220 -2 0 -32 -36 -65 -80z"/>
<path d="M5949 1568 c-1 -2 -2 -27 -3 -55 l-2 -53 111 -1 c60 0 118 -2 127 -4
20 -4 31 9 46 50 5 17 13 38 17 48 7 16 -4 17 -144 17 -83 0 -151 -1 -152 -2z"/>
<path d="M7595 1504 c-35 -38 -42 -86 -18 -126 26 -44 58 -60 113 -54 59 5
100 49 100 105 l0 39 -81 31 c-44 17 -83 31 -85 31 -3 0 -16 -12 -29 -26z"/>
<path d="M5947 1433 c-20 -19 4 -23 120 -21 90 2 128 7 131 16 3 9 -26 12
-120 12 -69 0 -128 -3 -131 -7z"/>
<path d="M6550 1375 c-10 -12 -10 -15 4 -15 9 0 16 7 16 15 0 8 -2 15 -4 15
-2 0 -9 -7 -16 -15z"/>
<path d="M9141 1254 c0 -11 3 -14 6 -6 3 7 2 16 -1 19 -3 4 -6 -2 -5 -13z"/>
<path d="M9496 1165 c-9 -26 -7 -32 5 -12 6 10 9 21 6 23 -2 3 -7 -2 -11 -11z"/>
<path d="M1980 1095 c0 -33 2 -35 35 -35 33 0 35 2 35 35 0 33 -2 35 -35 35
-33 0 -35 -2 -35 -35z"/>
<path d="M2062 1094 l3 -36 1895 0 c1042 0 1941 0 1997 1 l101 1 10 29 c6 16
8 32 5 35 -4 3 -908 6 -2010 6 l-2004 0 3 -36z"/>
<path d="M6355 1120 c-11 -5 -54 -19 -95 -32 l-75 -23 55 -5 c30 -3 148 -4
263 -2 l207 3 0 34 0 35 -167 -1 c-93 0 -177 -4 -188 -9z"/>
<path d="M6730 1118 c0 -7 -3 -23 -6 -34 -5 -19 -1 -22 30 -26 36 -4 36 -4 36
34 0 36 -2 38 -30 38 -17 0 -30 -5 -30 -12z"/>
<path d="M10960 865 c7 -8 16 -12 21 -9 5 3 9 -3 9 -13 0 -15 2 -16 10 -3 7
11 3 18 -13 27 -30 17 -42 16 -27 -2z"/>
<path d="M10080 826 c0 -2 7 -7 16 -10 8 -3 12 -2 9 4 -6 10 -25 14 -25 6z"/>
<path d="M10211 793 c-10 -26 -10 -27 4 -9 8 11 15 23 15 28 0 15 -7 8 -19
-19z"/>
<path d="M10415 759 c-4 -6 -5 -12 -2 -15 2 -3 7 2 10 11 7 17 1 20 -8 4z"/>
<path d="M10705 717 c-7 -18 -16 -46 -19 -63 -7 -32 -3 -24 24 49 20 53 16 65
-5 14z"/>
<path d="M10495 729 c-4 -6 -5 -12 -2 -15 2 -3 7 2 10 11 7 17 1 20 -8 4z"/>
<path d="M10425 701 c-16 -6 -10 -11 33 -25 28 -10 52 -21 52 -25 0 -4 7 -8
15 -8 8 0 32 -7 55 -16 22 -9 59 -25 82 -34 23 -10 46 -18 51 -18 11 0 27 -27
20 -37 -2 -5 -14 -6 -26 -2 -12 3 -19 4 -16 0 11 -12 139 -54 132 -43 -4 6 0
8 9 4 9 -3 24 1 35 9 17 14 17 14 -4 5 -14 -7 -24 -8 -28 -1 -3 5 -11 10 -16
10 -6 0 -7 -4 -4 -10 3 -5 2 -10 -4 -10 -5 0 -12 4 -15 9 -7 11 22 23 35 15 5
-3 9 -1 9 5 0 5 -5 13 -10 16 -6 4 -7 12 -4 18 5 8 3 8 -7 0 -18 -17 -29 -16
-29 3 0 14 -1 14 -16 0 -14 -14 -34 -14 -34 0 0 3 5 2 12 -2 7 -4 8 -3 4 4 -4
6 -22 14 -41 18 -23 4 -35 12 -36 23 0 9 -3 11 -5 4 -4 -8 -24 -3 -67 14 -34
14 -86 34 -114 45 -29 12 -50 25 -47 29 6 10 6 10 -21 0z m375 -168 c0 -3 -7
-3 -15 0 -8 4 -17 2 -20 -3 -4 -6 -11 -10 -18 -10 -6 0 -2 6 8 14 17 12 45 12
45 -1z"/>
<path d="M10566 685 c-9 -26 -7 -32 5 -12 6 10 9 21 6 23 -2 3 -7 -2 -11 -11z"/>
<path d="M10721 643 c-1 -6 -4 -20 -7 -30 -5 -17 -5 -17 6 0 6 10 9 23 6 30
-3 9 -5 9 -5 0z"/>
<path d="M10842 625 c-17 -37 -14 -45 4 -12 9 16 14 31 11 33 -2 2 -9 -7 -15
-21z"/>
</g>
</svg>
