<?xml version="1.0" standalone="no"?>
<!DOCTYPE svg PUBLIC "-//W3C//DTD SVG 20010904//EN"
 "http://www.w3.org/TR/2001/REC-SVG-20010904/DTD/svg10.dtd">
<svg version="1.0" xmlns="http://www.w3.org/2000/svg"
 width="1280.000000pt" height="720.000000pt" viewBox="0 0 1280.000000 720.000000"
 preserveAspectRatio="xMidYMid meet">

<g transform="translate(0.000000,720.000000) scale(0.100000,-0.100000)"
fill="#000000" stroke="none">
<path d="M4428 6557 l2 -644 -67 -28 c-122 -50 -287 -136 -339 -175 -70 -52
-119 -115 -152 -191 l-27 -64 2 -245 c5 -555 51 -969 153 -1364 111 -433 293
-764 612 -1115 277 -305 811 -687 1083 -776 70 -23 206 -26 272 -7 l42 13 3
518 3 517 28 42 c15 23 45 51 67 62 38 19 57 20 678 20 l639 0 65 138 c107
221 151 343 221 607 48 176 94 439 103 585 l3 55 -8 -46 c-11 -59 -57 -133
-50 -81 4 31 -13 111 -23 109 -18 -4 -21 23 -4 29 13 5 9 10 -16 23 -26 12
-34 23 -36 49 -3 29 -12 37 -36 33 -5 -1 -16 1 -25 5 -14 5 -14 7 2 13 17 6
16 9 -7 43 -16 24 -21 38 -13 41 8 3 5 13 -9 33 -39 55 -39 57 -10 52 14 -3
26 -1 26 3 0 11 -144 12 -253 3 l-77 -7 0 -40 c0 -74 -41 -370 -71 -512 -36
-169 -88 -356 -136 -485 -43 -117 -122 -272 -134 -264 -5 3 -6 -1 -4 -8 3 -8
-1 -22 -9 -33 -15 -20 -15 -20 -16 0 l-1 20 -9 -20 c-12 -29 -12 -37 3 -28 7
4 6 -2 -4 -17 -8 -14 -19 -31 -23 -39 -7 -11 -10 -11 -17 0 -5 8 -9 10 -10 4
-4 -47 -8 -58 -24 -73 -17 -16 -17 -16 -1 8 17 26 21 44 8 36 -4 -2 -14 0 -22
6 -12 8 -12 9 3 4 21 -7 23 10 2 18 -8 3 -15 16 -14 28 0 22 1 22 9 3 7 -15 9
-16 9 -4 1 19 -23 42 -32 32 -4 -3 -7 1 -7 10 0 9 -6 17 -13 17 -12 0 -47 34
-47 46 0 3 8 3 18 0 20 -7 50 10 38 21 -5 4 -11 2 -13 -4 -7 -20 -23 -15 -23
7 0 11 5 20 10 20 6 0 10 9 10 20 0 11 -4 20 -10 20 -5 0 -10 -9 -10 -19 0
-10 -7 -22 -16 -25 -22 -9 -24 -8 -18 8 3 8 0 17 -5 21 -6 3 -8 11 -5 17 5 8
1 9 -10 5 -11 -4 -15 -3 -10 4 3 6 14 9 24 6 10 -2 24 0 31 5 11 7 11 8 -1 6
-8 -1 -25 4 -38 11 -13 7 -30 10 -37 7 -8 -3 -15 -1 -17 3 -3 7 -154 51 -627
183 l-155 44 -1 119 c0 66 -2 392 -3 724 -1 332 -4 602 -6 600 -3 -3 -6 -52
-7 -109 -1 -58 -6 -113 -11 -123 -6 -12 -6 -23 3 -33 8 -10 8 -14 0 -14 -6 0
-14 14 -18 31 -3 19 -15 35 -30 42 -15 7 -19 13 -12 18 8 4 5 13 -10 28 -11
11 -25 21 -29 21 -5 0 -22 17 -38 37 -16 20 -48 56 -71 81 -24 24 -43 48 -43
53 0 5 -7 9 -15 9 -8 0 -15 4 -15 8 0 5 -14 23 -32 41 -22 22 -38 31 -52 27
-22 -5 -53 16 -72 49 -6 11 -22 26 -35 33 -22 12 -21 12 16 7 27 -3 33 -2 20
3 -15 7 -7 10 35 16 165 22 302 36 358 36 l62 0 0 320 -1 320 -48 0 c-309 0
-947 -140 -1343 -295 -17 -7 -18 27 -18 634 0 353 -3 641 -7 641 -5 0 -7 -290
-5 -643z m1397 -357 c-28 -12 -47 -12 -40 0 3 6 18 10 33 9 24 0 25 -1 7 -9z
m-518 -686 c-3 -3 -12 -4 -19 -1 -8 3 -5 6 6 6 11 1 17 -2 13 -5z m2479 -1161
c-8 -15 -15 -25 -16 -21 0 12 23 58 27 54 3 -2 -2 -17 -11 -33z m-996 -1097
c0 -2 -8 -10 -17 -17 -16 -13 -17 -12 -4 4 13 16 21 21 21 13z"/>
<path d="M10975 6670 c0 -294 1 -415 2 -267 2 147 2 387 0 535 -1 147 -2 26
-2 -268z"/>
<path d="M8292 6565 c-96 -42 -146 -113 -146 -209 1 -69 16 -105 66 -153 119
-114 321 -67 367 86 25 86 7 159 -58 221 -68 66 -155 87 -229 55z m182 -29
c118 -69 141 -222 48 -319 -99 -104 -278 -82 -341 41 -47 93 -31 184 44 250
24 21 59 44 77 50 48 16 124 6 172 -22z"/>
<path d="M11454 6507 c-3 -8 -4 -49 -2 -93 l3 -79 98 -3 98 -3 -3 93 -3 93
-93 3 c-71 2 -94 0 -98 -11z m186 -82 l0 -85 -90 0 -90 0 0 85 0 85 90 0 90 0
0 -85z"/>
<path d="M1034 6280 c-25 -10 -34 -37 -23 -68 10 -26 59 -31 79 -8 29 36 -13
93 -56 76z"/>
<path d="M1220 6265 c-6 -8 -10 -20 -7 -27 4 -9 6 -7 6 3 1 21 27 31 55 24 17
-5 18 -4 6 4 -21 15 -46 13 -60 -4z"/>
<path d="M1281 6224 c-7 -17 -17 -24 -26 -20 -8 3 -15 1 -15 -4 0 -15 27 -12
44 6 9 8 16 22 16 30 0 21 -5 17 -19 -12z"/>
<path d="M1149 5836 c-88 -60 -130 -188 -98 -296 18 -61 78 -131 138 -162 96
-50 220 -34 299 40 20 19 31 36 26 43 -4 7 -3 9 4 5 9 -6 40 32 30 38 -44 29
-59 36 -53 25 6 -11 5 -11 -4 -3 -7 6 -13 21 -14 33 -1 13 -8 21 -20 21 -16 0
-18 -5 -13 -33 8 -44 -17 -70 -61 -61 -26 5 -32 2 -38 -15 -5 -16 -15 -21 -41
-21 -22 0 -34 5 -34 14 0 7 -7 19 -15 26 -12 10 -18 10 -30 0 -13 -11 -20 -9
-40 10 -19 18 -22 26 -13 40 15 23 3 50 -22 50 -32 0 -28 57 5 70 26 10 32 29
15 46 -17 17 18 57 46 51 14 -2 21 0 17 6 -4 6 2 8 15 5 17 -5 22 -2 22 13 0
16 -3 18 -19 9 -29 -15 -39 -12 -46 10 -4 11 -11 17 -17 14 -6 -4 -5 -10 3
-15 8 -5 9 -9 3 -9 -6 0 -19 9 -29 20 -14 15 -15 20 -4 17 8 -2 10 -2 6 1 -4
2 0 10 10 18 30 23 10 16 -28 -10z m321 -287 c0 -5 -4 -9 -10 -9 -5 0 -10 7
-10 16 0 8 5 12 10 9 6 -3 10 -10 10 -16z"/>
<path d="M1818 5853 c6 -2 18 -2 25 0 6 3 1 5 -13 5 -14 0 -19 -2 -12 -5z"/>
<path d="M1293 5803 c9 -2 23 -2 30 0 6 3 -1 5 -18 5 -16 0 -22 -2 -12 -5z"/>
<path d="M1747 5628 c-2 -35 -2 -66 2 -70 3 -4 117 -4 252 -1 l246 6 -7 31
c-4 17 -12 41 -19 53 -9 18 -8 24 6 32 13 7 -55 10 -228 11 l-247 0 -5 -62z"/>
<path d="M1251 5624 c-2 -52 50 -80 100 -54 10 6 19 18 19 27 0 12 -4 11 -20
-7 -11 -13 -20 -18 -20 -12 0 7 -5 12 -11 12 -7 0 -18 8 -25 18 -10 13 -12 14
-11 2 4 -31 -18 -20 -24 12 l-6 33 -2 -31z"/>
<path d="M1572 5620 c0 -19 2 -27 5 -17 2 9 2 25 0 35 -3 9 -5 1 -5 -18z"/>
<path d="M9026 5225 c5 -320 13 -397 58 -533 66 -196 252 -421 541 -654 97
-77 280 -200 367 -245 69 -36 78 -38 168 -38 91 0 98 1 165 39 196 108 409
270 580 441 126 126 231 258 219 276 -4 8 -3 9 4 5 6 -4 18 6 27 23 l15 31
-26 -10 c-31 -12 -47 -4 -39 20 3 9 1 29 -4 43 -8 20 -15 24 -32 20 -18 -5
-21 -3 -16 10 4 11 2 14 -9 10 -14 -5 -18 6 -15 37 1 8 -12 -7 -29 -33 -17
-26 -28 -52 -25 -58 4 -5 1 -8 -7 -7 -7 2 -12 -5 -12 -14 1 -10 -1 -16 -5 -15
-4 1 -34 -30 -68 -68 -168 -196 -371 -362 -589 -482 -60 -33 -78 -38 -134 -38
-77 0 -126 21 -271 118 -267 177 -488 400 -587 592 -55 106 -63 157 -77 460
-7 154 -13 267 -15 250 -1 -18 -4 -23 -7 -12 -2 9 -12 17 -22 17 -9 0 -26 6
-36 14 -10 7 -27 11 -37 8 -10 -2 -29 3 -43 12 -19 12 -25 13 -27 4 0 -7 -5 7
-9 32 -4 25 -6 -90 -3 -255z m2004 -570 c14 -18 13 -19 -1 -8 -9 7 -19 10 -23
6 -4 -4 -4 1 0 10 3 10 7 17 8 15 1 -2 8 -12 16 -23z m-2 -70 c-3 -3 -9 2 -12
12 -6 14 -5 15 5 6 7 -7 10 -15 7 -18z m82 -45 c0 -5 -4 -10 -10 -10 -5 0 -10
5 -10 10 0 6 5 10 10 10 6 0 10 -4 10 -10z m35 0 c-3 -5 -11 -10 -16 -10 -6 0
-7 5 -4 10 3 6 11 10 16 10 6 0 7 -4 4 -10z"/>
<path d="M1828 5433 c23 -2 59 -2 80 0 20 2 1 4 -43 4 -44 0 -61 -2 -37 -4z"/>
<path d="M2043 5433 c43 -2 110 -2 150 0 40 1 5 3 -78 3 -82 0 -115 -2 -72 -3z"/>
<path d="M11311 5416 c10 -10 1489 -16 1489 -6 0 7 -244 10 -747 10 -410 0
-744 -2 -742 -4z"/>
<path d="M5725 5210 c-3 -5 -1 -10 4 -10 6 0 11 5 11 10 0 6 -2 10 -4 10 -3 0
-8 -4 -11 -10z"/>
<path d="M9317 5045 c2 -71 9 -152 14 -180 36 -192 262 -456 569 -667 191
-132 255 -151 343 -107 61 32 202 128 290 199 143 115 325 309 311 331 -3 5
-2 8 3 7 4 -2 10 2 12 7 2 6 11 15 20 22 14 11 14 12 -4 13 -16 0 -17 2 -5 10
8 5 11 12 7 16 -4 4 1 13 11 21 9 8 11 12 5 8 -7 -3 -13 -1 -13 6 0 7 -6 4
-14 -6 -13 -18 -14 -17 -9 10 4 24 2 27 -7 15 -9 -12 -10 -10 -4 10 3 14 10
30 15 36 6 7 3 16 -8 25 -16 13 -17 12 -5 -2 10 -14 10 -18 -3 -23 -9 -3 -13
-2 -10 4 15 24 -9 4 -96 -82 -101 -99 -198 -184 -200 -174 -1 3 -2 9 -4 14
-14 51 -18 61 -25 57 -5 -3 -12 5 -15 17 -8 26 -63 78 -82 78 -7 0 -13 7 -13
15 0 10 -10 15 -28 15 -16 0 -34 8 -42 20 -8 11 -25 20 -37 20 -16 0 -21 4
-17 15 6 15 -3 19 -44 15 -12 -1 -25 5 -28 14 -3 9 -24 18 -50 22 -24 3 -56
15 -70 26 -13 11 -41 22 -61 23 -20 2 -39 7 -42 12 -10 13 -49 33 -66 33 -8 0
-15 5 -15 11 0 6 -9 9 -20 6 -13 -3 -18 -1 -13 6 4 6 -1 8 -15 5 -12 -3 -23 0
-26 7 -2 7 -17 15 -33 18 -31 5 -88 24 -117 39 -20 11 -79 21 -111 20 -11 -1
-27 6 -37 15 -12 11 -27 14 -53 9 -19 -4 -35 -3 -35 2 0 8 -30 19 -97 37 -14
4 -23 16 -26 33 -3 15 -3 -31 0 -103z m1180 -500 c0 -8 -4 -12 -9 -9 -5 3 -6
10 -3 15 9 13 12 11 12 -6z m28 -4 c3 -5 2 -12 -3 -15 -5 -3 -9 1 -9 9 0 17 3
19 12 6z"/>
<path d="M11271 4904 c0 -11 3 -14 6 -6 3 7 2 16 -1 19 -3 4 -6 -2 -5 -13z"/>
<path d="M1014 4825 c-15 -23 -15 -27 0 -50 26 -40 86 -26 86 20 0 53 -58 73
-86 30z"/>
<path d="M7852 4815 c0 -16 2 -22 5 -12 2 9 2 23 0 30 -3 6 -5 -1 -5 -18z"/>
<path d="M1285 4791 c-3 -11 -14 -22 -23 -24 -16 -4 -16 -5 0 -6 17 -1 45 36
35 46 -3 2 -8 -5 -12 -16z"/>
<path d="M7843 4745 c0 -22 2 -30 4 -17 2 12 2 30 0 40 -3 9 -5 -1 -4 -23z"/>
<path d="M11042 4755 c-17 -37 -14 -45 4 -12 9 16 14 31 11 33 -2 2 -9 -7 -15
-21z"/>
<path d="M10900 4700 c-6 -11 -8 -20 -6 -20 3 0 10 9 16 20 6 11 8 20 6 20 -3
0 -10 -9 -16 -20z"/>
<path d="M11209 4674 c-5 -15 -8 -29 -5 -31 2 -2 8 10 14 26 13 38 5 41 -9 5z"/>
<path d="M7826 4606 c-4 -48 -5 -90 -3 -93 7 -6 20 140 15 163 -2 10 -7 -21
-12 -70z"/>
<path d="M11176 4593 c-6 -14 -5 -15 5 -6 7 7 10 15 7 18 -3 3 -9 -2 -12 -12z"/>
<path d="M1263 4503 c9 -2 23 -2 30 0 6 3 -1 5 -18 5 -16 0 -22 -2 -12 -5z"/>
<path d="M1740 4483 c0 -16 3 -45 6 -65 l7 -38 391 2 c215 2 304 4 198 5 -178
3 -192 5 -177 20 12 11 15 26 10 49 -6 36 -3 38 70 47 17 2 -90 5 -237 6
l-268 1 0 -27z"/>
<path d="M2288 4503 c7 -3 16 -2 19 1 4 3 -2 6 -13 5 -11 0 -14 -3 -6 -6z"/>
<path d="M1184 4481 c-80 -36 -144 -142 -144 -237 0 -96 69 -203 158 -248 87
-44 206 -25 286 45 27 24 45 47 42 55 -3 7 2 17 10 22 13 7 13 10 -2 23 -11 9
-15 9 -10 2 4 -7 4 -13 -1 -13 -12 0 -69 53 -76 70 -3 8 -6 -11 -6 -42 l-1
-58 -35 0 c-26 0 -35 4 -36 18 0 9 0 64 0 122 1 95 0 103 -14 86 -11 -15 -15
-46 -15 -123 l0 -103 -35 0 -35 0 0 115 c0 113 0 115 23 115 38 0 51 14 32 34
-12 12 -13 16 -3 16 10 0 9 3 -2 10 -9 5 -19 5 -27 -2 -10 -8 -12 -7 -8 3 3 8
-10 33 -30 56 -24 28 -31 43 -23 46 7 3 9 6 3 6 -5 0 -28 -8 -51 -18z m56
-311 l0 -70 -35 0 -35 0 0 70 0 70 35 0 35 0 0 -70z"/>
<path d="M7791 4492 c-1 -8 -6 -10 -13 -6 -10 5 -10 4 -1 -6 15 -16 28 -8 20
12 -4 11 -6 11 -6 0z"/>
<path d="M7761 4463 c0 -4 4 -17 8 -27 6 -15 9 -16 13 -5 3 8 -1 20 -8 27 -8
7 -14 9 -13 5z"/>
<path d="M1750 4190 l0 -70 288 2 c158 1 262 4 232 8 -30 4 -48 8 -40 9 10 1
11 4 4 9 -6 4 -10 19 -10 34 0 16 -9 35 -23 47 l-23 20 143 4 c79 1 -17 4
-213 5 l-358 2 0 -70z"/>
<path d="M11551 3809 c-118 -21 -252 -112 -320 -217 -17 -27 -31 -53 -31 -58
0 -5 19 20 41 55 100 152 284 237 459 212 259 -37 445 -288 402 -539 -14 -83
-8 -94 8 -15 46 220 -100 471 -315 541 -81 27 -169 35 -244 21z"/>
<path d="M8099 3550 c-57 -10 -96 -30 -130 -67 -28 -30 -59 -84 -59 -104 0 -6
13 13 28 42 21 41 40 61 81 86 70 42 121 46 625 41 225 -1 392 0 370 4 -53 9
-858 8 -915 -2z"/>
<path d="M9085 3523 c43 -22 92 -71 106 -105 6 -16 14 -27 16 -24 8 8 -25 61
-59 92 -33 32 -69 54 -85 54 -4 -1 6 -8 22 -17z"/>
<path d="M6795 3519 c-4 -6 -5 -12 -2 -15 2 -3 7 2 10 11 7 17 1 20 -8 4z"/>
<path d="M11176 3469 c-9 -29 -16 -62 -15 -73 0 -12 8 11 19 49 21 83 18 100
-4 24z"/>
<path d="M6851 3424 c0 -11 3 -14 6 -6 3 7 2 16 -1 19 -3 4 -6 -2 -5 -13z"/>
<path d="M6873 3418 c-2 -16 1 -18 10 -9 7 7 8 14 1 21 -6 6 -10 2 -11 -12z"/>
<path d="M9212 3355 c0 -16 2 -22 5 -12 2 9 2 23 0 30 -3 6 -5 -1 -5 -18z"/>
<path d="M7904 3240 c0 -69 1 -97 3 -62 2 34 2 90 0 125 -2 34 -3 6 -3 -63z"/>
<path d="M11151 3324 c0 -11 3 -14 6 -6 3 7 2 16 -1 19 -3 4 -6 -2 -5 -13z"/>
<path d="M11165 3240 c9 -72 66 -180 128 -243 210 -209 554 -188 730 45 36 49
67 108 67 131 0 6 -14 -19 -32 -54 -65 -131 -200 -229 -347 -252 -240 -37
-475 121 -536 359 -14 53 -15 55 -10 14z"/>
<path d="M9212 3145 c0 -16 2 -22 5 -12 2 9 2 23 0 30 -3 6 -5 -1 -5 -18z"/>
<path d="M6242 2994 c-29 -20 -29 -59 2 -79 55 -37 109 41 54 79 -12 9 -25 16
-28 16 -3 0 -16 -7 -28 -16z"/>
<path d="M6452 2988 c-31 -31 6 -96 47 -83 12 3 26 15 32 26 13 26 2 62 -17
55 -9 -3 -12 -1 -9 4 9 14 -39 12 -53 -2z"/>
<path d="M3120 2823 c-19 -2 -69 -11 -110 -19 -67 -15 -72 -18 -50 -27 l25
-10 -25 -7 c-14 -3 -34 -2 -46 3 -44 19 -238 -85 -352 -187 -30 -28 -49 -53
-45 -59 3 -7 3 -9 -2 -5 -11 10 -37 -11 -29 -23 3 -5 2 -8 -3 -7 -5 2 -23 -13
-41 -33 -32 -37 -41 -56 -20 -43 7 4 8 3 4 -5 -4 -6 -11 -9 -16 -6 -5 3 -29
-21 -54 -54 -47 -61 -56 -78 -33 -65 7 4 9 3 4 -2 -5 -5 -12 -9 -15 -9 -4 0
-42 -36 -84 -81 -86 -90 -157 -134 -259 -160 -52 -14 -92 -15 -215 -10 -115 5
-172 2 -239 -9 -109 -19 -221 -57 -217 -74 1 -7 -2 -10 -7 -7 -14 9 -42 -5
-34 -17 3 -6 1 -7 -6 -3 -17 11 -128 -82 -182 -151 -82 -103 -173 -291 -186
-380 -5 -38 -3 -43 13 -43 15 0 23 15 38 66 41 142 132 299 230 394 148 144
320 198 592 185 160 -7 273 7 253 31 -13 16 2 19 17 4 13 -13 77 8 67 23 -3 6
-1 7 5 3 31 -19 166 105 272 249 40 55 89 116 108 137 19 20 32 41 28 46 -3 5
2 16 12 23 16 13 16 12 3 -6 -8 -11 10 3 40 31 29 28 68 62 86 76 18 14 29 29
25 33 -4 5 -1 5 6 1 16 -9 44 12 35 27 -3 6 -1 7 5 3 6 -3 44 10 84 30 85 43
83 42 74 51 -4 4 -11 1 -16 -7 -5 -8 -21 -15 -37 -16 -15 -1 -32 -3 -38 -3 -5
-1 -4 -5 3 -9 9 -6 5 -12 -15 -20 -26 -11 -27 -11 -9 3 11 8 16 15 11 15 -19
0 12 19 62 39 36 14 52 17 50 8 -3 -16 22 -14 118 11 44 12 121 24 170 28 60
5 83 10 70 15 -16 6 -13 8 15 10 34 1 34 2 -10 10 -47 8 -71 8 -130 2z m-100
-47 c-4 -4 -16 -4 -26 2 -16 9 -14 10 8 9 15 -1 23 -6 18 -11z m-280 -96 c0
-5 -8 -10 -17 -10 -15 0 -16 2 -3 10 19 12 20 12 20 0z m-36 -26 c4 -11 2 -15
-7 -11 -15 6 -42 -8 -42 -21 0 -5 -29 -35 -65 -67 -36 -33 -53 -46 -37 -29 30
34 36 54 9 33 -10 -8 0 2 23 23 27 25 42 33 47 25 7 -12 9 -10 12 14 1 8 43
47 52 49 1 0 5 -7 8 -16z m-244 -208 c0 -2 -8 -10 -17 -17 -16 -13 -17 -12 -4
4 13 16 21 21 21 13z m-59 -104 c-6 -9 -20 -28 -33 -42 -13 -14 -20 -21 -15
-16 14 19 7 28 -10 15 -17 -13 -17 -12 -3 6 30 42 53 64 61 59 5 -3 5 -13 0
-22z m-229 -239 c-6 -3 -10 -9 -7 -13 8 -12 -35 -40 -51 -33 -10 3 -2 14 23
33 21 15 40 25 43 22 3 -2 -1 -7 -8 -9z m-94 -57 c-10 -7 -15 -16 -11 -20 4
-4 -1 -4 -11 0 -14 5 -17 4 -12 -4 8 -13 -6 -17 -18 -5 -4 4 8 15 26 25 39 21
50 22 26 4z m-348 -52 c0 -2 -15 -4 -32 -4 -23 0 -29 3 -19 9 12 8 51 4 51 -5z"/>
<path d="M2599 2583 c-13 -16 -12 -17 4 -4 16 13 21 21 13 21 -2 0 -10 -8 -17
-17z"/>
<path d="M2383 2348 c-20 -26 -26 -41 -15 -34 12 7 36 46 29 46 -3 0 -9 -6
-14 -12z"/>
<path d="M3318 2813 c12 -2 32 -2 45 0 12 2 2 4 -23 4 -25 0 -35 -2 -22 -4z"/>
<path d="M3516 2797 c3 -10 9 -15 12 -12 3 3 0 11 -7 18 -10 9 -11 8 -5 -6z"/>
<path d="M3293 2783 c15 -2 39 -2 55 0 15 2 2 4 -28 4 -30 0 -43 -2 -27 -4z"/>
<path d="M3501 2740 c-13 -11 -19 -20 -14 -20 6 0 18 9 28 20 23 25 17 25 -14
0z"/>
<path d="M7995 2590 c10 -11 20 -20 23 -20 3 0 -3 9 -13 20 -10 11 -20 20 -23
20 -3 0 3 -9 13 -20z"/>
<path d="M8045 2540 c10 -11 20 -20 23 -20 3 0 -3 9 -13 20 -10 11 -20 20 -23
20 -3 0 3 -9 13 -20z"/>
<path d="M9059 2523 c-13 -16 -12 -17 4 -4 16 13 21 21 13 21 -2 0 -10 -8 -17
-17z"/>
<path d="M8080 2515 c0 -7 61 -37 66 -33 2 3 -12 12 -31 21 -19 9 -35 15 -35
12z"/>
<path d="M9020 2500 c-9 -6 -10 -10 -3 -10 6 0 15 5 18 10 8 12 4 12 -15 0z"/>
<path d="M8958 2473 c7 -3 16 -2 19 1 4 3 -2 6 -13 5 -11 0 -14 -3 -6 -6z"/>
<path d="M8378 2463 c106 -2 277 -2 380 0 103 1 16 2 -193 2 -209 0 -293 -1
-187 -2z"/>
<path d="M6935 2255 c-14 -13 -25 -36 -25 -50 0 -14 11 -37 25 -50 l24 -25
416 0 c275 0 414 3 410 10 -3 6 -14 10 -24 10 -10 0 -18 7 -18 15 0 8 4 12 8
10 4 -3 9 15 11 40 3 44 2 45 -27 47 -16 1 38 5 120 8 86 3 -71 7 -373 8
l-523 2 -24 -25z"/>
<path d="M6610 2085 l0 -135 30 0 30 0 0 135 0 135 -30 0 -30 0 0 -135z"/>
<path d="M6510 2045 l0 -95 30 0 30 0 0 95 0 95 -30 0 -30 0 0 -95z"/>
<path d="M6410 2005 l0 -55 35 0 35 0 0 55 0 55 -35 0 -35 0 0 -55z"/>
<path d="M6931 2004 c-26 -34 -27 -68 -1 -94 19 -19 32 -20 293 -19 149 1 262
4 250 6 -13 2 -23 7 -24 11 0 4 -2 28 -4 55 -3 51 -3 51 70 60 17 2 -104 5
-267 6 l-297 1 -20 -26z"/>
<path d="M10692 1941 c-199 -50 -359 -185 -448 -374 -13 -29 -24 -59 -24 -67
0 -8 13 15 29 51 75 176 211 301 396 365 68 23 97 27 190 28 122 0 182 -14
294 -67 89 -43 224 -176 271 -269 19 -37 36 -65 38 -63 2 1 -9 27 -24 56 -79
156 -204 265 -374 325 -100 36 -243 42 -348 15z"/>
<path d="M2893 1820 c-65 -39 -63 -24 -63 -610 l0 -530 43 1 c28 1 33 3 15 6
-14 2 -29 11 -32 19 -3 8 -2 13 2 11 4 -3 8 54 8 126 1 73 4 161 8 197 15 169
17 242 9 237 -12 -8 -7 120 6 170 6 21 14 99 17 173 5 105 10 138 22 148 11 9
12 12 3 12 -10 0 -11 3 -2 14 9 11 9 16 -1 23 -8 5 5 10 37 14 l50 6 -45 1
c-29 1 -56 -5 -77 -18z m32 -10 c4 -6 -1 -7 -11 -3 -14 5 -15 3 -5 -18 11 -22
11 -23 -3 -5 -15 19 -13 36 4 36 5 0 12 -4 15 -10z"/>
<path d="M10735 1771 c-51 -23 -119 -96 -135 -147 -8 -21 -14 -68 -14 -104
l-1 -65 35 0 35 0 5 70 c6 83 27 126 78 160 52 34 112 42 167 21 81 -31 125
-105 125 -208 l0 -48 35 0 35 0 0 58 c0 172 -102 282 -260 282 -41 0 -79 -7
-105 -19z"/>
<path d="M6954 1676 c-78 -35 -49 -131 41 -137 88 -6 627 4 590 11 -22 4 -31
8 -20 9 17 1 18 3 5 11 -10 6 -11 10 -2 10 6 0 12 9 12 20 0 12 -7 20 -16 20
-10 0 -14 7 -12 23 2 16 12 24 38 28 19 4 -73 7 -205 8 -132 1 -276 3 -320 6
-57 4 -89 2 -111 -9z"/>
<path d="M11441 1525 c1 -19 18 -51 18 -35 0 8 -4 22 -9 30 -5 8 -9 11 -9 5z"/>
<path d="M10211 1464 c0 -11 3 -14 6 -6 3 7 2 16 -1 19 -3 4 -6 -2 -5 -13z"/>
<path d="M11468 1430 c13 -80 6 -231 -13 -300 -28 -101 -83 -198 -157 -275
-120 -127 -244 -183 -423 -192 -94 -5 -122 -2 -190 16 -163 45 -291 137 -385
277 -74 112 -95 188 -95 352 0 94 -2 122 -8 95 -14 -62 -2 -231 22 -303 61
-191 223 -353 421 -421 88 -30 257 -37 354 -15 210 49 386 212 459 425 27 77
30 99 30 211 1 75 -4 135 -11 150 -10 21 -10 19 -4 -20z"/>
<path d="M6953 1440 c-47 -19 -56 -78 -18 -115 l24 -25 363 2 c280 2 325 4
198 8 -91 3 -145 7 -120 8 25 1 40 6 35 10 -6 4 -10 18 -8 32 1 14 -3 37 -8
51 -9 23 -17 27 -71 33 -88 9 -369 6 -395 -4z"/>
<path d="M10801 1326 c-54 -30 -64 -89 -25 -136 27 -31 28 -55 7 -137 -5 -22
-2 -23 56 -23 34 0 61 4 61 8 0 5 -5 34 -11 66 -10 54 -9 58 15 87 15 17 26
43 26 59 0 61 -77 106 -129 76z"/>
</g>
</svg>
