<?xml version="1.0" standalone="no"?>
<!DOCTYPE svg PUBLIC "-//W3C//DTD SVG 20010904//EN"
 "http://www.w3.org/TR/2001/REC-SVG-20010904/DTD/svg10.dtd">
<svg version="1.0" xmlns="http://www.w3.org/2000/svg"
 width="1280.000000pt" height="720.000000pt" viewBox="0 0 1280.000000 720.000000"
 preserveAspectRatio="xMidYMid meet">

<g transform="translate(0.000000,720.000000) scale(0.100000,-0.100000)"
fill="#000000" stroke="none">
<path d="M8788 5856 c-66 -18 -112 -57 -151 -129 -131 -237 -332 -603 -496
-898 -212 -383 -219 -401 -187 -497 21 -61 93 -132 154 -150 29 -9 230 -12
753 -12 671 0 716 2 754 19 103 47 163 167 135 270 -15 58 -703 1297 -743
1338 -55 59 -137 81 -219 59z m125 -138 c21 -20 160 -266 639 -1135 82 -149
90 -180 63 -233 -32 -62 -7 -60 -765 -60 -746 0 -727 -1 -764 52 -24 33 -19
92 10 151 15 29 72 133 127 232 56 99 119 214 142 255 23 41 109 197 192 345
83 149 162 293 176 322 15 28 38 60 53 72 36 29 95 28 127 -1z"/>
<path d="M8784 5367 c-25 -22 -27 -28 -25 -108 2 -119 21 -441 27 -460 2 -9
18 -22 35 -29 37 -16 75 -2 88 32 9 21 32 389 31 494 0 85 -92 126 -156 71z"/>
<path d="M8792 4663 c-90 -44 -79 -185 17 -214 50 -15 86 -6 122 31 52 52 34
151 -35 184 -42 20 -62 20 -104 -1z"/>
<path d="M6621 4750 c0 -8 6 -28 14 -45 17 -39 18 -21 0 25 -7 19 -14 28 -14
20z"/>
<path d="M6656 4617 c3 -10 9 -15 12 -12 3 3 0 11 -7 18 -10 9 -11 8 -5 -6z"/>
<path d="M6671 4574 c0 -11 3 -14 6 -6 3 7 2 16 -1 19 -3 4 -6 -2 -5 -13z"/>
<path d="M6694 4461 c-1 -34 3 -61 8 -61 5 0 6 -5 3 -10 -4 -6 -10 -8 -15 -5
-5 3 -14 -3 -19 -14 -13 -24 -14 -42 -1 -21 13 22 23 5 16 -27 -5 -16 -10 -22
-14 -16 -5 8 -13 9 -22 3 -10 -7 -11 -10 -2 -10 25 0 11 -18 -19 -24 -21 -4
-29 -10 -26 -20 7 -18 -23 -30 -37 -15 -8 9 -7 10 7 6 11 -4 17 -1 17 9 0 12
-4 12 -20 4 -11 -6 -17 -16 -14 -25 4 -8 1 -15 -5 -15 -6 0 -12 -17 -12 -37
-1 -38 -1 -38 -9 -8 -8 30 -8 30 -9 3 -1 -20 -5 -25 -19 -21 -10 2 -24 -3 -32
-12 -16 -20 -5 -32 15 -15 10 8 15 9 15 1 0 -6 -4 -11 -8 -11 -5 0 -14 -12
-20 -26 -7 -14 -8 -23 -2 -19 5 3 10 1 10 -4 0 -6 -7 -11 -15 -11 -12 0 -14
-7 -9 -27 4 -16 11 -29 16 -31 14 -6 9 -22 -7 -22 -8 0 -15 7 -15 15 0 8 -7
15 -16 15 -8 0 -12 -4 -9 -10 3 -5 1 -19 -6 -31 -9 -17 -13 -19 -20 -8 -6 9
-9 10 -9 2 0 -7 6 -16 14 -20 12 -7 11 -10 -2 -23 -14 -13 -15 -12 -9 3 9 24
-15 22 -30 -2 -10 -16 -9 -20 5 -24 11 -3 8 -5 -8 -6 l-26 -1 -3 127 c-1 70
-4 130 -7 132 -2 2 -4 -274 -4 -615 0 -680 2 -709 59 -810 l30 -53 -34 -85
c-47 -117 -74 -169 -144 -273 -156 -233 -429 -433 -681 -498 l-61 -16 -21 27
c-35 44 -71 73 -118 97 -42 21 -58 22 -260 22 -205 0 -217 -1 -258 -23 -66
-35 -119 -88 -149 -150 -24 -48 -28 -69 -28 -137 1 -121 51 -211 148 -268 62
-36 133 -46 322 -43 186 3 223 11 294 72 40 33 91 110 91 136 0 12 13 21 43
28 449 118 774 380 994 800 27 52 55 110 61 129 9 26 16 32 29 26 10 -4 55 -9
99 -12 186 -13 351 85 433 257 l36 75 3 368 c3 413 0 439 -64 557 -38 68 -72
114 -163 215 -29 33 -69 84 -89 112 -19 29 -39 50 -45 46 -6 -3 -7 -1 -3 5 9
15 -11 52 -27 49 -7 -1 -12 7 -12 18 0 29 -26 86 -36 79 -5 -3 -7 1 -4 8 2 7
-13 62 -34 121 l-37 109 0 -61z m40 -113 c-3 -4 -9 -8 -15 -8 -5 0 -9 4 -9 8
0 5 7 9 15 9 8 0 12 -4 9 -9z m-280 -410 c7 -5 4 -8 -6 -8 -12 0 -18 7 -17 23
0 15 2 17 6 7 3 -8 11 -18 17 -22z m33 0 c-3 -8 -6 -5 -6 6 -1 11 2 17 5 13 3
-3 4 -12 1 -19z m-77 -58 c0 -5 -5 -10 -11 -10 -5 0 -7 5 -4 10 3 6 8 10 11
10 2 0 4 -4 4 -10z m-60 -15 c0 -8 -2 -15 -4 -15 -2 0 -6 7 -10 15 -3 8 -1 15
4 15 6 0 10 -7 10 -15z"/>
<path d="M6600 4312 c0 -5 7 -9 15 -9 8 0 15 4 15 9 0 4 -7 8 -15 8 -8 0 -15
-4 -15 -8z"/>
<path d="M6501 4214 c0 -11 3 -14 6 -6 3 7 2 16 -1 19 -3 4 -6 -2 -5 -13z"/>
<path d="M6426 4044 c-8 -21 -8 -21 8 -21 8 0 11 8 8 19 -5 22 -8 23 -16 2z"/>
<path d="M6390 4020 c-8 -5 -12 -12 -9 -15 4 -3 12 1 19 10 14 17 11 19 -10 5z"/>
<path d="M3169 3933 l-34 -38 38 34 c20 19 37 36 37 38 0 8 -8 0 -41 -34z"/>
<path d="M6350 3959 c0 -5 5 -7 10 -4 6 3 10 8 10 11 0 2 -4 4 -10 4 -5 0 -10
-5 -10 -11z"/>
<path d="M3114 3868 l-19 -23 23 19 c12 11 22 21 22 23 0 8 -8 2 -26 -19z"/>
<path d="M3045 3767 c-23 -41 -36 -80 -15 -47 8 13 10 13 10 -2 0 -9 6 -19 13
-21 9 -4 9 -6 -1 -6 -7 -1 -10 -5 -7 -11 3 -5 1 -10 -5 -10 -7 0 -10 6 -7 13
3 8 -1 14 -9 14 -8 0 -21 -22 -31 -51 -13 -42 -17 -110 -21 -379 -2 -221 0
-350 8 -395 32 -186 166 -323 355 -362 33 -7 105 -26 160 -41 121 -34 230 -58
308 -68 l57 -7 -1 125 c-1 69 -4 110 -8 91 -4 -25 -12 -36 -26 -37 l-20 -3 20
9 c17 8 18 10 3 10 -10 1 -18 8 -18 16 0 8 -9 15 -20 15 -11 0 -20 5 -20 11 0
5 5 7 12 3 7 -5 8 -3 4 5 -5 7 -14 10 -21 7 -8 -3 0 16 16 42 16 26 41 82 54
125 24 76 25 85 24 400 0 177 -4 331 -9 342 -7 17 -9 17 -9 3 -1 -10 -7 -18
-15 -18 -8 0 -18 -5 -22 -12 -5 -8 0 -9 14 -6 12 4 22 3 22 -2 0 -14 -46 -17
-59 -3 -7 7 -16 11 -22 8 -5 -4 -9 6 -10 22 0 24 -1 25 -9 8 -6 -17 -8 -14
-12 15 l-5 35 -1 -32 c-2 -25 -6 -31 -22 -30 -25 2 -27 17 -2 18 15 0 15 1 -2
8 -17 7 -17 8 -2 24 17 17 10 24 -9 9 -13 -9 -16 -92 -3 -92 5 0 6 6 2 13 -5
9 -4 9 6 0 7 -6 9 -16 6 -22 -12 -18 -46 7 -46 33 0 26 -26 54 -38 41 -4 -4
-1 -10 6 -12 6 -3 12 -18 12 -34 0 -25 -2 -28 -14 -17 -7 7 -11 19 -8 27 3 9
1 12 -5 8 -6 -4 -19 -4 -30 0 -16 6 -15 8 7 14 23 6 23 7 -7 8 -18 1 -33 -3
-33 -9 0 -5 -4 -10 -10 -10 -14 0 -12 27 3 34 6 3 1 3 -13 0 -23 -5 -24 -4 -7
9 23 19 22 30 -3 15 -11 -7 -20 -20 -20 -28 0 -9 -9 -16 -20 -16 -25 0 -26 13
-2 19 13 4 12 5 -4 6 -12 0 -25 -7 -28 -16 -6 -15 -8 -15 -16 -3 -6 8 -10 22
-10 30 0 12 2 12 9 2 7 -11 10 -10 15 3 9 24 8 24 -15 20 -16 -3 -19 0 -14 18
6 22 6 22 -8 -1 -7 -12 -16 -19 -21 -15 -4 4 -4 0 0 -10 3 -9 10 -14 15 -11 5
3 9 -2 9 -12 0 -11 -6 -15 -19 -11 -15 4 -18 1 -13 -12 5 -14 3 -14 -11 -3 -8
8 -13 21 -10 30 3 10 -3 7 -15 -8 -12 -14 -24 -21 -29 -17 -4 5 -1 13 7 18 12
9 10 10 -7 6 -15 -3 -20 -1 -16 9 3 9 -1 14 -12 14 -12 0 -15 -5 -10 -20 5
-15 3 -18 -9 -14 -9 3 -13 11 -10 16 6 9 -11 6 -56 -10 -11 -5 -11 -2 3 12 19
19 23 31 7 21 -12 -8 -13 1 -1 23 6 12 5 24 -5 37 -8 10 -14 15 -15 9 0 -5 -4
0 -9 11 -7 15 -9 10 -9 -22 -1 -31 -5 -43 -16 -43 -8 0 -15 5 -15 10 0 6 5 10
10 10 6 0 10 4 10 10 0 5 -7 7 -15 4 -9 -4 -15 0 -15 10 0 10 6 13 15 10 8 -4
15 -1 15 7 0 7 -3 9 -7 6 -3 -4 -12 1 -20 11 -14 16 -14 16 -9 0 8 -26 -9 -22
-28 7 -9 14 -21 23 -27 19 -6 -4 -6 -11 2 -20 7 -8 7 -14 1 -14 -16 0 -22 28
-7 40 10 8 17 7 28 -5 9 -8 18 -11 21 -7 3 5 -6 14 -20 20 -21 10 -23 15 -14
32 21 39 1 20 -25 -23z m60 -87 c-3 -5 -12 -10 -18 -10 -7 0 -6 4 3 10 19 12
23 12 15 0z m-88 -22 c-3 -8 -6 -5 -6 6 -1 11 2 17 5 13 3 -3 4 -12 1 -19z
m160 0 c-3 -8 -6 -5 -6 6 -1 11 2 17 5 13 3 -3 4 -12 1 -19z m-57 2 c0 -5 -10
-10 -22 -9 -22 0 -22 1 -3 9 11 5 21 9 23 9 1 1 2 -3 2 -9z m230 -100 c0 -5
-4 -10 -10 -10 -5 0 -10 5 -10 10 0 6 5 10 10 10 6 0 10 -4 10 -10z m43 -10
c3 -11 1 -18 -4 -14 -5 3 -9 12 -9 20 0 20 7 17 13 -6z m167 -15 c0 -2 -18 -5
-40 -7 -39 -3 -57 7 -22 14 17 4 62 -2 62 -7z m-110 -5 c12 -8 9 -10 -12 -10
-16 0 -28 5 -28 10 0 13 20 13 40 0z m290 -26 c0 -14 -3 -14 -15 -4 -8 7 -15
14 -15 16 0 2 7 4 15 4 8 0 15 -7 15 -16z m-266 -3 c3 -5 -3 -11 -14 -14 -20
-5 -26 3 -13 16 9 10 21 9 27 -2z m325 -24 c-2 -1 -12 -9 -22 -16 -15 -12 -17
-12 -11 3 3 9 13 16 22 16 8 0 13 -1 11 -3z m-24 -875 c-3 -3 -11 0 -18 7 -9
10 -8 11 6 5 10 -3 15 -9 12 -12z"/>
<path d="M7626 3794 c-14 -14 -16 -141 -16 -1248 0 -945 3 -1235 12 -1244 17
-17 2099 -17 2116 0 9 9 12 243 12 992 l0 981 -267 268 -267 267 -787 0 c-703
0 -789 -2 -803 -16z m1771 -336 l233 -233 0 -907 0 -908 -950 0 -950 0 0 1140
0 1140 717 0 718 0 232 -232z"/>
<path d="M7936 3444 c-9 -24 -7 -437 2 -452 7 -9 61 -12 238 -10 l229 3 5 100
c3 55 3 131 0 170 l-5 70 -103 -122 c-57 -67 -112 -125 -123 -128 -24 -8 -58
16 -127 89 -56 59 -60 78 -24 119 24 27 50 20 90 -24 l38 -40 84 97 c47 54 93
109 103 121 l18 23 -209 0 c-182 0 -211 -2 -216 -16z"/>
<path d="M7942 2758 c-9 -9 -12 -73 -12 -228 0 -155 3 -219 12 -228 9 -9 75
-12 235 -12 202 0 223 2 231 18 11 22 16 332 5 331 -4 0 -53 -53 -108 -118
-116 -137 -127 -146 -157 -130 -30 16 -148 135 -148 149 0 16 21 53 34 62 23
16 52 7 89 -29 l38 -38 40 45 c21 25 66 78 100 118 l60 72 -203 0 c-145 0
-207 -3 -216 -12z"/>
<path d="M8404 2128 l-19 -23 23 19 c12 11 22 21 22 23 0 8 -8 2 -26 -19z"/>
<path d="M3170 3750 c-13 -8 -12 -10 3 -10 9 0 17 5 17 10 0 12 -1 12 -20 0z"/>
<path d="M3853 3705 c0 -33 2 -45 4 -27 2 18 2 45 0 60 -2 15 -4 0 -4 -33z"/>
<path d="M3340 3650 c0 -5 4 -10 9 -10 6 0 13 5 16 10 3 6 -1 10 -9 10 -9 0
-16 -4 -16 -10z"/>
<path d="M3430 3650 c-9 -6 -10 -10 -3 -10 6 0 15 5 18 10 8 12 4 12 -15 0z"/>
<path d="M3221 3634 c0 -11 3 -14 6 -6 3 7 2 16 -1 19 -3 4 -6 -2 -5 -13z"/>
<path d="M3240 3638 c0 -4 7 -8 15 -8 8 0 15 4 15 8 0 5 -7 9 -15 9 -8 0 -15
-4 -15 -9z"/>
<path d="M3450 3620 c-6 -11 -7 -20 -2 -20 10 0 32 21 32 32 0 16 -19 8 -30
-12z"/>
<path d="M3735 3610 c3 -5 8 -10 11 -10 2 0 4 5 4 10 0 6 -5 10 -11 10 -5 0
-7 -4 -4 -10z"/>
<path d="M3767 3599 c7 -7 15 -10 18 -7 3 3 -2 9 -12 12 -14 6 -15 5 -6 -5z"/>
<path d="M3558 3583 c7 -3 16 -2 19 1 4 3 -2 6 -13 5 -11 0 -14 -3 -6 -6z"/>
<path d="M3772 3567 c-12 -14 2 -47 15 -34 4 5 1 12 -6 16 -11 7 -11 9 0 13 8
3 11 8 8 12 -3 4 -11 1 -17 -7z"/>
</g>
</svg>
