<?xml version="1.0" standalone="no"?>
<!DOCTYPE svg PUBLIC "-//W3C//DTD SVG 20010904//EN"
 "http://www.w3.org/TR/2001/REC-SVG-20010904/DTD/svg10.dtd">
<svg version="1.0" xmlns="http://www.w3.org/2000/svg"
 width="1280.000000pt" height="720.000000pt" viewBox="0 0 1280.000000 720.000000"
 preserveAspectRatio="xMidYMid meet">

<g transform="translate(0.000000,720.000000) scale(0.100000,-0.100000)"
fill="#000000" stroke="none">
<path d="M6387 6034 c-4 -4 -7 -1105 -7 -2446 0 -2432 0 -2438 20 -2438 20 0
20 5 18 2442 -2 1712 -6 2442 -14 2445 -5 2 -13 0 -17 -3z"/>
<path d="M4240 5500 c0 -20 5 -20 162 -18 146 3 163 5 166 21 3 16 -10 17
-162 17 -160 0 -166 -1 -166 -20z"/>
<path d="M3920 5162 c-116 -2 -166 -6 -172 -15 -4 -6 -8 -200 -8 -429 l0 -418
-300 0 -300 0 0 -360 0 -360 1234 0 c1116 0 1234 2 1240 16 8 21 8 564 0 643
l-7 61 -258 0 -259 0 0 430 c0 237 -3 431 -7 431 -17 3 -1010 4 -1163 1z
m1130 -447 l0 -415 -635 0 -635 0 0 415 0 415 635 0 635 0 0 -415z m-1531
-767 l320 -323 -42 -3 -41 -3 -293 293 c-231 232 -293 298 -293 319 0 26 7 39
21 39 4 0 152 -145 328 -322z m292 -3 l314 -320 -44 -3 c-23 -2 -44 -2 -45 0
0 2 -140 145 -311 317 -290 294 -308 315 -285 322 14 4 32 7 41 6 9 -1 158
-146 330 -322z m144 3 l318 -323 -44 -3 -44 -4 -312 319 c-172 175 -313 320
-313 324 0 3 17 6 39 7 38 3 41 0 356 -320z m91 51 c143 -145 285 -290 314
-321 l53 -58 -43 0 -43 0 -311 316 c-171 174 -312 319 -314 323 -1 3 17 6 40
5 43 -1 46 -4 304 -265z m178 -36 c166 -168 307 -315 314 -325 13 -18 12 -19
-30 -16 -42 3 -48 8 -350 317 -170 173 -308 318 -308 322 0 5 17 9 37 9 35 0
51 -15 337 -307z m1351 -20 l0 -318 -481 -3 -482 -2 -298 305 c-163 168 -304
314 -312 326 l-14 20 794 -5 793 -6 0 -317z m-1904 0 l313 -318 -44 -3 -44 -3
-110 113 c-61 62 -202 206 -315 321 l-205 207 46 0 46 0 313 -317z m-233 -56
c138 -138 252 -255 252 -260 0 -4 -17 -7 -38 -7 -36 0 -48 10 -258 220 -205
206 -219 223 -222 260 -2 22 1 40 5 40 4 0 122 -114 261 -253z m69 -265 l-44
-3 -146 148 c-145 146 -147 149 -147 193 l0 45 190 -190 190 -190 -43 -3z
m-107 3 c0 -3 -19 -5 -42 -5 -41 0 -47 5 -115 79 -67 73 -73 83 -73 123 l1 43
114 -117 c63 -65 115 -120 115 -123z m-140 -2 c0 -2 -20 -3 -45 -3 l-45 0 0
47 0 47 45 -44 c25 -24 45 -45 45 -47z"/>
<path d="M3904 4777 c-3 -8 -4 -49 -2 -93 l3 -79 490 0 c270 0 498 4 508 8 14
6 17 21 17 77 0 37 -3 75 -6 84 -5 14 -59 16 -505 16 -408 0 -501 -2 -505 -13z
m974 -81 l3 -56 -471 0 -470 0 0 58 0 57 467 -2 468 -1 3 -56z"/>
<path d="M6688 5079 c-17 -9 -18 -90 -18 -1472 0 -804 4 -1468 8 -1474 6 -10
326 -13 1522 -13 833 0 1517 3 1522 8 4 4 7 672 6 1483 l-3 1474 -1510 2
c-1003 2 -1516 -1 -1527 -8z m3002 -1479 l0 -1450 -1487 3 -1488 2 -3 1448 -2
1447 1490 0 1490 0 0 -1450z"/>
<path d="M6937 4794 c-9 -10 -8 -1957 1 -1972 7 -10 267 -12 1268 -10 1111 3
1259 5 1259 18 0 13 -52 16 -390 20 l-390 5 -5 420 -5 420 -180 0 -180 0 -3
-422 -2 -423 -75 0 -75 0 -2 678 -3 677 -182 3 -183 2 0 -680 0 -680 -74 0
-73 0 -5 58 c-3 31 -4 435 -2 897 2 462 1 875 -2 918 l-6 77 -178 0 c-163 0
-179 -2 -184 -18 -3 -10 -6 -265 -5 -567 1 -303 1 -733 0 -957 l-1 -408 -145
0 -145 0 0 975 c0 806 -2 975 -13 975 -8 0 -17 -3 -20 -6z m663 -989 l0 -955
-150 0 -150 0 0 955 0 955 150 0 149 0 1 -955z m520 -290 l0 -665 -150 0 -150
0 0 658 c0 362 3 662 7 665 3 4 71 7 149 7 l143 0 1 -665z m520 133 c0 -5 0
-186 0 -403 l0 -395 -145 0 -145 0 0 405 0 406 145 -3 c80 -2 145 -6 145 -10z"/>
<path d="M6939 2558 c-10 -19 -6 -154 5 -166 4 -3 589 -4 2219 -2 l308 0 -3
93 -3 92 -1257 3 -1257 2 -12 -22z m2491 -78 l0 -59 -1230 -1 -1230 0 0 60 0
60 1230 0 1230 0 0 -60z"/>
<path d="M5557 4953 c-4 -3 -7 -44 -7 -89 l0 -83 -87 -3 c-74 -3 -88 -6 -91
-20 -3 -16 6 -18 87 -18 l91 0 0 -94 c0 -71 3 -95 14 -99 23 -9 26 2 26 100
l0 93 84 0 c78 0 110 10 91 28 -3 3 -43 7 -88 7 l-82 0 -3 93 c-2 67 -6 92
-16 92 -7 0 -16 -3 -19 -7z"/>
<path d="M3020 4845 c0 -13 27 -15 180 -15 99 0 183 -1 187 -2 4 -2 9 5 11 15
3 16 -11 17 -187 17 -163 0 -191 -2 -191 -15z"/>
<path d="M3020 4685 c0 -23 33 -26 210 -23 148 3 165 5 168 21 3 16 -11 17
-187 17 -162 0 -191 -2 -191 -15z"/>
<path d="M3753 3453 c-10 -4 -13 -101 -13 -439 l0 -434 -95 0 c-88 0 -95 -1
-95 -20 0 -19 7 -20 180 -20 l179 0 6 -37 c10 -66 44 -162 71 -205 122 -193
372 -286 576 -214 182 64 311 222 343 418 l6 38 182 2 c154 3 182 5 182 18 0
12 -18 16 -92 18 l-93 3 0 419 0 420 327 2 c303 3 328 4 331 21 3 16 -49 17
-990 16 -546 0 -999 -3 -1005 -6z m1297 -453 l0 -420 -69 0 -69 0 -7 43 c-26
170 -128 311 -277 385 -87 43 -155 56 -261 49 -78 -4 -98 -9 -172 -46 -62 -31
-97 -57 -143 -105 -81 -87 -108 -147 -138 -303 -4 -21 -10 -23 -69 -23 l-65 0
0 420 0 420 635 0 635 0 0 -420z m-466 -15 c87 -36 180 -120 225 -205 121
-227 37 -506 -188 -624 -125 -65 -249 -71 -393 -16 -79 29 -187 131 -227 213
-86 175 -51 398 81 530 67 67 91 83 175 113 94 34 226 30 327 -11z"/>
<path d="M4327 2920 c-110 -28 -218 -124 -257 -228 -29 -75 -25 -212 8 -285
31 -69 115 -149 187 -178 90 -36 208 -34 292 5 76 35 144 104 181 184 23 48
27 71 27 147 0 79 -4 97 -28 148 -37 74 -107 146 -178 181 -63 30 -167 42
-232 26z m208 -59 c62 -27 130 -94 161 -157 87 -178 -8 -396 -195 -451 -183
-53 -380 68 -409 250 -28 176 74 334 243 378 46 12 151 2 200 -20z"/>
<path d="M3190 2461 l0 -89 -84 -3 c-46 -2 -87 -7 -91 -11 -19 -18 13 -28 90
-28 l84 0 3 -92 c2 -75 6 -93 18 -93 12 0 16 18 18 93 l3 92 90 0 c81 0 90 2
87 18 -4 18 -11 19 -115 21 l-63 1 0 90 c0 83 -1 90 -20 90 -19 0 -20 -7 -20
-89z"/>
<path d="M5418 2363 c-10 -2 -18 -11 -18 -19 0 -12 30 -14 175 -14 141 0 175
3 175 14 0 8 -17 16 -46 20 -52 7 -259 6 -286 -1z"/>
<path d="M4390 1685 c0 -134 1 -146 18 -143 15 3 17 18 17 143 0 125 -2 140
-17 143 -17 3 -18 -9 -18 -143z"/>
</g>
</svg>
