<?xml version="1.0" standalone="no"?>
<!DOCTYPE svg PUBLIC "-//W3C//DTD SVG 20010904//EN"
 "http://www.w3.org/TR/2001/REC-SVG-20010904/DTD/svg10.dtd">
<svg version="1.0" xmlns="http://www.w3.org/2000/svg"
 width="832.000000pt" height="1248.000000pt" viewBox="0 0 832.000000 1248.000000"
 preserveAspectRatio="xMidYMid meet">

<g transform="translate(0.000000,1248.000000) scale(0.100000,-0.100000)"
fill="#000000" stroke="none">
<path d="M820 11865 c0 -18 -5 -25 -20 -25 -14 0 -20 -7 -20 -22 0 -17 3 -19
12 -10 7 7 16 12 20 12 4 0 8 -66 8 -146 0 -94 4 -143 10 -139 6 4 10 63 10
146 l0 139 105 0 c75 0 105 -3 105 -12 0 -9 3 -9 11 -1 25 25 -4 33 -112 33
l-109 0 0 25 c0 14 -4 25 -10 25 -5 0 -10 -11 -10 -25z"/>
<path d="M7178 11028 l-3 -813 -92 -3 c-56 -2 -93 -7 -93 -13 0 -7 25 -9 70
-6 39 2 81 2 95 -1 24 -4 25 -8 25 -73 0 -39 4 -69 10 -69 6 0 10 30 10 70 l0
70 73 0 c39 0 109 3 155 7 l82 6 0 53 0 54 75 0 c43 0 75 4 75 10 0 6 -32 10
-75 10 l-75 0 0 65 0 65 75 0 c43 0 75 4 75 10 0 6 -32 10 -75 10 l-75 0 0 65
0 65 81 0 c55 0 78 3 74 11 -4 6 -33 10 -69 9 -33 -1 -67 -2 -73 -1 -9 1 -13
20 -13 61 l0 60 75 0 c96 0 98 18 3 22 l-73 3 0 60 0 60 73 3 c39 2 72 7 72
12 0 5 -33 8 -72 7 l-73 -2 -3 68 -3 67 81 0 c47 0 80 4 80 10 0 6 -33 10 -80
10 l-80 0 0 95 c0 57 -4 95 -10 95 -6 0 -10 -55 -10 -145 l0 -145 -26 0 c-14
0 -23 -4 -19 -10 3 -5 15 -10 26 -10 10 0 19 -6 19 -12 1 -56 2 -230 1 -260
-1 -34 -4 -38 -26 -38 -14 0 -25 -4 -25 -10 0 -5 11 -10 25 -10 l25 0 0 -146
c0 -94 -4 -143 -10 -139 -5 3 -10 1 -10 -4 0 -6 5 -11 10 -11 6 0 10 -25 10
-55 l0 -56 -142 3 -143 3 -3 813 c-1 526 -6 812 -12 812 -6 0 -11 -286 -12
-812z"/>
<path d="M928 11714 c-16 -5 -18 -20 -18 -125 0 -153 18 -159 22 -6 l3 112
368 -4 c268 -3 367 -1 367 8 0 8 -64 11 -222 11 -123 0 -286 2 -363 5 -77 2
-148 2 -157 -1z"/>
<path d="M1055 11621 c-3 -5 -1 -12 5 -16 5 -3 10 1 10 9 0 18 -6 21 -15 7z"/>
<path d="M1565 11570 c-4 -6 25 -10 84 -10 l91 0 0 -45 c0 -25 0 -48 0 -52 1
-4 -26 -13 -60 -19 -159 -33 -274 -155 -300 -319 -13 -82 1 -170 37 -238 35
-64 120 -142 190 -175 50 -23 71 -27 153 -27 85 0 102 3 148 27 177 92 263
265 222 446 -35 150 -162 268 -312 290 l-53 7 0 60 0 60 -97 3 c-59 2 -99 -1
-103 -8z m389 -346 c11 -27 7 -33 -64 -110 l-70 -75 0 -74 c0 -83 -9 -95 -72
-95 -49 0 -58 14 -58 96 l0 71 -55 62 c-79 88 -90 108 -75 126 19 23 385 22
394 -1z"/>
<path d="M1597 11204 c-3 -4 22 -38 56 -76 62 -70 62 -71 67 -142 5 -69 6 -71
33 -74 26 -3 27 -2 27 48 0 69 17 105 84 177 31 33 56 63 56 67 0 8 -315 8
-323 0z"/>
<path d="M972 11345 c-1 -126 -3 -583 -5 -1015 l-2 -785 -113 -3 -114 -3 7 23
7 23 -26 -24 -26 -25 27 -23 c33 -26 63 -32 43 -8 -11 13 7 15 149 15 101 0
161 4 161 10 0 6 -22 10 -50 10 l-50 0 -3 1018 c-1 559 -3 914 -5 787z"/>
<path d="M5450 11444 c-141 -38 -250 -159 -280 -311 -32 -163 59 -339 219
-419 51 -26 65 -29 161 -29 95 0 110 3 163 28 71 35 149 114 185 187 24 50 27
66 27 165 0 98 -3 116 -26 165 -53 111 -141 183 -264 215 -72 18 -113 18 -185
-1z m132 -211 c23 -22 30 -24 43 -13 19 16 45 -3 45 -34 0 -13 12 -28 30 -38
32 -18 39 -42 15 -52 -19 -7 -19 -37 0 -62 20 -26 19 -33 -10 -46 -14 -6 -25
-19 -25 -28 0 -25 -34 -52 -47 -39 -15 15 -50 2 -56 -20 -6 -24 -56 -25 -65
-2 -9 24 -24 32 -54 25 -23 -5 -30 -1 -40 23 -7 15 -21 36 -30 45 -20 20 -23
34 -8 43 6 3 10 19 10 36 0 16 -4 29 -10 29 -22 0 -8 30 21 46 25 12 30 21 26
40 -6 31 17 51 39 34 13 -11 19 -9 42 13 33 33 39 33 74 0z"/>
<path d="M5513 11204 c-86 -58 -96 -72 -98 -132 -1 -61 24 -112 54 -112 9 0
31 -9 49 -20 30 -19 35 -19 49 -5 8 9 28 18 43 22 39 7 88 59 72 75 -15 15
-16 60 -2 74 8 8 2 21 -19 42 -16 18 -33 32 -39 32 -5 0 -24 10 -43 23 l-34
23 -32 -22z m86 -90 c12 -15 21 -35 21 -46 0 -25 -44 -68 -70 -68 -28 0 -70
43 -70 72 0 66 78 94 119 42z"/>
<path d="M5513 11094 c-20 -31 -9 -57 26 -62 48 -7 69 45 29 72 -30 21 -35 20
-55 -10z"/>
<path d="M6432 11449 c-120 -23 -221 -103 -275 -217 -29 -61 -32 -75 -32 -167
0 -89 3 -106 27 -155 37 -75 77 -121 144 -165 107 -72 254 -85 365 -34 74 35
154 117 193 198 28 60 31 75 31 161 0 82 -4 103 -27 153 -56 120 -169 205
-299 226 -71 12 -68 12 -127 0z m-54 -218 c21 -13 10 -46 -16 -49 -27 -4 -40
22 -22 43 14 17 20 18 38 6z m315 -26 c1 -6 -47 -11 -125 -13 -111 -2 -128 0
-128 13 0 13 17 15 125 13 73 -2 126 -7 128 -13z m-315 -94 c21 -13 10 -46
-16 -49 -27 -4 -40 22 -22 43 14 17 20 18 38 6z m312 -26 c0 -13 -21 -15 -125
-15 -104 0 -125 2 -125 15 0 13 21 15 125 15 104 0 125 -2 125 -15z m-312 -94
c21 -13 10 -46 -16 -49 -27 -4 -40 22 -22 43 14 17 20 18 38 6z m312 -26 c0
-13 -21 -15 -125 -15 -104 0 -125 2 -125 15 0 13 21 15 125 15 104 0 125 -2
125 -15z"/>
<path d="M7450 11310 c0 -6 31 -10 80 -10 44 0 80 4 80 9 0 4 -36 9 -80 10
-50 1 -80 -2 -80 -9z"/>
<path d="M2530 11115 c0 -13 23 -15 150 -15 127 0 150 2 150 15 0 13 -23 15
-150 15 -127 0 -150 -2 -150 -15z"/>
<path d="M2590 11015 c0 -12 17 -15 90 -15 73 0 90 3 90 15 0 12 -17 15 -90
15 -73 0 -90 -3 -90 -15z"/>
<path d="M5309 10363 l-24 -28 28 24 c15 14 27 26 27 28 0 8 -8 1 -31 -24z"/>
<path d="M6665 10360 l29 -30 -30 -32 -29 -33 33 29 32 30 33 -29 c17 -17 5
-2 -28 33 -33 34 -61 62 -64 62 -3 0 8 -13 24 -30z"/>
<path d="M6730 10365 c-13 -14 -19 -25 -14 -25 8 1 50 50 41 50 -2 0 -14 -11
-27 -25z"/>
<path d="M5215 10370 c3 -5 11 -10 16 -10 6 0 7 5 4 10 -3 6 -11 10 -16 10 -6
0 -7 -4 -4 -10z"/>
<path d="M5250 10346 c0 -2 8 -10 18 -17 15 -13 16 -12 3 4 -13 16 -21 21 -21
13z"/>
<path d="M3820 10330 l-55 -7 58 -1 c32 -1 57 2 57 8 0 6 -1 9 -2 8 -2 -1 -28
-4 -58 -8z"/>
<path d="M5305 10290 c10 -11 20 -20 23 -20 3 0 -3 9 -13 20 -10 11 -20 20
-23 20 -3 0 3 -9 13 -20z"/>
<path d="M2290 10280 c0 -6 35 -10 85 -10 50 0 85 4 85 10 0 6 -35 10 -85 10
-50 0 -85 -4 -85 -10z"/>
<path d="M7445 10140 c-4 -6 33 -10 104 -10 67 0 111 4 111 10 0 6 -41 10
-104 10 -59 0 -108 -4 -111 -10z"/>
<path d="M7450 9940 c0 -5 25 -10 55 -10 30 0 55 5 55 10 0 6 -25 10 -55 10
-30 0 -55 -4 -55 -10z"/>
<path d="M3700 9795 c0 -45 0 -45 -34 -45 -56 0 -88 -48 -66 -99 13 -33 54
-55 77 -42 9 4 24 6 34 4 18 -5 19 3 19 111 0 96 -3 116 -15 116 -11 0 -15
-12 -15 -45z m0 -109 c0 -36 -4 -46 -20 -51 -27 -8 -60 11 -60 36 0 37 19 59
50 59 29 0 30 -2 30 -44z"/>
<path d="M5092 9814 c-9 -18 -17 -24 -31 -19 -13 4 -26 -3 -41 -22 l-22 -28
21 -14 c25 -16 27 -37 5 -49 -26 -14 2 -62 37 -62 23 0 28 -5 31 -27 3 -26 7
-28 50 -31 45 -3 47 -2 64 33 14 30 21 35 40 31 31 -8 43 28 18 56 -18 19 -18
20 -1 33 35 25 9 84 -35 77 -12 -2 -21 5 -28 22 -8 22 -16 26 -53 26 -37 0
-46 -4 -55 -26z m83 -16 c6 -13 24 -27 43 -33 36 -10 38 -16 17 -49 -15 -23
-11 -56 6 -56 5 0 9 -5 9 -10 0 -6 -6 -10 -12 -8 -24 5 -77 -23 -71 -38 4 -10
-3 -14 -21 -14 -19 0 -26 5 -26 19 0 13 -11 24 -36 33 -34 12 -35 14 -29 50 5
25 3 38 -4 38 -6 0 -11 7 -11 15 0 9 6 15 13 13 17 -4 67 32 67 48 0 23 44 16
55 -8z"/>
<path d="M5126 9713 c-4 -9 0 -23 9 -32 13 -14 17 -14 31 1 9 9 14 24 11 32
-8 21 -43 20 -51 -1z"/>
<path d="M6630 9798 c0 -43 0 -43 -37 -44 -65 -1 -100 -86 -52 -130 20 -18 86
-23 109 -9 6 3 10 54 10 116 0 90 -3 109 -15 109 -11 0 -15 -11 -15 -42z m-5
-112 c0 -67 -65 -78 -73 -12 -4 36 15 58 47 54 23 -3 26 -8 26 -42z"/>
<path d="M2200 9815 c0 -13 15 -15 100 -13 134 4 135 22 3 26 -88 2 -103 0
-103 -13z"/>
<path d="M7440 9745 l0 -85 79 0 c70 0 83 3 107 24 21 18 28 32 28 61 0 29 -7
43 -28 61 -24 21 -37 24 -107 24 l-79 0 0 -85z m179 39 c12 -15 21 -32 21 -39
0 -7 -9 -24 -21 -39 -18 -24 -27 -26 -88 -26 l-69 0 -5 58 c-2 31 -3 60 0 65
2 4 35 7 73 7 62 0 70 -2 89 -26z"/>
<path d="M1616 9773 c-8 -8 83 -103 99 -103 15 0 95 83 95 98 0 23 -25 12 -53
-23 -15 -19 -34 -35 -41 -35 -8 0 -28 16 -45 35 -31 35 -42 41 -55 28z"/>
<path d="M5956 9751 c-4 -5 -3 -12 1 -14 15 -9 128 -2 133 8 7 13 -126 19
-134 6z"/>
<path d="M3785 9740 c-3 -5 0 -10 8 -10 18 0 47 -32 47 -53 0 -27 -30 -49 -57
-42 -18 4 -24 2 -21 -7 3 -7 13 -15 22 -16 71 -14 112 71 60 123 -18 17 -50
20 -59 5z"/>
<path d="M4660 9730 c0 -19 -7 -20 -95 -20 -57 0 -95 -4 -95 -10 0 -6 38 -10
94 -10 88 0 95 -1 98 -21 l3 -21 28 22 c33 26 34 36 5 61 -30 24 -38 24 -38
-1z"/>
<path d="M2273 9733 c-110 -6 -89 -23 27 -23 82 0 100 3 100 15 0 10 -9 14
-27 13 -16 -1 -61 -4 -100 -5z"/>
<path d="M3165 9733 c-121 -5 -123 -17 -5 -23 l105 -6 -107 -2 c-139 -3 -146
-22 -8 -22 89 0 99 -2 93 -17 -5 -14 -1 -13 25 6 18 12 32 26 32 31 0 10 -41
41 -50 38 -3 -1 -41 -3 -85 -5z"/>
<path d="M5955 9701 c-7 -13 17 -17 86 -13 33 2 57 8 53 13 -7 12 -131 12
-139 0z"/>
<path d="M5955 9660 c-3 -5 0 -13 8 -16 23 -8 127 0 130 11 3 14 -129 19 -138
5z"/>
<path d="M2200 9630 c0 -6 40 -10 100 -10 60 0 100 4 100 10 0 6 -40 10 -100
10 -60 0 -100 -4 -100 -10z"/>
<path d="M1540 9410 c0 -7 165 -10 476 -10 314 0 473 3 469 10 -4 6 -173 10
-476 10 -306 0 -469 -3 -469 -10z"/>
<path d="M4420 9410 c0 -7 165 -10 475 -10 310 0 475 3 475 10 0 7 -165 10
-475 10 -310 0 -475 -3 -475 -10z"/>
<path d="M5860 9410 c0 -7 163 -10 470 -10 307 0 470 3 470 10 0 7 -163 10
-470 10 -307 0 -470 -3 -470 -10z"/>
<path d="M3053 9290 c-32 -13 -56 -66 -49 -105 12 -60 75 -94 131 -71 40 17
55 42 55 90 0 66 -74 113 -137 86z m92 -35 c50 -49 18 -125 -51 -125 -38 0
-74 38 -74 77 0 32 42 73 75 73 14 0 37 -11 50 -25z"/>
<path d="M3115 9229 c-4 -6 -14 -8 -22 -5 -11 4 -13 2 -10 -9 4 -8 2 -17 -3
-20 -6 -4 -10 -11 -10 -17 0 -7 5 -6 14 1 10 8 16 9 21 1 3 -5 11 -10 17 -10
7 0 7 4 0 13 -9 10 -7 19 4 35 8 12 11 22 5 22 -5 0 -13 -5 -16 -11z"/>
<path d="M3806 9229 c18 -20 18 -22 1 -34 -25 -18 -21 -29 5 -11 20 14 24 14
42 -2 19 -17 19 -17 3 7 -12 17 -13 28 -6 37 8 9 5 11 -9 7 -11 -2 -23 0 -26
6 -4 6 -12 11 -18 11 -6 0 -3 -9 8 -21z"/>
<path d="M7460 9180 c0 -5 18 -10 41 -10 24 0 38 4 34 10 -3 6 -22 10 -41 10
-19 0 -34 -4 -34 -10z"/>
<path d="M1612 8769 l3 -412 413 -4 412 -4 0 415 0 416 -415 0 -415 0 2 -411z
m808 1 l0 -390 -55 0 -55 0 0 221 0 221 -72 -4 -73 -3 -3 -223 -2 -223 -58 3
-57 3 -3 143 -3 142 -69 0 -70 0 0 160 0 160 -75 0 -75 0 -2 -302 -3 -303 -57
-2 -58 -2 0 394 0 395 395 0 395 0 0 -390z m-538 -30 c1 -121 3 -253 3 -292
l0 -73 -57 -3 -58 -3 0 296 0 295 55 0 55 0 2 -220z m414 20 c2 -19 0 -114 -4
-210 l-7 -175 -50 0 -50 0 -3 213 -2 213 56 -3 57 -3 3 -35z m-272 -165 c-1
-22 -2 -82 -3 -132 l-1 -93 -54 0 -53 0 -6 83 c-9 108 -9 172 0 181 4 4 32 6
63 4 l55 -3 -1 -40z"/>
<path d="M4430 9080 c0 -12 -7 -20 -17 -20 -17 -1 -17 -1 0 -11 23 -14 25
-129 2 -129 -8 0 -15 -4 -15 -10 0 -5 7 -10 15 -10 12 0 15 -14 15 -64 0 -53
-3 -65 -17 -69 -17 -4 -17 -5 0 -6 14 -1 17 -11 17 -66 0 -55 -3 -65 -17 -65
-17 -1 -17 -1 0 -14 13 -10 17 -28 17 -75 0 -39 -4 -60 -10 -56 -5 3 -10 1
-10 -4 0 -6 5 -11 10 -11 6 0 10 -27 10 -61 0 -47 -4 -65 -17 -75 -17 -13 -17
-13 0 -14 14 0 17 -10 17 -64 0 -53 -3 -65 -17 -69 -17 -4 -17 -5 0 -6 10 -1
17 -9 17 -21 0 -11 4 -20 9 -20 5 0 11 9 14 20 4 17 14 20 66 20 55 0 63 -3
70 -22 8 -20 10 -21 16 -5 6 14 20 17 76 17 59 0 69 -3 69 -17 1 -17 1 -17 14
0 18 23 146 25 146 2 0 -8 5 -15 10 -15 6 0 10 6 10 14 0 11 17 15 67 18 56 3
67 0 71 -14 5 -21 22 -24 22 -4 0 10 16 15 54 18 67 4 86 0 86 -18 0 -8 5 -14
10 -14 6 0 10 7 10 15 0 11 12 15 50 15 41 0 50 -3 50 -17 0 -15 2 -14 15 4 8
12 12 28 9 37 -7 18 -20 21 -29 6 -9 -14 -78 -12 -94 3 -11 10 -14 10 -18 0
-7 -20 -132 -17 -139 2 -4 8 -10 15 -15 15 -5 0 -9 -7 -9 -15 0 -24 -135 -22
-145 3 -6 16 -7 16 -16 0 -8 -14 -23 -18 -73 -18 -52 0 -65 3 -71 18 -6 16 -7
16 -16 0 -14 -25 -134 -26 -143 -1 -6 15 -8 15 -19 -1 -10 -14 -25 -16 -72
-14 l-60 3 -3 63 c-3 59 -2 62 20 63 l23 0 -22 9 c-21 8 -23 16 -23 75 0 55 3
65 18 65 16 1 16 1 0 11 -24 14 -26 129 -3 129 8 0 15 5 15 10 0 6 -7 10 -15
10 -12 0 -15 14 -15 64 0 59 2 65 23 69 l22 4 -22 2 c-21 1 -23 6 -23 65 0 53
3 65 18 69 16 4 16 5 0 6 -15 1 -18 11 -18 66 0 59 2 67 23 75 l22 9 -22 0
c-16 1 -23 7 -23 21 0 11 -4 20 -10 20 -5 0 -10 -9 -10 -20z"/>
<path d="M5885 9058 c-3 -7 -4 -173 -2 -368 l2 -355 438 -3 437 -2 -2 367 -3
368 -433 3 c-341 2 -434 0 -437 -10z m855 -98 l0 -90 -420 0 -420 0 0 90 0 90
420 0 420 0 0 -90z m0 -136 l0 -24 -325 0 c-233 0 -325 -3 -325 -11 0 -8 89
-10 323 -8 l322 4 3 -57 3 -58 -30 0 c-18 0 -47 -13 -76 -36 -57 -43 -81 -40
-116 13 -13 21 -32 39 -41 41 -11 2 -44 -24 -91 -72 -63 -66 -77 -76 -108 -76
-29 0 -44 9 -84 50 -27 28 -58 50 -70 50 -13 0 -57 -36 -115 -95 -52 -52 -98
-95 -102 -95 -5 0 -8 74 -8 165 l0 165 38 1 c78 2 101 5 108 12 4 4 -27 7 -69
7 -75 0 -77 1 -77 25 l0 25 413 2 c226 2 415 2 420 0 4 -2 7 -14 7 -28z m-229
-191 c33 -52 72 -55 130 -14 23 17 55 31 71 31 l28 0 0 -115 0 -115 -410 0
c-225 0 -410 3 -410 6 0 15 190 194 207 194 10 0 36 -20 58 -46 33 -37 48 -46
82 -51 42 -6 44 -5 120 71 43 41 83 76 89 76 6 0 22 -17 35 -37z m213 -229 c9
-3 16 -17 16 -30 l0 -24 -415 0 c-360 0 -416 2 -421 15 -17 44 -17 44 404 45
220 0 407 -3 416 -6z"/>
<path d="M4580 8675 l0 -385 395 0 395 0 0 385 0 385 -395 0 -395 0 0 -385z
m770 331 c0 -29 -10 -44 -71 -103 -39 -37 -84 -72 -100 -76 -29 -7 -41 -27
-17 -27 7 0 -48 -61 -122 -135 -126 -126 -160 -150 -175 -125 -18 28 -55 6
-155 -95 -58 -58 -108 -105 -113 -105 -8 0 -9 629 0 673 l5 27 374 0 374 0 0
-34z m0 -381 l0 -315 -374 0 -374 0 108 110 c59 61 113 110 119 110 7 0 26 -7
42 -16 l31 -16 144 143 c79 79 144 138 144 131 0 -25 19 -10 26 21 6 29 107
147 127 147 4 0 7 -142 7 -315z"/>
<path d="M7467 9003 c-14 -14 -6 -53 13 -63 40 -22 80 26 48 58 -13 13 -50 16
-61 5z m51 -26 c4 -21 -25 -34 -40 -19 -8 8 -8 16 2 27 16 19 34 15 38 -8z"/>
<path d="M710 8935 l0 -54 118 -3 c155 -4 155 -22 -1 -26 l-118 -3 3 -27 c3
-26 6 -27 67 -32 39 -3 66 -10 69 -17 3 -10 -15 -13 -68 -13 l-71 0 3 -27 c3
-27 5 -28 68 -31 95 -4 101 -22 7 -22 l-77 0 0 -45 0 -45 140 0 c118 0 140 -2
140 -15 0 -13 -22 -15 -138 -15 l-138 0 -1 -40 -1 -39 72 -3 c39 -2 71 -7 71
-13 0 -5 -33 -11 -72 -13 -68 -3 -73 -4 -73 -25 1 -59 7 -65 72 -62 67 2 98
-3 98 -16 0 -4 -37 -9 -82 -11 l-83 -3 -3 -42 -3 -43 95 0 c79 0 96 -3 96 -15
0 -12 -17 -15 -96 -15 l-95 0 3 -42 3 -43 73 -3 c39 -2 72 -7 72 -12 0 -5 -33
-10 -72 -12 l-73 -3 -3 -42 -3 -42 72 -3 c47 -2 74 -7 77 -15 3 -10 -16 -13
-72 -13 l-76 0 0 -45 0 -45 141 0 c108 0 140 -3 136 -12 -3 -10 -40 -13 -138
-13 l-134 0 -1 -48 -2 -47 68 0 c38 0 71 -4 74 -9 7 -11 -42 -21 -100 -21
l-44 0 0 -40 0 -40 90 0 c73 0 90 -3 90 -15 0 -12 -17 -15 -90 -15 l-90 0 0
-45 0 -44 92 -3 c62 -2 93 -7 96 -15 3 -10 -20 -13 -92 -13 l-96 0 0 -45 0
-45 76 0 c56 0 75 -3 72 -12 -5 -14 -6 -14 -90 -16 l-58 -2 0 -45 0 -45 140 0
c77 0 140 -4 140 -9 0 -8 -140 -21 -232 -21 l-48 0 0 -40 0 -39 72 -3 c100 -4
105 -26 6 -30 l-73 -3 -1 -42 -1 -42 70 -3 c45 -2 72 -7 75 -15 3 -10 -16 -13
-72 -13 l-76 0 0 -40 0 -39 143 -3 c187 -4 189 -21 2 -28 l-140 -5 -3 -42 -3
-42 73 -3 c89 -4 90 -23 1 -23 -33 0 -64 -3 -68 -7 -4 -4 -4 -23 -1 -43 l7
-35 85 0 c64 0 85 -3 82 -12 -3 -9 -32 -14 -85 -16 l-81 -3 -4 -39 -3 -39 89
-3 c60 -2 91 -7 94 -15 3 -10 -20 -13 -93 -13 l-96 0 3 -47 3 -48 50 -2 c28
-1 58 -2 68 -2 9 -1 17 -5 17 -11 0 -6 -30 -10 -70 -10 l-69 0 1 -45 1 -45
122 0 c68 0 130 -3 139 -6 43 -16 3 -24 -123 -24 l-139 0 2 -42 1 -43 73 -3
c80 -3 100 -21 25 -23 -104 -2 -98 1 -98 -48 l0 -44 93 2 c77 2 92 0 92 -13 0
-12 -18 -16 -92 -18 l-93 -3 -3 -42 -3 -43 75 0 c63 0 76 -3 76 -16 0 -13 -12
-15 -72 -12 l-73 3 0 -45 0 -45 138 -3 c77 -1 137 -7 137 -12 0 -5 -60 -11
-137 -12 l-138 -3 0 -40 0 -40 68 -3 c51 -2 67 -6 67 -17 0 -12 -15 -15 -70
-15 l-70 0 0 -35 0 -35 79 0 c78 0 113 -12 68 -24 -12 -3 -50 -6 -85 -6 l-63
0 3 -57 3 -58 315 0 315 0 5 1035 c5 1127 2 1056 59 1117 53 56 63 58 366 58
l280 0 5 120 c3 66 3 128 1 137 -3 16 -29 17 -290 20 l-286 3 -47 32 c-28 20
-54 49 -67 76 -20 42 -21 58 -21 435 l0 392 -320 0 -320 0 0 -55z"/>
<path d="M3038 8952 c-16 -2 -28 -7 -28 -11 0 -4 34 -54 74 -112 l75 -104 -23
-25 c-41 -45 -136 -182 -136 -196 0 -16 15 -18 187 -18 121 -1 123 -1 123 22
0 22 -2 22 -120 22 -66 0 -120 3 -120 6 0 3 29 46 65 96 36 50 65 94 65 98 0
4 -27 45 -60 91 -70 99 -72 97 73 98 91 1 97 2 97 21 0 20 -5 21 -122 18 -68
-1 -135 -4 -150 -6z"/>
<path d="M3613 8835 c-42 -18 -44 -39 -3 -30 l30 7 0 -101 c0 -83 3 -101 15
-101 13 0 15 20 15 120 0 131 0 130 -57 105z"/>
<path d="M3751 8831 c-48 -48 -45 -156 4 -198 63 -55 135 0 135 102 0 92 -85
150 -139 96z m87 -24 c17 -20 25 -89 13 -120 -15 -38 -56 -56 -78 -35 -24 24
-29 112 -9 143 18 27 56 34 74 12z"/>
<path d="M3380 8740 c0 -6 28 -10 65 -10 37 0 65 4 65 10 0 6 -28 10 -65 10
-37 0 -65 -4 -65 -10z"/>
<path d="M3385 8691 c-8 -14 4 -17 64 -17 34 1 56 6 58 14 6 15 -112 18 -122
3z"/>
<path d="M7364 8517 c-2 -7 -3 -65 -2 -128 l3 -114 123 -3 123 -3 -3 128 -3
128 -118 3 c-91 2 -119 0 -123 -11z m226 -117 l0 -111 -102 3 -103 3 -1 100
c-1 55 1 103 3 108 2 4 49 7 104 7 l99 0 0 -110z"/>
<path d="M7452 8415 l-23 -12 23 -8 c24 -8 44 -7 68 1 11 4 9 9 -10 19 -29 17
-28 17 -58 0z"/>
<path d="M2980 8340 c0 -7 163 -10 469 -10 303 0 472 4 476 10 4 7 -155 10
-469 10 -311 0 -476 -3 -476 -10z"/>
<path d="M7465 8070 c-3 -5 3 -10 14 -10 13 0 21 -6 21 -18 0 -10 7 -28 16
-40 20 -29 11 -56 -16 -49 -26 7 -36 -10 -11 -18 45 -14 81 36 46 65 -8 7 -15
25 -15 40 0 34 -39 55 -55 30z"/>
<path d="M3612 8063 c-24 -10 -50 -79 -76 -208 -14 -71 -33 -163 -42 -203
l-16 -74 -22 21 c-22 21 -46 28 -46 13 0 -4 13 -23 29 -42 50 -60 60 -43 107
186 22 109 43 211 47 226 14 54 59 74 92 42 20 -21 15 -37 -15 -44 -43 -10
-35 -30 12 -30 l43 0 -1 40 c-1 50 -26 80 -68 79 -17 0 -37 -3 -44 -6z"/>
<path d="M6480 8033 c14 -3 28 -10 32 -17 5 -7 8 -5 8 7 0 13 -8 17 -32 16
-28 -2 -29 -2 -8 -6z"/>
<path d="M6633 8033 c9 -2 23 -2 30 0 6 3 -1 5 -18 5 -16 0 -22 -2 -12 -5z"/>
<path d="M3088 7818 c-3 -29 -7 -33 -35 -36 -18 -2 -33 -7 -33 -12 0 -5 15
-10 33 -12 28 -3 32 -7 35 -35 2 -18 7 -33 12 -33 5 0 10 15 12 33 2 27 8 33
31 35 37 4 35 22 -3 22 -28 0 -30 3 -30 35 0 44 -18 46 -22 3z"/>
<path d="M3649 7835 c0 -3 -1 -34 -1 -70 0 -94 1 -97 15 -93 7 3 14 30 17 69
5 63 5 64 35 64 30 0 30 -1 35 -65 4 -49 9 -65 20 -65 12 0 15 13 16 58 0 64
10 80 45 75 22 -3 24 -9 29 -67 3 -39 10 -66 18 -69 9 -3 12 15 12 66 0 54 -4
72 -18 85 -21 19 -63 22 -78 7 -6 -6 -21 -6 -42 2 -25 10 -37 10 -52 0 -12 -7
-21 -8 -25 -2 -6 10 -24 14 -26 5z"/>
<path d="M3250 7800 c0 -6 27 -10 60 -10 33 0 60 4 60 10 0 6 -27 10 -60 10
-33 0 -60 -4 -60 -10z"/>
<path d="M7495 7761 c-3 -7 2 -11 14 -11 14 0 19 -5 15 -15 -4 -11 -11 -12
-23 -5 -12 6 -22 5 -29 -2 -15 -15 -16 -68 -2 -68 6 0 9 15 8 33 -2 24 1 31
12 28 37 -9 45 -5 45 19 0 26 -28 40 -40 21z"/>
<path d="M3247 7753 c-15 -14 8 -23 64 -23 44 0 59 4 59 14 0 10 -16 14 -59
15 -32 0 -61 -2 -64 -6z"/>
<path d="M4862 7737 c-27 -28 -28 -40 -3 -32 16 5 19 -3 24 -77 4 -46 7 -129
7 -185 l0 -103 -186 0 c-161 0 -185 2 -180 15 9 23 -18 18 -43 -9 l-22 -24 29
-21 c36 -26 44 -26 40 -3 -3 16 11 17 177 17 l180 0 3 -155 c3 -176 -2 -224
-24 -216 -19 7 -18 -1 7 -36 l22 -30 23 29 c29 35 30 47 4 40 -20 -5 -20 -2
-18 181 l3 187 180 0 180 0 -2 -23 -3 -23 35 27 c19 14 35 29 35 33 0 7 -53
41 -64 41 -3 0 -3 -6 0 -14 7 -18 -79 -24 -243 -18 l-123 5 0 185 c0 179 1
184 20 179 26 -7 25 5 -3 31 -29 27 -29 27 -55 -1z"/>
<path d="M7490 7685 c7 -9 15 -13 17 -11 7 7 -7 26 -19 26 -6 0 -6 -6 2 -15z"/>
<path d="M4643 7619 c-44 -16 -55 -67 -21 -99 52 -48 127 3 97 65 -16 33 -45
46 -76 34z m51 -25 c19 -18 20 -28 6 -55 -16 -28 -58 -25 -72 6 -9 21 -8 28 7
45 22 24 38 25 59 4z"/>
<path d="M1589 7561 c-42 -43 -40 -92 6 -138 30 -30 39 -34 67 -28 47 9 88 57
88 101 0 50 -45 94 -95 94 -27 0 -44 -8 -66 -29z m115 -12 c32 -25 34 -66 5
-103 -41 -52 -129 -16 -129 53 0 34 39 71 75 71 12 0 34 -9 49 -21z"/>
<path d="M1630 7490 c0 -15 7 -20 24 -20 14 0 28 5 31 10 3 6 -3 10 -14 10
-12 0 -21 5 -21 10 0 6 -4 10 -10 10 -5 0 -10 -9 -10 -20z"/>
<path d="M5905 7565 c-19 -18 -25 -35 -25 -65 0 -102 129 -139 175 -50 22 43
18 74 -14 109 -38 41 -99 44 -136 6z m119 -21 c30 -31 32 -44 11 -84 -25 -49
-98 -50 -125 0 -42 79 50 147 114 84z"/>
<path d="M5995 7520 c-4 -7 -16 -9 -27 -7 -14 4 -18 1 -14 -8 3 -8 1 -17 -4
-20 -6 -4 -10 -10 -10 -16 0 -5 9 -4 19 3 15 9 23 9 38 -3 16 -13 17 -13 4 4
-11 14 -11 20 -1 32 7 9 10 18 7 21 -3 3 -8 0 -12 -6z"/>
<path d="M5117 7562 c-10 -10 -17 -22 -17 -26 0 -12 37 13 44 29 8 21 -7 19
-27 -3z"/>
<path d="M4112 7105 c-2 -415 -3 -420 -25 -460 -25 -45 -73 -80 -128 -95 -23
-6 -225 -10 -526 -10 l-488 1 0 -109 c0 -84 4 -114 17 -133 l16 -26 363 -6
c199 -4 465 -7 591 -7 l228 0 40 36 c35 32 40 42 46 97 6 57 10 66 51 104 24
23 54 43 66 45 19 3 17 6 -13 20 -40 17 -88 69 -94 101 -17 82 -13 77 -64 78
-26 1 -53 1 -59 0 -10 -1 -13 86 -16 391 l-2 393 -3 -420z"/>
<path d="M4730 7494 c0 -5 20 -30 45 -54 25 -24 45 -40 45 -34 0 5 -20 30 -45
54 -25 24 -45 40 -45 34z"/>
<path d="M5000 7445 c-27 -27 -38 -45 -29 -45 15 0 89 69 89 83 0 16 -18 4
-60 -38z"/>
<path d="M7460 7480 c0 -5 16 -10 35 -10 19 0 35 5 35 10 0 6 -16 10 -35 10
-19 0 -35 -4 -35 -10z"/>
<path d="M7389 7301 c-81 -51 -106 -155 -58 -241 29 -53 62 -78 118 -91 112
-25 221 63 221 179 0 147 -157 232 -281 153z m179 -8 c90 -42 111 -180 39
-257 -59 -63 -152 -69 -221 -15 -80 63 -78 200 5 261 51 38 109 41 177 11z"/>
<path d="M7472 7188 c-18 -9 -22 -18 -20 -41 2 -17 9 -32 16 -35 11 -3 11 0 1
16 -15 25 2 52 33 52 27 0 33 -27 12 -52 -19 -20 -19 -20 1 -17 36 7 28 91 -9
88 -6 0 -21 -5 -34 -11z"/>
<path d="M4765 7209 c-28 -28 -45 -50 -39 -48 21 7 95 80 92 90 -2 5 -26 -14
-53 -42z"/>
<path d="M5000 7210 c59 -51 75 -51 25 0 -21 22 -46 40 -55 40 -9 0 3 -17 30
-40z"/>
<path d="M3523 7225 c-31 -13 -40 -25 -27 -37 3 -3 18 1 35 9 36 18 67 9 75
-22 7 -30 -15 -71 -66 -120 -75 -72 -73 -75 25 -75 65 0 86 3 83 13 -3 6 -25
13 -51 15 -50 3 -60 15 -27 32 33 18 70 81 70 121 0 60 -56 91 -117 64z"/>
<path d="M3710 7210 c-24 -24 -25 -48 -5 -77 13 -18 12 -22 -5 -38 -11 -10
-20 -30 -20 -45 0 -59 91 -91 143 -50 32 25 38 83 11 98 -16 9 -16 11 0 33 35
50 4 99 -64 99 -27 0 -47 -7 -60 -20z m84 -13 c21 -16 18 -45 -6 -61 -38 -23
-78 35 -42 61 10 7 21 13 24 13 3 0 14 -6 24 -13z m6 -115 c29 -23 20 -59 -17
-68 -49 -13 -82 36 -48 70 21 21 38 20 65 -2z"/>
<path d="M3163 7154 l-25 -25 -15 21 c-18 25 -66 24 -71 -1 -2 -12 3 -15 21
-12 19 4 26 -1 37 -26 10 -26 10 -35 -4 -56 -9 -14 -27 -32 -41 -41 -14 -9
-22 -20 -19 -25 9 -16 25 -10 54 21 27 29 29 29 35 10 15 -46 76 -46 88 0 6
24 -1 25 -25 3 -22 -19 -33 -11 -42 32 -7 35 24 95 49 95 8 0 15 7 15 15 0 23
-28 18 -57 -11z"/>
<path d="M1650 7140 c0 -5 18 -10 40 -10 22 0 40 5 40 10 0 6 -18 10 -40 10
-22 0 -40 -4 -40 -10z"/>
<path d="M4636 7131 c-21 -23 -14 -57 13 -66 42 -13 72 26 51 65 -14 25 -42
26 -64 1z m54 -21 c0 -24 -26 -38 -42 -22 -16 16 -2 42 22 42 13 0 20 -7 20
-20z"/>
<path d="M5970 7140 c0 -5 14 -10 30 -10 17 0 30 5 30 10 0 6 -13 10 -30 10
-16 0 -30 -4 -30 -10z"/>
<path d="M5090 7132 c0 -14 49 -56 57 -49 3 4 -4 18 -17 32 -24 25 -40 32 -40
17z"/>
<path d="M3300 7120 c0 -6 28 -10 65 -10 37 0 65 4 65 10 0 6 -28 10 -65 10
-37 0 -65 -4 -65 -10z"/>
<path d="M6565 7120 c-4 -6 11 -10 37 -10 31 0 39 3 28 10 -20 13 -57 13 -65
0z"/>
<path d="M2162 7108 c2 -6 15 -13 29 -14 43 -5 189 8 189 17 0 5 -50 9 -111 9
-80 0 -110 -3 -107 -12z"/>
<path d="M1605 7090 c-4 -6 0 -13 8 -16 22 -8 152 0 152 10 0 12 -153 18 -160
6z"/>
<path d="M5925 7090 c-3 -6 0 -13 8 -16 22 -8 152 0 150 10 -4 13 -150 19
-158 6z"/>
<path d="M3305 7070 c-9 -15 16 -22 70 -18 28 2 50 8 53 16 5 15 -114 17 -123
2z"/>
<path d="M6460 7050 c0 -6 47 -10 120 -10 73 0 120 4 120 10 0 6 -47 10 -120
10 -73 0 -120 -4 -120 -10z"/>
<path d="M2160 7040 c0 -6 43 -10 110 -10 67 0 110 4 110 10 0 6 -43 10 -110
10 -67 0 -110 -4 -110 -10z"/>
<path d="M1657 7034 c-16 -16 -5 -24 34 -24 28 0 39 4 37 13 -5 13 -60 22 -71
11z"/>
<path d="M5965 7020 c3 -5 21 -10 40 -10 19 0 37 5 40 10 4 6 -12 10 -40 10
-28 0 -44 -4 -40 -10z"/>
<path d="M1545 6790 c4 -6 172 -10 471 -10 303 0 464 3 464 10 0 7 -164 10
-471 10 -311 0 -468 -3 -464 -10z"/>
<path d="M5860 6789 c0 -9 119 -10 466 -6 257 4 469 9 472 12 3 3 -207 5 -466
5 -348 0 -472 -3 -472 -11z"/>
<path d="M6990 5993 l0 -749 -25 -50 c-16 -32 -39 -59 -67 -77 l-42 -27 -249
0 -250 0 6 -67 c4 -38 7 -98 7 -135 l0 -68 233 0 c252 0 283 -6 334 -61 51
-55 53 -76 54 -577 1 -257 5 -480 9 -497 l8 -30 1 36 c1 32 4 37 32 43 17 3
125 6 240 6 l209 0 0 35 0 35 -69 0 c-39 0 -73 5 -76 10 -4 6 6 10 23 10 16 0
50 3 76 6 l46 7 0 48 0 49 -70 0 c-56 0 -70 3 -70 15 0 12 14 15 70 15 l70 0
0 50 0 50 -120 0 c-100 0 -120 3 -120 15 0 13 20 15 120 15 l120 0 0 45 0 45
-75 0 c-60 0 -75 3 -75 15 0 12 15 15 75 15 l75 0 0 50 0 50 -76 0 c-56 0 -75
3 -72 13 3 8 30 13 76 15 l72 3 0 49 0 49 -77 3 c-44 2 -78 7 -78 13 0 6 34
11 78 13 l77 3 0 49 0 49 -72 3 c-46 2 -73 7 -76 16 -3 9 16 12 72 12 l76 0 0
55 0 55 -75 0 c-43 0 -75 4 -75 10 0 6 32 10 75 10 l75 0 0 55 c0 50 -2 55
-22 56 -13 1 -30 2 -38 3 -8 2 -55 3 -103 4 -136 3 -98 22 44 22 l119 0 0 55
0 55 -70 0 c-40 0 -70 4 -70 10 0 6 30 10 70 10 l70 0 0 55 0 55 -75 0 c-43 0
-75 4 -75 10 0 6 17 10 38 10 20 0 54 3 75 6 l37 7 0 53 0 54 -75 0 c-43 0
-75 4 -75 10 0 6 32 10 75 10 l75 0 0 55 0 55 -70 0 c-40 0 -70 4 -70 10 0 6
30 10 70 10 l70 0 0 55 0 54 -77 3 c-44 2 -78 7 -78 13 0 6 34 11 78 13 l77 3
0 49 c0 44 -3 50 -24 56 -13 3 -32 5 -42 4 -43 -5 -85 1 -79 10 3 6 37 10 76
10 l69 0 0 55 0 55 -121 0 c-92 0 -120 3 -117 12 5 15 2 14 136 16 l102 2 0
55 0 55 -70 0 c-40 0 -70 4 -70 10 0 6 30 10 70 10 l70 0 0 55 0 55 -81 0
c-60 0 -80 3 -77 13 3 8 31 13 81 15 l77 3 0 49 c0 50 0 50 -32 50 -50 0 -108
12 -108 21 0 5 32 9 70 9 l70 0 0 55 0 55 -120 0 c-157 0 -159 18 -2 22 l117
3 3 52 3 52 -73 3 c-40 2 -73 8 -73 13 0 6 33 11 73 13 l72 3 0 54 0 55 -75 0
c-43 0 -75 4 -75 10 0 6 32 10 75 10 l75 0 0 55 0 55 -137 0 c-76 0 -189 3
-250 7 l-113 6 0 -750z"/>
<path d="M1540 6650 c0 -7 163 -10 470 -10 307 0 470 3 470 10 0 7 -163 10
-470 10 -307 0 -470 -3 -470 -10z"/>
<path d="M5489 6594 c-7 -8 -29 -24 -48 -34 -20 -11 -30 -19 -23 -20 7 0 26
-10 42 -22 36 -26 44 -21 25 14 -12 24 -11 29 6 49 10 12 19 24 19 26 0 7 -8
2 -21 -13z"/>
<path d="M6312 6431 c-29 -38 -52 -72 -52 -75 0 -3 23 -6 50 -6 47 0 50 -2 50
-25 0 -16 6 -25 15 -25 9 0 15 9 15 25 0 16 6 25 15 25 8 0 15 5 15 10 0 6 -7
10 -15 10 -10 0 -15 16 -17 62 -2 34 -8 63 -14 65 -6 2 -34 -28 -62 -66z m48
-15 c0 -28 -4 -34 -25 -38 -13 -3 -27 -3 -29 0 -5 4 42 72 50 72 2 0 4 -15 4
-34z"/>
<path d="M1880 6362 c-14 -12 -36 -65 -69 -170 l-48 -152 -27 50 c-27 49 -46
64 -46 35 0 -25 63 -145 77 -145 6 0 24 39 38 88 76 254 89 282 130 282 31 0
51 -25 35 -44 -6 -8 -17 -13 -25 -10 -16 6 -31 -14 -19 -26 5 -4 23 -11 41
-15 30 -6 32 -5 31 23 -1 16 2 34 5 39 4 6 -3 22 -14 37 -25 31 -75 35 -109 8z"/>
<path d="M4946 6355 c-20 -30 -20 -35 -1 -35 9 0 15 -7 13 -16 -2 -10 3 -19
10 -21 7 -3 12 4 12 16 0 14 6 21 20 21 11 0 20 5 20 10 0 12 -37 50 -49 50
-5 0 -16 -11 -25 -25z"/>
<path d="M5235 6352 c-10 -11 8 -22 35 -22 42 0 46 17 5 22 -20 2 -38 2 -40 0z"/>
<path d="M2178 6322 c-35 -21 -36 -34 -3 -26 l25 6 0 -81 c0 -65 3 -81 15 -81
12 0 15 18 15 100 0 108 -3 113 -52 82z"/>
<path d="M2298 6299 c-25 -14 -23 -32 2 -24 19 6 20 2 20 -64 0 -59 3 -71 16
-71 11 0 14 5 10 16 -3 9 -6 47 -6 85 0 72 -6 80 -42 58z"/>
<path d="M5236 6301 c-4 -7 -5 -15 -2 -18 9 -9 19 4 14 18 -4 11 -6 11 -12 0z"/>
<path d="M5290 6290 c0 -5 5 -10 10 -10 6 0 10 5 10 10 0 6 -4 10 -10 10 -5 0
-10 -4 -10 -10z"/>
<path d="M6610 6276 c0 -19 -6 -25 -27 -28 -33 -4 -33 -23 0 -23 16 0 23 -7
25 -25 6 -39 22 -49 22 -13 0 26 4 32 25 35 14 2 26 8 26 13 0 6 -12 11 -26
13 -19 3 -25 9 -25 28 0 13 -4 24 -10 24 -5 0 -10 -11 -10 -24z"/>
<path d="M5940 6260 c0 -6 27 -10 60 -10 33 0 60 4 60 10 0 6 -27 10 -60 10
-33 0 -60 -4 -60 -10z"/>
<path d="M6142 6239 c5 -15 362 -19 366 -4 1 6 -66 11 -184 13 -136 2 -185 -1
-182 -9z"/>
<path d="M5940 6200 c0 -6 26 -10 59 -10 33 0 63 5 66 10 4 6 -18 10 -59 10
-37 0 -66 -4 -66 -10z"/>
<path d="M6294 6165 c-18 -13 -16 -14 24 -15 38 0 42 -2 42 -24 0 -17 -6 -26
-20 -28 -28 -4 -27 -22 2 -28 31 -8 37 -46 8 -55 -12 -4 -32 -4 -46 -1 -17 5
-24 2 -24 -9 0 -19 46 -30 78 -19 38 14 49 37 35 75 -9 23 -9 36 -2 45 11 13
-3 52 -25 66 -18 12 -51 9 -72 -7z"/>
<path d="M1919 6124 c-3 -21 4 -260 7 -266 3 -4 12 -4 20 -1 13 5 14 15 9 51
-6 41 -5 44 12 37 48 -20 63 -17 98 18 46 46 48 95 6 138 -32 31 -55 36 -95
18 -20 -9 -29 -9 -41 1 -8 7 -16 9 -16 4z m125 -40 c24 -24 20 -77 -8 -103
-20 -19 -29 -22 -53 -14 -25 8 -28 15 -31 55 -3 39 1 49 20 62 28 20 52 20 72
0z"/>
<path d="M3026 6049 c-39 -46 -32 -101 18 -141 42 -34 121 -14 144 37 15 33
15 40 -3 80 -30 62 -116 76 -159 24z m119 -14 c34 -33 33 -77 -1 -104 -53 -42
-118 -11 -118 54 0 69 71 99 119 50z"/>
<path d="M3073 5984 c-1 -25 2 -33 9 -26 8 8 17 8 30 1 20 -11 27 5 7 17 -8 4
-8 9 0 17 19 19 12 31 -8 13 -17 -16 -20 -16 -28 -2 -7 12 -9 7 -10 -20z"/>
<path d="M3809 6016 c12 -14 11 -19 -4 -36 -19 -21 -7 -28 13 -8 10 10 17 10
35 -1 21 -13 21 -13 5 6 -17 18 -17 20 -1 36 10 10 12 17 6 17 -7 0 -15 -5
-18 -10 -4 -7 -14 -6 -28 2 -20 10 -21 10 -8 -6z"/>
<path d="M5057 5983 c-4 -3 -7 -55 -7 -115 l0 -108 111 0 c111 0 111 0 105 23
-3 12 -6 64 -6 115 l0 92 -98 0 c-54 0 -102 -3 -105 -7z m183 -108 l0 -95 -85
0 -85 0 0 95 0 95 85 0 85 0 0 -95z"/>
<path d="M4569 5967 c-1 -9 -3 -21 -4 -27 -1 -5 -3 -19 -4 -31 -1 -17 -7 -20
-38 -17 -22 2 -38 -2 -41 -10 -2 -8 9 -12 37 -12 l41 0 0 -40 c0 -29 4 -40 15
-40 11 0 15 11 15 40 l0 40 40 0 c51 0 53 18 3 22 -35 3 -38 5 -41 38 -4 38
-21 66 -23 37z"/>
<path d="M5870 5763 c0 -5 25 -42 55 -83 30 -41 55 -77 55 -80 0 -3 -25 -38
-55 -78 -30 -40 -55 -80 -55 -88 0 -12 20 -14 117 -12 102 3 118 5 121 20 3
15 -8 18 -88 20 l-91 3 46 68 c25 37 45 70 45 72 0 3 -20 33 -45 68 l-46 62
87 5 c57 3 89 9 92 18 3 9 -25 12 -117 12 -67 0 -121 -3 -121 -7z"/>
<path d="M6379 5685 c-1 -25 -2 -51 -3 -57 -1 -7 7 -12 18 -10 24 4 73 -16 80
-34 14 -37 -36 -70 -80 -53 -33 12 -45 2 -20 -17 23 -16 69 -18 95 -4 10 5 24
23 31 40 11 28 11 34 -7 58 -14 19 -31 28 -57 30 -29 3 -36 7 -32 18 3 9 6 22
6 30 0 10 12 14 40 14 29 0 40 4 40 15 0 12 -13 15 -55 15 l-55 0 -1 -45z"/>
<path d="M6565 5706 c-30 -30 -41 -87 -26 -137 21 -70 89 -91 138 -43 23 23
25 31 21 91 -4 57 -8 69 -32 89 -35 31 -70 30 -101 0z m85 -21 c21 -26 25
-101 6 -130 -35 -53 -86 -19 -86 58 0 73 46 114 80 72z"/>
<path d="M3136 5643 c-3 -3 -6 -24 -6 -45 0 -38 0 -38 -41 -38 -52 0 -48 -24
4 -28 36 -3 37 -4 37 -43 0 -28 4 -39 15 -39 11 0 15 11 15 40 l0 40 40 0 c29
0 40 4 40 15 0 11 -11 15 -40 15 -40 0 -40 0 -40 39 0 38 -10 57 -24 44z"/>
<path d="M3618 5633 c-28 -32 -38 -61 -38 -108 0 -38 5 -52 30 -76 31 -31 55
-32 89 -5 39 31 54 142 25 184 -19 28 -83 31 -106 5z m82 -18 c19 -23 8 -122
-17 -147 -44 -43 -85 13 -69 94 12 58 58 87 86 53z"/>
<path d="M6180 5630 c0 -6 27 -10 60 -10 33 0 60 4 60 10 0 6 -27 10 -60 10
-33 0 -60 -4 -60 -10z"/>
<path d="M3777 5624 c-15 -15 -6 -24 17 -18 40 10 41 -15 2 -55 -20 -20 -36
-40 -36 -44 0 -4 20 -7 45 -7 25 0 45 5 45 10 0 9 -14 14 -32 11 -13 -2 -9 8
13 38 28 39 22 65 -16 69 -17 2 -34 0 -38 -4z"/>
<path d="M4420 5589 c0 -12 81 -14 469 -14 258 0 473 3 477 8 4 4 -200 7 -454
7 -253 0 -467 3 -476 6 -10 4 -16 1 -16 -7z"/>
<path d="M1578 5225 l2 -365 442 2 442 3 2 363 3 362 -447 0 -447 0 3 -365z
m852 346 c0 -13 -129 -120 -157 -132 -20 -7 -23 -16 -23 -57 0 -47 -2 -51 -74
-120 l-74 -72 -67 0 c-66 0 -69 -1 -122 -46 -44 -38 -56 -44 -68 -34 -13 11
-15 4 -15 -49 l0 -61 -46 0 c-42 0 -54 -6 -114 -55 -37 -30 -70 -55 -74 -55
-3 0 -6 153 -6 340 l0 340 408 3 c224 1 413 3 420 5 6 1 12 -2 12 -7z m20
-368 l0 -323 -90 0 -90 0 0 270 0 269 28 15 c15 8 52 37 82 64 36 32 58 46 62
38 4 -6 8 -156 8 -333z m-200 -113 l0 -211 -92 3 -93 3 -3 105 c-2 58 0 124 3
148 5 37 9 42 32 42 19 0 42 17 82 59 31 32 59 59 64 60 4 0 7 -94 7 -209z
m-202 -62 l3 -148 -101 0 -100 0 0 94 0 93 71 57 c53 42 79 56 98 54 l26 -3 3
-147z m-218 -98 l0 -50 -102 0 -103 1 55 49 c49 44 60 49 103 50 l47 0 0 -50z"/>
<path d="M1830 5329 c0 -57 4 -88 10 -84 6 3 10 44 10 91 0 49 -4 84 -10 84
-6 0 -10 -37 -10 -91z"/>
<path d="M6180 5575 c0 -13 10 -15 55 -13 30 2 55 8 55 13 0 6 -25 11 -55 13
-45 2 -55 0 -55 -13z"/>
<path d="M710 5162 l0 -171 170 0 c104 0 170 3 170 9 0 6 -63 10 -160 10
l-160 0 0 150 0 150 162 0 c89 0 159 2 157 4 -2 3 -79 8 -172 11 l-167 7 0
-170z"/>
<path d="M4666 5263 c-13 -13 -5 -23 20 -23 26 0 26 0 19 -57 -8 -69 -20 -101
-47 -130 -24 -26 -16 -48 13 -33 30 17 49 64 57 143 l7 72 50 0 50 0 -4 -45
c-2 -41 -9 -78 -27 -153 -6 -25 -4 -28 12 -25 20 3 26 30 39 161 l7 67 33 0
c19 0 37 5 40 10 4 6 -34 10 -107 11 -62 0 -122 2 -134 4 -12 3 -24 2 -28 -2z"/>
<path d="M4967 5228 c-4 -24 -9 -69 -13 -102 -4 -37 -14 -66 -25 -77 -22 -22
-25 -39 -6 -39 31 0 48 38 59 134 l12 96 54 0 55 0 -7 -77 c-7 -80 -25 -123
-51 -123 -8 0 -15 -7 -15 -15 0 -9 9 -15 25 -15 37 0 56 39 67 138 5 48 14 91
19 97 20 20 5 25 -80 25 l-89 0 -5 -42z"/>
<path d="M2970 5240 c0 -7 165 -10 475 -10 310 0 475 3 475 10 0 7 -165 10
-475 10 -310 0 -475 -3 -475 -10z"/>
<path d="M860 5218 c-31 -12 -40 -25 -40 -65 0 -24 7 -37 25 -49 44 -28 95 4
95 61 0 43 -39 69 -80 53z m49 -27 c24 -24 17 -59 -13 -71 -44 -16 -77 27 -51
66 19 29 39 30 64 5z"/>
<path d="M3389 4865 c-1 -36 -2 -71 -3 -77 -1 -8 9 -12 23 -10 36 4 90 -17
101 -38 14 -27 13 -37 -10 -60 -21 -21 -94 -28 -105 -10 -10 17 -25 11 -25 -9
0 -21 44 -41 89 -41 27 0 67 22 88 50 15 19 16 65 3 91 -13 24 -61 49 -93 49
-18 0 -27 7 -31 26 -13 49 0 63 61 66 34 2 58 8 61 16 3 9 -17 12 -77 12 l-81
0 -1 -65z"/>
<path d="M3610 4690 c0 -127 2 -150 15 -150 11 0 15 12 15 44 l0 44 51 -1 c45
-2 54 1 80 31 24 27 29 41 29 83 0 40 -5 55 -25 74 -21 22 -33 25 -95 25 l-70
0 0 -150z m134 101 c9 -10 18 -27 18 -37 5 -63 -35 -102 -91 -89 -30 6 -31 8
-31 65 0 46 4 61 18 69 27 16 67 13 86 -8z"/>
<path d="M3070 4815 c0 -12 17 -15 95 -15 78 0 95 3 95 15 0 12 -17 15 -95 15
-78 0 -95 -3 -95 -15z"/>
<path d="M4969 4800 l-24 -19 28 -1 28 0 -2 -72 c-1 -40 2 -73 7 -73 5 0 10
42 12 93 3 101 -4 111 -49 72z"/>
<path d="M4114 4675 c0 -49 1 -71 3 -48 2 23 2 64 0 90 -2 26 -3 8 -3 -42z"/>
<path d="M3070 4736 c0 -19 48 -26 125 -19 45 4 65 10 65 19 0 11 -22 14 -95
14 -74 0 -95 -3 -95 -14z"/>
<path d="M5100 4705 c0 -12 14 -15 64 -15 l65 0 -15 -35 c-8 -19 -30 -67 -49
-107 -24 -48 -32 -75 -25 -82 6 -6 13 -6 19 0 11 10 111 233 111 246 0 4 -38
8 -85 8 -69 0 -85 -3 -85 -15z"/>
<path d="M4502 4648 c-19 -19 -14 -27 15 -25 24 2 29 -3 37 -36 9 -34 7 -40
-19 -67 -16 -17 -35 -30 -43 -30 -7 0 -12 -6 -10 -12 8 -24 35 -19 65 12 30
31 31 31 38 11 3 -12 15 -26 26 -31 15 -9 24 -6 45 15 29 29 25 48 -4 22 -25
-23 -29 -22 -47 13 -14 28 -14 33 2 67 10 22 28 40 45 47 35 13 36 26 3 26
-15 0 -36 -11 -49 -25 l-24 -25 -16 25 c-18 27 -45 32 -64 13z"/>
<path d="M5933 4635 c-61 -26 -72 -97 -24 -146 52 -52 138 -27 156 44 9 33
-18 83 -55 102 -35 18 -36 18 -77 0z m91 -46 c32 -38 33 -53 1 -84 -30 -30
-64 -32 -99 -4 -34 27 -36 81 -4 103 36 25 73 20 102 -15z"/>
<path d="M5995 4580 c-4 -7 -18 -10 -31 -7 -20 3 -22 2 -13 -9 9 -11 8 -18 -1
-29 -8 -9 -9 -15 -2 -15 6 0 14 5 18 11 4 8 9 8 17 0 17 -17 31 -13 17 4 -10
12 -10 18 0 30 7 9 10 18 7 21 -3 3 -8 0 -12 -6z"/>
<path d="M4750 4600 c0 -6 28 -10 65 -10 37 0 65 4 65 10 0 6 -28 10 -65 10
-37 0 -65 -4 -65 -10z"/>
<path d="M4934 4579 c-3 -5 29 -9 72 -9 43 0 75 2 72 5 -10 10 -138 13 -144 4z"/>
<path d="M6685 4559 c0 -30 10 -39 18 -16 3 9 7 9 18 0 11 -9 14 -6 15 18 1
23 -2 27 -12 18 -10 -8 -18 -8 -26 -1 -10 8 -13 3 -13 -19z"/>
<path d="M4114 4440 c0 -69 1 -97 3 -62 2 34 2 90 0 125 -2 34 -3 6 -3 -63z"/>
<path d="M4760 4551 c0 -5 25 -11 56 -13 54 -3 71 2 57 16 -10 10 -113 7 -113
-3z"/>
<path d="M2148 4543 c61 -2 163 -2 225 0 61 1 11 3 -113 3 -124 0 -174 -2
-112 -3z"/>
<path d="M2518 4543 c7 -3 16 -2 19 1 4 3 -2 6 -13 5 -11 0 -14 -3 -6 -6z"/>
<path d="M4957 4513 c-16 -15 -5 -24 26 -21 27 3 33 -1 35 -20 3 -17 -2 -25
-17 -29 -27 -7 -27 -23 -1 -23 11 0 23 -7 27 -16 9 -23 -24 -45 -55 -37 -18 4
-23 2 -20 -8 3 -8 15 -15 27 -17 61 -9 95 27 71 74 -10 18 -10 26 -1 38 15 17
1 50 -25 60 -21 8 -59 8 -67 -1z"/>
<path d="M3427 4383 c-4 -3 -7 -26 -7 -50 0 -40 2 -43 28 -43 38 0 54 -13 50
-41 -2 -20 -9 -24 -38 -25 -45 -1 -53 -16 -17 -28 41 -15 81 10 85 51 4 37
-19 63 -54 63 -22 0 -25 4 -22 27 2 23 8 27 32 28 16 0 31 6 33 13 3 8 -9 12
-39 12 -25 0 -48 -3 -51 -7z"/>
<path d="M3010 4306 c0 -8 27 -50 61 -95 l61 -81 -49 -67 c-61 -85 -85 -124
-80 -129 2 -2 63 -1 135 2 101 5 132 10 132 21 0 9 -18 13 -67 15 -64 1 -108
4 -125 7 -5 0 15 33 42 71 28 39 50 76 50 83 0 6 -22 41 -49 77 l-49 65 96 5
c82 4 97 8 100 23 3 15 -8 17 -127 17 -106 0 -131 -3 -131 -14z"/>
<path d="M3692 4267 c-27 -29 -28 -62 -3 -83 18 -16 18 -17 0 -35 -11 -11 -19
-32 -19 -47 0 -41 33 -67 85 -67 28 0 50 7 64 19 25 22 28 68 6 90 -8 8 -15
17 -15 21 0 4 7 13 15 21 22 22 18 52 -10 79 -33 34 -93 34 -123 2z m102 -29
c23 -37 -35 -76 -70 -48 -15 13 -19 52 -7 64 13 13 66 1 77 -16z m-3 -107 c22
-18 22 -19 6 -45 -18 -27 -45 -33 -78 -16 -23 13 -24 37 -2 62 21 23 45 23 74
-1z"/>
<path d="M4113 4190 c0 -30 2 -43 4 -27 2 15 2 39 0 55 -2 15 -4 2 -4 -28z"/>
<path d="M6299 4201 c-28 -22 -20 -38 9 -20 27 17 52 5 52 -26 0 -17 -16 -43
-47 -76 -25 -27 -44 -51 -42 -53 13 -13 129 -9 129 4 0 6 -18 10 -41 10 l-41
0 36 42 c43 50 49 98 14 122 -29 21 -41 20 -69 -3z"/>
<path d="M3325 4130 c-4 -6 45 -10 139 -10 91 0 146 4 146 10 0 6 -53 10 -139
10 -83 0 -142 -4 -146 -10z"/>
<path d="M4873 4123 c82 -2 212 -2 290 0 78 1 12 3 -148 3 -159 0 -223 -2
-142 -3z"/>
<path d="M5343 4123 c9 -2 25 -2 35 0 9 3 1 5 -18 5 -19 0 -27 -2 -17 -5z"/>
<path d="M1591 4064 c-65 -54 -22 -164 64 -164 51 0 95 44 95 95 0 27 -8 44
-29 66 -39 38 -87 39 -130 3z m114 -19 c14 -13 25 -36 25 -50 0 -33 -42 -75
-75 -75 -14 0 -37 11 -50 25 -34 33 -33 77 1 104 35 28 69 26 99 -4z"/>
<path d="M1630 4000 c0 -15 7 -20 25 -20 14 0 25 5 25 10 0 6 -7 10 -15 10 -8
0 -15 5 -15 10 0 6 -4 10 -10 10 -5 0 -10 -9 -10 -20z"/>
<path d="M3435 4045 c-34 -33 -34 -93 -1 -132 21 -24 27 -26 52 -18 72 25 58
175 -16 175 -6 0 -22 -11 -35 -25z m69 -38 c15 -40 -3 -82 -34 -82 -22 0 -25
5 -28 43 -5 70 41 99 62 39z"/>
<path d="M2323 4033 c9 -2 23 -2 30 0 6 3 -1 5 -18 5 -16 0 -22 -2 -12 -5z"/>
<path d="M2383 4033 c9 -2 23 -2 30 0 6 3 -1 5 -18 5 -16 0 -22 -2 -12 -5z"/>
<path d="M6110 3960 c0 -6 80 -10 220 -10 140 0 220 4 220 10 0 6 -80 10 -220
10 -140 0 -220 -4 -220 -10z"/>
<path d="M6296 3889 c-28 -22 -33 -55 -13 -83 10 -14 23 -17 50 -14 44 5 46
-4 12 -38 -17 -17 -32 -23 -45 -19 -11 4 -20 2 -20 -4 0 -17 19 -23 51 -16 66
15 95 133 43 174 -15 12 -32 21 -39 21 -7 0 -24 -9 -39 -21z m74 -44 c0 -18
-7 -26 -24 -31 -14 -3 -30 -3 -35 1 -17 10 -13 53 6 64 25 13 53 -5 53 -34z"/>
<path d="M647 3798 c-6 -3 3 -8 19 -10 l29 -3 3 -1147 2 -1148 -30 0 c-16 0
-30 -4 -30 -10 0 -6 77 -10 210 -10 l210 0 0 55 c0 30 -4 55 -10 55 -5 0 -10
-20 -10 -45 l0 -45 -160 0 -160 0 0 30 c0 28 3 31 33 29 55 -3 74 0 59 10 -8
4 -31 6 -53 4 -38 -5 -39 -4 -39 26 l0 31 104 0 c59 0 108 4 111 10 4 6 -33
10 -104 10 l-111 0 0 28 c0 26 2 27 41 24 22 -3 46 1 52 7 8 8 -3 11 -41 11
-51 0 -52 1 -52 30 l0 30 66 0 c41 0 63 4 59 10 -3 6 -33 10 -66 10 -56 0 -59
1 -59 25 0 23 4 25 45 25 25 0 45 5 45 10 0 6 -20 10 -45 10 -43 0 -45 1 -45
30 l0 30 60 0 c33 0 60 4 60 10 0 6 -27 10 -60 10 -57 0 -60 1 -60 25 0 23 4
25 45 25 25 0 45 5 45 10 0 6 -20 10 -45 10 -42 0 -45 2 -45 25 l0 26 168 -2
167 -1 3 871 2 871 -132 1 c-73 1 -164 2 -201 3 -38 0 -74 -2 -80 -6z m381
-18 c7 0 12 -13 12 -30 l0 -31 -157 3 c-143 3 -158 5 -161 21 -8 42 -1 45 150
41 79 -2 149 -4 156 -4z m12 -140 l0 -70 -160 0 -160 0 0 30 c0 29 2 30 45 30
25 0 45 5 45 10 0 6 -20 10 -45 10 -43 0 -45 1 -45 30 l0 30 160 0 160 0 0
-70z m-79 -90 l79 0 0 -65 0 -65 -160 0 -160 0 0 25 c0 20 5 25 28 26 15 0 36
4 47 9 18 7 19 8 2 15 -9 4 -31 5 -47 3 -27 -4 -30 -2 -30 23 0 28 1 28 68 32
37 1 73 2 80 0 8 -2 49 -3 93 -3z m-3 -149 l82 -1 0 -66 0 -65 -160 3 -160 3
0 28 c0 25 3 27 45 27 25 0 45 5 45 10 0 6 -20 10 -45 10 -41 0 -45 2 -45 24
0 23 4 25 53 28 28 2 63 2 77 2 14 -1 62 -2 108 -3z m0 -150 l82 -1 0 -65 0
-66 -157 3 -158 3 -3 28 c-3 26 -2 27 42 27 25 0 46 5 46 10 0 6 -20 10 -45
10 -43 0 -45 1 -45 30 l0 30 78 -4 c42 -2 114 -5 160 -5z m-55 -150 l137 -1 0
-65 0 -65 -160 0 -160 0 0 30 c0 29 2 30 45 30 25 0 45 5 45 10 0 6 -20 10
-45 10 -43 0 -45 1 -45 30 0 26 3 29 23 26 12 -3 84 -5 160 -5z m137 -216 l0
-65 -160 0 -160 0 0 30 c0 29 2 30 46 30 27 0 43 4 39 10 -3 6 -24 10 -46 10
-35 0 -39 3 -39 25 l0 25 160 0 160 0 0 -65z m0 -150 l0 -65 -160 0 -160 0 0
25 c0 21 5 25 30 26 46 2 50 3 53 14 1 5 -16 8 -40 7 -42 -3 -43 -3 -43 27 l0
31 160 0 160 0 0 -65z m0 -150 l0 -65 -160 0 -160 0 0 30 c0 29 2 30 45 30 25
0 45 5 45 10 0 6 -20 10 -45 10 -41 0 -45 2 -45 25 l0 25 160 0 160 0 0 -65z
m-122 -84 l122 -1 0 -65 0 -65 -160 0 -160 0 0 30 c0 29 1 30 47 30 25 0 43 3
39 7 -4 4 -25 6 -46 4 -39 -2 -40 -2 -40 31 0 32 1 34 38 32 20 -1 92 -3 160
-3z m122 -222 c0 -61 -2 -70 -16 -65 -9 3 -81 6 -160 6 l-144 0 0 25 c0 23 4
25 46 25 32 0 44 4 41 13 -2 8 -19 11 -46 9 -40 -3 -41 -2 -41 27 l0 31 160 0
160 0 0 -71z m0 -145 l0 -66 -31 6 c-17 3 -89 6 -160 6 -122 0 -129 1 -129 20
0 17 7 20 45 20 25 0 45 5 45 10 0 6 -20 10 -45 10 -43 0 -45 1 -45 30 l0 30
160 0 160 0 0 -66z"/>
<path d="M4504 3720 c-30 -12 -64 -58 -64 -87 0 -54 50 -103 105 -103 32 0 82
44 90 80 9 40 -18 88 -60 106 -39 16 -42 16 -71 4z m86 -40 c28 -28 26 -75 -5
-105 -43 -44 -109 -23 -121 40 -13 68 77 114 126 65z"/>
<path d="M4520 3643 c0 -13 0 -26 0 -30 0 -18 33 -6 41 14 6 18 5 21 -8 16 -8
-3 -19 0 -24 8 -6 11 -9 8 -9 -8z"/>
<path d="M5230 3674 c0 -6 5 -15 12 -22 8 -8 8 -15 -2 -27 -7 -8 -11 -18 -8
-20 3 -3 11 1 18 10 12 14 15 14 31 -1 11 -10 19 -12 19 -6 0 6 -6 12 -12 15
-10 3 -10 9 0 26 17 28 15 40 -3 17 -14 -19 -15 -19 -35 -1 -11 10 -20 14 -20
9z"/>
<path d="M3390 3631 c0 -15 -3 -48 -6 -73 l-6 -45 50 -5 c61 -6 82 -21 82 -59
0 -51 -66 -73 -132 -44 -27 11 -23 -20 4 -39 44 -31 134 -11 158 33 17 32 12
89 -10 111 -18 18 -35 25 -85 32 -16 3 -20 11 -20 38 l0 35 55 5 c42 4 56 9
58 23 3 15 -6 17 -72 17 l-76 0 0 -29z"/>
<path d="M3630 3640 c-24 -24 -27 -86 -4 -111 14 -15 13 -19 -10 -42 -30 -30
-32 -47 -11 -86 31 -61 128 -67 178 -10 34 37 31 72 -8 104 -25 21 -25 21 -5
38 30 25 27 80 -6 106 -36 28 -106 29 -134 1z m102 -22 c26 -22 29 -47 8 -68
-23 -23 -29 -24 -63 -11 -34 13 -44 47 -21 72 20 22 53 25 76 7z m2 -139 c45
-35 24 -89 -35 -89 -28 0 -69 30 -69 50 0 16 47 60 63 60 8 0 26 -9 41 -21z"/>
<path d="M1640 3622 c0 -5 16 -30 35 -55 19 -25 35 -49 35 -52 0 -3 -18 -30
-40 -60 -22 -30 -40 -57 -40 -60 0 -3 41 -5 90 -5 53 0 90 4 90 10 0 6 -19 10
-42 11 -24 1 -53 4 -66 8 l-23 6 30 43 c30 40 31 44 16 72 -8 16 -19 32 -25
35 -23 14 -7 24 43 27 80 5 62 23 -25 26 -43 2 -78 -1 -78 -6z"/>
<path d="M6302 3602 c-296 -1 -441 -6 -437 -12 4 -7 166 -10 466 -10 373 1
459 4 459 14 0 8 -10 13 -22 12 -13 0 -222 -2 -466 -4z"/>
<path d="M2241 3571 c-7 -5 -21 -6 -31 -4 -17 5 -19 -3 -18 -101 0 -85 3 -106
14 -106 9 0 14 11 14 35 0 33 2 35 35 35 89 0 105 118 20 144 -11 3 -26 2 -34
-3z m47 -33 c31 -31 -5 -92 -49 -81 -14 4 -19 14 -19 37 0 35 15 56 40 56 9 0
21 -5 28 -12z"/>
<path d="M3074 3549 c-13 -22 15 -30 97 -27 70 3 84 6 87 21 3 15 -6 17 -87
17 -54 0 -93 -4 -97 -11z"/>
<path d="M3075 3470 c-14 -22 10 -30 96 -30 81 0 90 2 87 18 -3 14 -17 17 -90
20 -52 2 -89 -1 -93 -8z"/>
<path d="M6317 3314 c-3 -4 5 -15 18 -26 25 -19 25 -20 25 -204 l0 -185 -26
-26 c-29 -29 -26 -40 6 -23 40 21 50 68 49 227 0 88 -5 162 -12 182 -12 34
-48 67 -60 55z"/>
<path d="M1545 3280 c4 -6 172 -10 471 -10 303 0 464 3 464 10 0 7 -164 10
-471 10 -311 0 -468 -3 -464 -10z"/>
<path d="M5116 3245 c-6 -29 -11 -35 -31 -35 -30 0 -33 -16 -6 -23 29 -7 16
-47 -15 -47 -13 0 -24 -4 -24 -10 0 -5 7 -10 16 -10 13 0 15 -7 11 -36 -8 -45
13 -42 25 4 6 23 14 32 29 32 16 0 20 -6 18 -27 -4 -38 14 -40 24 -3 6 23 13
30 32 30 14 0 25 5 25 10 0 6 -9 10 -20 10 -11 0 -20 4 -20 9 0 23 14 41 30
41 27 0 36 20 11 27 -16 4 -19 11 -14 34 7 39 -13 38 -22 -1 -6 -26 -15 -33
-42 -29 -9 1 -9 3 2 37 4 16 2 22 -8 22 -9 0 -17 -14 -21 -35z m42 -77 c-2
-15 -11 -24 -25 -26 -26 -4 -28 1 -13 29 15 27 42 25 38 -3z"/>
<path d="M4590 3206 c0 -7 7 -19 15 -26 21 -17 19 -28 -12 -54 -16 -14 -23
-27 -18 -35 5 -9 16 -4 40 19 l33 32 23 -31 c14 -19 26 -28 32 -22 5 5 0 21
-14 40 l-23 31 29 30 c33 35 14 42 -22 8 l-23 -21 -23 21 c-27 25 -37 28 -37
8z"/>
<path d="M5986 3184 c-21 -20 -106 -140 -106 -148 0 -3 24 -6 54 -6 54 0 55 0
58 -32 4 -46 28 -49 28 -4 0 29 4 36 20 36 11 0 20 7 20 15 0 8 -9 15 -20 15
-18 0 -20 7 -20 70 0 72 -7 82 -34 54z m1 -121 c-3 -2 -17 -3 -31 -1 l-25 3
27 42 27 43 3 -41 c2 -23 1 -43 -1 -46z"/>
<path d="M6499 3118 l-61 -83 61 -3 c57 -3 61 -4 61 -27 0 -16 6 -25 15 -25 9
0 15 9 15 21 0 12 8 28 18 35 16 13 15 14 -6 20 -21 6 -23 12 -22 63 3 106 0
106 -81 -1z m58 -55 c-3 -2 -19 -3 -37 -1 l-31 3 33 45 33 45 3 -44 c2 -24 1
-45 -1 -48z"/>
<path d="M4820 3158 c0 -9 20 -13 67 -13 44 0 68 4 70 13 4 9 -14 12 -66 12
-50 0 -71 -4 -71 -12z"/>
<path d="M6177 3153 c-4 -3 -7 -17 -7 -30 0 -18 -6 -23 -24 -23 -14 0 -28 -4
-31 -10 -4 -6 6 -10 24 -10 25 0 30 -4 33 -27 4 -36 26 -41 30 -6 2 22 9 29
31 31 37 4 35 22 -3 22 -27 0 -30 3 -30 30 0 29 -9 38 -23 23z"/>
<path d="M1544 3121 c9 -13 936 -15 936 -1 0 7 -154 10 -471 10 -279 0 -468
-4 -465 -9z"/>
<path d="M6652 3015 c2 -65 7 -110 13 -110 6 0 11 17 13 38 3 33 6 37 23 32
29 -10 79 14 90 42 15 39 11 62 -16 88 -20 21 -33 25 -75 23 l-51 -2 3 -111z
m96 83 c17 -17 15 -73 -2 -88 -8 -6 -25 -10 -38 -8 -19 2 -23 10 -26 47 -3 45
7 61 39 61 8 0 20 -5 27 -12z"/>
<path d="M1545 2980 c-4 -7 142 -10 464 -10 266 0 471 4 471 9 0 13 -927 14
-935 1z"/>
<path d="M4425 2910 c-4 -7 153 -10 464 -10 307 0 471 3 471 10 0 7 -161 10
-464 10 -299 0 -467 -4 -471 -10z"/>
<path d="M3130 2751 c-222 -7 -241 -13 -295 -90 l-30 -43 0 -626 0 -627 28
-48 c18 -31 42 -55 70 -70 42 -22 42 -22 554 -22 l511 0 43 30 c57 41 81 75
90 132 12 75 11 1181 -2 1226 -5 21 -24 53 -41 73 -60 68 -58 68 -413 70 -176
0 -408 -2 -515 -5z m488 -364 c84 -33 142 -80 191 -152 69 -101 81 -146 81
-295 l0 -130 -421 0 c-332 0 -420 3 -417 13 3 6 23 13 46 15 l42 3 0 207 c0
190 -1 205 -16 184 -14 -20 -44 -31 -44 -16 0 4 16 27 37 52 l36 44 33 -38
c33 -39 43 -64 25 -64 -5 0 -17 7 -25 16 -15 14 -16 -3 -16 -185 l0 -201 51 0
c29 0 48 4 44 10 -9 15 6 60 21 60 12 0 18 -20 17 -57 -1 -9 19 -13 67 -13
l68 0 -5 291 -5 292 63 -5 c36 -3 92 -17 127 -31z m-358 -722 c6 -8 9 -23 5
-34 -3 -11 -1 -29 4 -40 15 -27 -16 -63 -53 -63 -35 0 -55 17 -38 34 9 9 15 9
23 1 14 -14 39 -6 39 12 0 8 -14 15 -32 17 -39 4 -47 27 -24 63 18 28 57 33
76 10z m445 -25 c12 14 22 17 29 10 6 -6 4 -16 -7 -28 -17 -19 -14 -52 4 -52
5 0 9 -7 9 -15 0 -20 -36 -19 -44 1 -6 15 -9 14 -30 -5 -30 -28 -45 -11 -21
25 15 24 15 27 0 44 -25 28 -8 46 19 21 l23 -21 18 20z"/>
<path d="M3205 1641 c-3 -5 -1 -12 5 -16 12 -7 30 2 30 16 0 12 -27 12 -35 0z"/>
<path d="M4855 2670 c-29 -30 -29 -54 0 -30 13 11 15 -17 15 -264 l0 -276 -60
0 -59 0 -4 153 -3 152 -2 -152 -2 -153 -60 0 -60 0 0 80 c0 47 -4 80 -10 80
-6 0 -10 -33 -10 -80 l0 -80 -55 0 -55 0 0 50 c0 28 -4 50 -10 50 -5 0 -10
-22 -10 -50 0 -43 -3 -50 -19 -50 -11 0 -23 -4 -26 -10 -4 -7 152 -10 459 -10
304 0 466 3 466 10 0 6 -11 10 -25 10 -25 0 -25 1 -25 80 0 47 -4 80 -10 80
-6 0 -10 -33 -10 -80 l0 -81 -57 3 -58 3 -3 143 c-4 191 -22 189 -22 -3 l0
-146 -57 3 -58 3 -1 202 c0 111 -3 205 -7 209 -4 4 -7 -88 -7 -204 l0 -212
-60 0 -60 0 0 276 c0 247 2 275 15 264 26 -21 29 -3 5 29 -12 17 -22 31 -24
31 -1 0 -15 -13 -31 -30z"/>
<path d="M2167 2644 c-19 -20 4 -24 129 -24 104 0 135 3 132 13 -5 13 -248 24
-261 11z"/>
<path d="M2035 2591 c-48 -22 -69 -44 -90 -94 -33 -81 -11 -167 52 -193 65
-28 143 21 143 90 0 44 -24 73 -69 87 -32 9 -44 9 -70 -4 -42 -21 -41 -2 2 47
20 24 45 40 67 45 21 4 36 13 38 24 5 22 -22 22 -73 -2z m47 -158 c38 -34 7
-103 -47 -103 -57 0 -90 85 -42 108 33 16 68 14 89 -5z"/>
<path d="M6317 2602 l-437 -2 2 -343 3 -342 443 -3 442 -2 0 344 c0 190 -3
346 -7 348 -5 2 -205 2 -446 0z m281 -19 c84 -3 151 -10 150 -14 -2 -4 -76
-82 -165 -173 -173 -178 -186 -185 -237 -145 l-26 20 -27 -20 c-16 -11 -66
-58 -112 -104 -81 -83 -84 -84 -119 -76 -34 7 -38 5 -99 -53 l-63 -61 0 310
c0 170 3 313 7 317 8 8 486 8 691 -1z m152 -353 l0 -300 -421 0 c-476 0 -441
-8 -344 82 47 43 54 46 91 41 40 -5 41 -4 115 75 41 45 87 91 103 103 l27 21
23 -21 c49 -46 68 -35 236 138 85 87 158 159 163 160 4 1 7 -134 7 -299z"/>
<path d="M1630 2538 c0 -7 14 -26 31 -44 l31 -32 -36 -38 c-19 -20 -33 -41
-30 -46 10 -16 33 -7 54 22 12 17 25 30 30 30 5 0 25 -13 43 -30 19 -16 37
-30 41 -30 15 0 3 27 -25 56 l-32 33 32 39 c35 45 37 52 17 52 -8 0 -24 -13
-37 -30 -30 -37 -38 -37 -74 0 -31 32 -45 38 -45 18z"/>
<path d="M2277 2543 c-4 -3 -7 -24 -7 -45 0 -38 0 -38 -40 -38 -22 0 -40 -4
-40 -10 0 -5 18 -10 40 -10 l40 0 0 -45 c0 -33 4 -45 14 -45 10 0 16 13 18 42
3 41 3 42 42 42 55 1 59 24 4 28 -43 3 -43 3 -46 46 -3 40 -10 50 -25 35z"/>
<path d="M4460 2016 c0 -9 7 -16 16 -16 17 0 14 22 -4 28 -7 2 -12 -3 -12 -12z"/>
<path d="M4600 2015 c0 -8 5 -15 10 -15 6 0 10 7 10 15 0 8 -4 15 -10 15 -5 0
-10 -7 -10 -15z"/>
<path d="M4732 2021 c4 -13 18 -16 19 -4 0 4 -5 9 -11 12 -7 2 -11 -2 -8 -8z"/>
<path d="M4870 2021 c0 -6 5 -13 10 -16 6 -3 10 1 10 9 0 9 -4 16 -10 16 -5 0
-10 -4 -10 -9z"/>
<path d="M5010 2015 c0 -8 5 -15 10 -15 6 0 10 7 10 15 0 8 -4 15 -10 15 -5 0
-10 -7 -10 -15z"/>
<path d="M5142 2021 c2 -7 7 -12 11 -12 12 1 9 15 -3 20 -7 2 -11 -2 -8 -8z"/>
<path d="M5280 2015 c0 -9 5 -15 11 -13 6 2 11 8 11 13 0 5 -5 11 -11 13 -6 2
-11 -4 -11 -13z"/>
<path d="M2400 1995 c0 -18 -5 -25 -20 -25 -11 0 -20 -7 -20 -15 0 -8 9 -15
20 -15 13 0 20 -7 20 -20 0 -11 7 -20 15 -20 10 0 15 7 13 18 -2 11 4 18 20
20 31 5 29 32 -3 32 -20 0 -25 5 -25 25 0 14 -4 25 -10 25 -5 0 -10 -11 -10
-25z"/>
<path d="M2172 1950 c-44 -18 -54 -87 -18 -123 13 -13 12 -17 -10 -37 -68 -65
17 -162 120 -136 64 16 87 93 41 136 l-24 23 19 25 c58 73 -31 151 -128 112z
m90 -37 c36 -33 13 -83 -38 -83 -23 0 -54 29 -54 51 0 19 36 49 59 49 8 0 23
-7 33 -17z m2 -134 c30 -24 33 -45 9 -71 -32 -36 -113 -13 -113 33 0 19 44 59
65 59 7 0 24 -9 39 -21z"/>
<path d="M1865 1890 c-4 -7 7 -26 26 -46 l33 -34 -32 -33 c-30 -31 -41 -57
-25 -57 4 0 22 14 40 32 l33 32 35 -34 c27 -26 38 -31 47 -22 9 9 4 20 -22 47
l-34 35 33 34 c23 23 29 36 21 41 -7 4 -25 -5 -43 -24 l-31 -31 -37 36 c-25
24 -39 32 -44 24z"/>
<path d="M1580 1838 c0 -16 11 -18 90 -18 84 0 90 1 90 21 0 19 -5 20 -90 17
-78 -2 -90 -5 -90 -20z"/>
<path d="M1580 1765 c0 -12 17 -15 90 -15 73 0 90 3 90 15 0 12 -17 15 -90 15
-73 0 -90 -3 -90 -15z"/>
<path d="M4958 1749 c-10 -5 -18 -17 -18 -24 0 -17 16 -20 25 -5 9 14 48 13
63 -2 23 -23 11 -55 -43 -115 -30 -34 -55 -64 -55 -67 0 -3 34 -6 76 -6 56 0
75 3 72 13 -3 6 -23 13 -46 15 l-42 3 40 48 c48 57 55 109 18 135 -26 18 -65
20 -90 5z"/>
<path d="M5142 1744 c-24 -16 -30 -62 -11 -81 8 -8 7 -17 -5 -34 -34 -50 -3
-99 62 -99 69 0 108 70 60 105 -21 15 -22 17 -5 26 25 15 21 54 -9 78 -32 25
-61 27 -92 5z m82 -37 c9 -15 7 -21 -9 -33 -11 -8 -26 -13 -34 -12 -20 4 -35
32 -28 52 9 23 56 18 71 -7z m10 -99 c8 -13 6 -22 -8 -37 -24 -26 -48 -27 -70
-2 -14 16 -15 23 -6 41 14 26 67 25 84 -2z"/>
<path d="M4517 1703 c-14 -13 -7 -23 15 -20 17 1 24 -5 31 -31 13 -41 -3 -79
-38 -92 -15 -6 -23 -14 -20 -20 11 -18 33 -11 54 17 12 14 22 24 24 22 1 -2 7
-13 13 -24 21 -38 84 -22 84 22 0 14 -3 14 -20 -2 -24 -22 -45 -14 -54 20 -5
20 -1 35 19 61 14 19 33 34 41 34 7 0 14 5 14 10 0 18 -43 11 -66 -11 l-22
-21 -11 21 c-11 20 -50 29 -64 14z"/>
<path d="M4760 1660 c0 -6 27 -10 61 -10 37 0 58 4 54 10 -3 6 -31 10 -61 10
-30 0 -54 -4 -54 -10z"/>
<path d="M4756 1611 c-7 -11 68 -19 104 -12 l25 5 -25 7 c-36 10 -98 10 -104
0z"/>
<path d="M2178 1203 c46 -2 118 -2 160 0 42 1 5 3 -83 3 -88 0 -123 -2 -77 -3z"/>
<path d="M7230 1025 l0 -145 -25 0 c-24 0 -25 3 -25 55 0 30 -4 55 -10 55 -5
0 -10 -25 -10 -56 0 -54 0 -55 -27 -52 -26 3 -28 7 -34 63 -6 66 -12 56 -9
-17 1 -47 1 -48 -29 -48 -31 0 -31 0 -31 54 0 30 -4 58 -10 61 -6 4 -10 -17
-10 -54 l0 -61 -30 0 c-30 0 -30 1 -30 55 0 30 -4 55 -10 55 -5 0 -10 -25 -10
-55 0 -52 -1 -55 -25 -55 -24 0 -25 3 -25 54 0 30 -4 58 -10 61 -6 4 -10 -17
-10 -54 0 -58 -1 -61 -25 -61 -14 0 -25 3 -26 8 0 4 -2 29 -4 56 -5 70 -15 69
-15 -2 l0 -62 -30 0 -30 0 0 61 c0 37 -4 58 -10 54 -5 -3 -10 -31 -10 -61 0
-51 -1 -54 -25 -54 -24 0 -25 3 -25 55 0 30 -4 55 -10 55 -5 0 -10 -25 -10
-55 l0 -55 -79 0 c-75 0 -110 -11 -76 -24 12 -4 15 -29 15 -134 l0 -129 543 2
c529 1 542 1 545 20 2 11 18 29 35 40 25 16 33 28 35 58 3 33 -2 45 -37 82
-35 38 -41 51 -43 92 -2 67 -2 71 -12 80 -4 4 -6 -25 -4 -64 3 -67 6 -76 39
-110 20 -21 39 -46 42 -56 10 -26 -12 -64 -44 -78 -17 -7 -29 -19 -29 -30 0
-18 -18 -19 -525 -19 l-525 0 -5 23 c-2 12 -4 67 -2 122 l2 100 453 3 c290 1
452 6 452 12 0 6 -36 10 -85 10 l-85 0 0 135 0 135 190 0 c120 0 190 4 190 10
0 6 -73 10 -200 10 l-200 0 0 -145z"/>
<path d="M6350 915 c0 -43 4 -75 10 -75 6 0 10 32 10 75 0 43 -4 75 -10 75 -6
0 -10 -32 -10 -75z"/>
</g>
</svg>
