<?xml version="1.0" standalone="no"?>
<!DOCTYPE svg PUBLIC "-//W3C//DTD SVG 20010904//EN"
 "http://www.w3.org/TR/2001/REC-SVG-20010904/DTD/svg10.dtd">
<svg version="1.0" xmlns="http://www.w3.org/2000/svg"
 width="784.000000pt" height="1168.000000pt" viewBox="0 0 784.000000 1168.000000"
 preserveAspectRatio="xMidYMid meet">

<g transform="translate(0.000000,1168.000000) scale(0.100000,-0.100000)"
fill="#000000" stroke="none">
<path d="M3931 8805 c0 -11 7 -38 14 -60 l14 -40 -6 40 c-3 22 -9 49 -14 60
l-8 20 0 -20z"/>
<path d="M3886 8784 c-4 -14 -5 -29 -2 -31 3 -3 8 7 12 21 3 15 4 29 1 32 -2
3 -8 -7 -11 -22z"/>
<path d="M3981 8604 c0 -11 3 -14 6 -6 3 7 2 16 -1 19 -3 4 -6 -2 -5 -13z"/>
<path d="M4015 8448 c-4 -9 4 -36 19 -65 20 -37 24 -41 19 -18 -3 17 -12 46
-18 65 -10 27 -14 31 -20 18z"/>
<path d="M3784 8390 c-6 -27 -8 -48 -6 -45 12 12 40 84 34 89 -12 13 -19 4
-28 -44z"/>
<path d="M3622 7931 c-44 -93 -70 -157 -66 -168 4 -12 3 -14 -3 -6 -10 14 4
41 -358 -692 -345 -698 -431 -877 -404 -845 12 14 25 25 30 25 6 0 13 5 17 10
17 25 118 67 213 89 104 25 258 36 292 22 9 -5 29 -5 43 -2 19 5 24 4 18 -5
-5 -9 -2 -10 9 -6 10 4 17 2 17 -4 0 -6 7 -9 15 -5 8 3 15 1 15 -4 0 -5 16 -7
35 -5 19 3 35 1 35 -5 0 -11 104 -90 120 -90 16 0 12 -32 -8 -62 -10 -15 -23
-24 -29 -20 -13 8 -117 3 -108 -6 3 -3 35 -6 70 -7 l64 -1 31 58 c28 54 41 91
21 59 -7 -11 -12 -11 -32 0 -13 7 -27 12 -31 11 -5 -1 -8 3 -8 9 0 5 -4 8 -9
5 -22 -14 -78 175 -102 344 -17 121 -17 446 0 570 29 222 65 408 116 607 30
116 60 224 65 239 6 15 9 28 7 30 -2 3 -36 -63 -75 -145z m-95 -256 c0 -8 -4
-12 -9 -9 -4 3 -8 9 -8 15 0 5 4 9 8 9 5 0 9 -7 9 -15z"/>
<path d="M3435 7730 c-23 -6 -25 -8 -8 -9 12 0 25 -6 29 -12 6 -11 23 6 24 24
0 8 -3 8 -45 -3z"/>
<path d="M4356 7726 c3 -8 13 -12 25 -9 16 5 18 8 7 14 -20 13 -38 11 -32 -5z"/>
<path d="M3415 7630 c3 -5 8 -10 11 -10 2 0 4 5 4 10 0 6 -5 10 -11 10 -5 0
-7 -4 -4 -10z"/>
<path d="M2533 6823 c9 -2 23 -2 30 0 6 3 -1 5 -18 5 -16 0 -22 -2 -12 -5z"/>
<path d="M3886 6565 c-3 -8 -1 -15 4 -15 6 0 10 7 10 15 0 8 -2 15 -4 15 -2 0
-6 -7 -10 -15z"/>
<path d="M3930 6573 c0 -5 7 -18 15 -29 13 -18 14 -18 8 4 -5 22 -23 41 -23
25z"/>
<path d="M3465 6140 c-3 -6 1 -7 9 -4 18 7 21 14 7 14 -6 0 -13 -4 -16 -10z"/>
<path d="M3426 6103 c-6 -14 -5 -15 5 -6 7 7 10 15 7 18 -3 3 -9 -2 -12 -12z"/>
<path d="M3729 6104 c18 -8 36 -13 39 -10 6 6 -43 26 -61 25 -7 0 3 -7 22 -15z"/>
<path d="M2305 6080 c3 -5 8 -10 11 -10 2 0 4 5 4 10 0 6 -5 10 -11 10 -5 0
-7 -4 -4 -10z"/>
<path d="M5510 6080 c0 -5 5 -10 10 -10 6 0 10 5 10 10 0 6 -4 10 -10 10 -5 0
-10 -4 -10 -10z"/>
<path d="M4055 6048 c-68 -18 -126 -27 -151 -25 l-41 4 35 -51 c19 -28 45 -73
59 -100 26 -51 96 -256 90 -262 -7 -8 -133 54 -267 131 -156 90 -200 121 -200
144 0 9 -11 -2 -23 -24 l-23 -40 59 -35 c32 -19 71 -43 85 -52 15 -9 80 -45
144 -80 64 -34 114 -67 111 -72 -4 -5 -1 -6 4 -3 6 4 86 -25 179 -64 211 -87
414 -163 420 -156 3 3 -3 8 -13 11 -10 3 -30 32 -45 63 -14 32 -77 166 -140
298 -150 317 -142 295 -119 295 10 0 24 -7 31 -15 7 -8 20 -15 29 -15 51 0
398 -145 594 -248 207 -108 356 -211 503 -344 101 -92 118 -101 44 -24 -76 80
-263 231 -370 301 -100 65 -371 204 -495 254 -221 89 -292 114 -326 115 -20 1
-42 6 -50 12 -11 8 -41 4 -124 -18z"/>
<path d="M3431 6015 c2 -37 -1 -45 -16 -45 -22 0 -19 -6 30 -58 25 -26 45 -52
45 -59 0 -29 17 -10 36 39 27 73 27 75 11 55 -14 -17 -17 -15 -55 20 -21 21
-42 45 -45 53 -5 11 -6 9 -6 -5z"/>
<path d="M1820 6004 c0 -8 5 -12 10 -9 6 4 8 11 5 16 -9 14 -15 11 -15 -7z"/>
<path d="M2285 6000 c-3 -5 -2 -10 4 -10 5 0 13 5 16 10 3 6 2 10 -4 10 -5 0
-13 -4 -16 -10z"/>
<path d="M5970 6006 c0 -2 9 -6 20 -9 11 -3 20 -1 20 4 0 5 -9 9 -20 9 -11 0
-20 -2 -20 -4z"/>
<path d="M2045 5849 c-4 -6 -5 -12 -2 -15 2 -3 7 2 10 11 7 17 1 20 -8 4z"/>
<path d="M4372 5756 c7 -16 14 -23 16 -17 2 6 13 4 30 -8 15 -10 44 -29 64
-42 20 -13 34 -28 31 -34 -4 -5 -3 -7 2 -3 16 15 172 -84 350 -221 124 -95
317 -279 309 -293 -7 -11 20 -31 87 -68 25 -14 68 -45 95 -69 27 -24 40 -38
29 -31 -17 12 -18 12 -8 0 7 -8 26 -15 42 -16 34 -3 71 -21 71 -34 0 -6 9 -10
20 -10 11 0 20 -5 20 -11 0 -5 4 -8 9 -4 5 3 13 0 17 -6 4 -7 3 -9 -4 -5 -6 3
-14 1 -18 -6 -4 -7 -4 -10 0 -6 13 11 65 -13 71 -33 4 -13 -6 -47 -29 -93 -20
-40 -36 -79 -35 -87 0 -8 23 30 50 85 l51 99 -40 41 c-116 119 -172 182 -172
192 0 6 7 31 15 54 8 23 15 48 15 55 0 21 -171 146 -320 233 -187 109 -541
275 -685 321 -38 13 -76 28 -83 34 -11 8 -11 5 0 -17z m1046 -721 c27 -14 56
-32 63 -42 9 -10 -9 -4 -46 16 -94 52 -107 71 -17 26z"/>
<path d="M1070 5755 l-45 -13 51 -1 c38 -1 53 3 58 14 6 18 -3 18 -64 0z"/>
<path d="M6720 5750 c8 -5 29 -9 45 -9 29 1 29 1 5 9 -14 4 -34 8 -45 9 -16 1
-17 -1 -5 -9z"/>
<path d="M1035 5690 c11 -5 31 -9 45 -9 20 -1 22 1 10 9 -8 5 -28 9 -45 9 -26
0 -27 -2 -10 -9z"/>
<path d="M4424 5648 c22 -49 61 -131 107 -221 10 -22 19 -45 19 -53 0 -17 40
-34 78 -34 25 0 26 0 6 18 -11 10 -31 22 -45 25 -32 8 -84 104 -74 138 4 16 3
20 -3 11 -7 -10 -13 -7 -25 12 -10 14 -17 28 -17 32 0 12 -52 114 -61 120 -4
2 2 -19 15 -48z"/>
<path d="M6730 5690 c0 -12 17 -12 45 0 17 7 15 9 -12 9 -18 1 -33 -3 -33 -9z"/>
<path d="M1188 5653 c7 -3 16 -2 19 1 4 3 -2 6 -13 5 -11 0 -14 -3 -6 -6z"/>
<path d="M1408 5593 c7 -3 16 -2 19 1 4 3 -2 6 -13 5 -11 0 -14 -3 -6 -6z"/>
<path d="M1448 5583 c7 -3 16 -2 19 1 4 3 -2 6 -13 5 -11 0 -14 -3 -6 -6z"/>
<path d="M2042 5510 c0 -14 2 -19 5 -12 2 6 2 18 0 25 -3 6 -5 1 -5 -13z"/>
<path d="M1812 5441 c2 -7 7 -12 11 -12 12 1 9 15 -3 20 -7 2 -11 -2 -8 -8z"/>
<path d="M2054 5420 c60 -17 111 -28 113 -26 9 9 -108 45 -162 50 -55 5 -51 3
49 -24z"/>
<path d="M5720 5422 c-28 -13 -50 -26 -48 -27 3 -4 180 44 186 49 1 2 -18 3
-42 3 -27 0 -65 -10 -96 -25z"/>
<path d="M4583 5306 c12 -18 23 -27 25 -20 3 13 -27 54 -40 54 -4 0 3 -15 15
-34z"/>
<path d="M4892 5248 c3 -7 13 -15 22 -16 12 -3 17 1 14 10 -3 7 -13 15 -22 16
-12 3 -17 -1 -14 -10z"/>
<path d="M4610 5145 c0 -8 4 -15 10 -15 5 0 7 7 4 15 -4 8 -8 15 -10 15 -2 0
-4 -7 -4 -15z"/>
<path d="M5484 5133 c-3 -16 -7 -33 -9 -40 -6 -17 160 -187 174 -179 7 4 9 2
5 -8 -3 -9 3 -20 15 -28 12 -7 21 -19 21 -26 0 -7 5 -10 10 -7 6 4 17 1 25 -5
22 -18 19 -11 -31 86 -49 93 -64 116 -64 97 0 -7 5 -15 10 -18 6 -3 10 -14 10
-23 0 -9 -18 10 -39 43 -36 57 -103 135 -115 135 -3 0 -8 -12 -12 -27z"/>
<path d="M3598 5033 c6 -2 18 -2 25 0 6 3 1 5 -13 5 -14 0 -19 -2 -12 -5z"/>
<path d="M3460 5023 c8 -3 18 -10 21 -16 4 -5 13 -6 20 -2 9 6 8 10 -7 16 -10
4 -26 8 -34 8 -13 -1 -13 -1 0 -6z"/>
<path d="M4342 5023 c-6 -2 -10 -9 -6 -14 8 -14 21 -11 28 6 6 15 1 17 -22 8z"/>
<path d="M3060 4829 c0 -5 5 -7 10 -4 6 3 10 8 10 11 0 2 -4 4 -10 4 -5 0 -10
-5 -10 -11z"/>
<path d="M4755 4830 c3 -5 8 -10 11 -10 2 0 4 5 4 10 0 6 -5 10 -11 10 -5 0
-7 -4 -4 -10z"/>
<path d="M3020 4751 c0 -5 5 -13 10 -16 6 -3 10 -2 10 4 0 5 -4 13 -10 16 -5
3 -10 2 -10 -4z"/>
<path d="M5515 4609 c-4 -6 -5 -12 -2 -15 2 -3 7 2 10 11 7 17 1 20 -8 4z"/>
<path d="M5243 4543 c9 -2 25 -2 35 0 9 3 1 5 -18 5 -19 0 -27 -2 -17 -5z"/>
<path d="M2346 4527 c3 -10 9 -15 12 -12 3 3 0 11 -7 18 -10 9 -11 8 -5 -6z"/>
<path d="M2443 4533 c9 -2 25 -2 35 0 9 3 1 5 -18 5 -19 0 -27 -2 -17 -5z"/>
<path d="M3545 4370 c-3 -5 -1 -10 4 -10 6 0 11 5 11 10 0 6 -2 10 -4 10 -3 0
-8 -4 -11 -10z"/>
<path d="M4270 4370 c0 -5 5 -10 11 -10 5 0 7 5 4 10 -3 6 -8 10 -11 10 -2 0
-4 -4 -4 -10z"/>
<path d="M3600 4355 c0 -8 4 -15 10 -15 5 0 7 7 4 15 -4 8 -8 15 -10 15 -2 0
-4 -7 -4 -15z"/>
<path d="M3853 4303 c37 -2 96 -2 130 0 34 2 4 3 -68 3 -71 0 -99 -1 -62 -3z"/>
<path d="M6005 4240 c-3 -5 1 -10 10 -10 9 0 13 5 10 10 -3 6 -8 10 -10 10 -2
0 -7 -4 -10 -10z"/>
<path d="M1800 4231 c0 -5 9 -7 20 -4 11 3 20 7 20 9 0 2 -9 4 -20 4 -11 0
-20 -4 -20 -9z"/>
<path d="M2038 4213 c6 -2 18 -2 25 0 6 3 1 5 -13 5 -14 0 -19 -2 -12 -5z"/>
<path d="M1765 4169 c-4 -6 -5 -12 -2 -15 2 -3 7 2 10 11 7 17 1 20 -8 4z"/>
<path d="M5447 4139 c7 -7 15 -10 18 -7 3 3 -2 9 -12 12 -14 6 -15 5 -6 -5z"/>
<path d="M2368 4133 c7 -3 16 -2 19 1 4 3 -2 6 -13 5 -11 0 -14 -3 -6 -6z"/>
<path d="M5084 3987 c3 -10 6 -23 6 -28 0 -5 5 -9 10 -9 14 0 12 13 -6 36 -14
17 -15 17 -10 1z"/>
<path d="M3558 3893 c7 -3 16 -2 19 1 4 3 -2 6 -13 5 -11 0 -14 -3 -6 -6z"/>
<path d="M3185 3829 c-4 -6 -5 -13 -2 -16 7 -7 27 6 27 18 0 12 -17 12 -25 -2z"/>
<path d="M4630 3825 c7 -8 17 -15 22 -15 6 0 5 7 -2 15 -7 8 -17 15 -22 15 -6
0 -5 -7 2 -15z"/>
<path d="M3090 3790 c0 -6 7 -10 15 -10 8 0 15 2 15 4 0 2 -7 6 -15 10 -8 3
-15 1 -15 -4z"/>
<path d="M4725 3790 c-3 -5 1 -10 9 -10 9 0 16 5 16 10 0 6 -4 10 -9 10 -6 0
-13 -4 -16 -10z"/>
<path d="M4488 3753 c7 -3 16 -2 19 1 4 3 -2 6 -13 5 -11 0 -14 -3 -6 -6z"/>
<path d="M4595 3744 c-26 -12 -27 -14 -5 -9 14 2 31 5 38 5 6 0 12 5 12 10 0
13 -9 12 -45 -6z"/>
<path d="M1765 3710 c-25 -11 1 -11 35 0 20 6 21 8 5 8 -11 0 -29 -3 -40 -8z"/>
<path d="M3493 3713 c9 -2 23 -2 30 0 6 3 -1 5 -18 5 -16 0 -22 -2 -12 -5z"/>
<path d="M4293 3713 c9 -2 25 -2 35 0 9 3 1 5 -18 5 -19 0 -27 -2 -17 -5z"/>
<path d="M4445 3700 c-17 -7 -15 -9 13 -9 17 -1 32 4 32 9 0 12 -17 12 -45 0z"/>
<path d="M3378 3693 c6 -2 18 -2 25 0 6 3 1 5 -13 5 -14 0 -19 -2 -12 -5z"/>
<path d="M4518 3683 c7 -3 16 -2 19 1 4 3 -2 6 -13 5 -11 0 -14 -3 -6 -6z"/>
<path d="M3542 3655 c-4 -7 -18 -15 -32 -17 -14 -3 14 -4 62 -4 92 1 115 11
51 21 -21 3 -46 8 -56 10 -9 2 -20 -3 -25 -10z"/>
<path d="M4232 3659 c-53 -10 -62 -16 -62 -37 1 -16 1 -16 10 0 13 21 63 32
87 19 15 -8 19 -6 20 10 1 10 -1 19 -5 18 -4 -1 -26 -5 -50 -10z"/>
<path d="M3730 3630 c0 -5 5 -10 11 -10 5 0 7 5 4 10 -3 6 -8 10 -11 10 -2 0
-4 -4 -4 -10z"/>
<path d="M4313 3633 c9 -2 23 -2 30 0 6 3 -1 5 -18 5 -16 0 -22 -2 -12 -5z"/>
<path d="M4478 3623 c7 -3 16 -2 19 1 4 3 -2 6 -13 5 -11 0 -14 -3 -6 -6z"/>
<path d="M4100 3581 c0 -6 5 -13 10 -16 6 -3 10 1 10 9 0 9 -4 16 -10 16 -5 0
-10 -4 -10 -9z"/>
<path d="M3543 3573 c9 -2 25 -2 35 0 9 3 1 5 -18 5 -19 0 -27 -2 -17 -5z"/>
<path d="M4233 3573 c9 -2 23 -2 30 0 6 3 -1 5 -18 5 -16 0 -22 -2 -12 -5z"/>
<path d="M1823 3393 c15 -2 37 -2 50 0 12 2 0 4 -28 4 -27 0 -38 -2 -22 -4z"/>
<path d="M5983 3393 c9 -2 23 -2 30 0 6 3 -1 5 -18 5 -16 0 -22 -2 -12 -5z"/>
<path d="M2361 3324 c0 -11 3 -14 6 -6 3 7 2 16 -1 19 -3 4 -6 -2 -5 -13z"/>
<path d="M1758 3253 c7 -3 16 -2 19 1 4 3 -2 6 -13 5 -11 0 -14 -3 -6 -6z"/>
<path d="M1823 3243 c15 -2 39 -2 55 0 15 2 2 4 -28 4 -30 0 -43 -2 -27 -4z"/>
<path d="M1300 3221 c0 -5 7 -15 17 -22 15 -13 15 -12 4 9 -12 23 -21 28 -21
13z"/>
<path d="M6520 3221 c0 -6 4 -13 10 -16 6 -3 7 1 4 9 -7 18 -14 21 -14 7z"/>
<path d="M1333 3159 c-1 -10 5 -19 13 -19 17 0 18 14 1 28 -10 8 -13 6 -14 -9z"/>
<path d="M1266 3155 c-3 -9 0 -15 9 -15 9 0 12 6 9 15 -4 8 -7 15 -9 15 -2 0
-5 -7 -9 -15z"/>
<path d="M6470 3150 c0 -5 5 -10 10 -10 6 0 10 5 10 10 0 6 -4 10 -10 10 -5 0
-10 -4 -10 -10z"/>
<path d="M1583 3103 c76 -2 198 -2 270 0 73 1 11 3 -138 3 -148 0 -208 -2
-132 -3z"/>
<path d="M2133 3103 c32 -2 81 -2 110 0 29 2 3 3 -58 3 -60 0 -84 -1 -52 -3z"/>
<path d="M5643 3103 c9 -2 25 -2 35 0 9 3 1 5 -18 5 -19 0 -27 -2 -17 -5z"/>
<path d="M5853 3103 c37 -2 96 -2 130 0 34 2 4 3 -68 3 -71 0 -99 -1 -62 -3z"/>
<path d="M3942 2941 c-7 -19 -12 -43 -11 -55 1 -12 7 -2 15 24 17 53 13 80 -4
31z"/>
<path d="M3883 2944 c-3 -8 -1 -29 5 -47 10 -32 10 -31 11 16 1 48 -5 60 -16
31z"/>
</g>
</svg>
